<?xml version="1.0" standalone="no"?>
<!DOCTYPE svg PUBLIC "-//W3C//DTD SVG 1.1//EN" "http://www.w3.org/Graphics/SVG/1.1/DTD/svg11.dtd" >
<svg>
<metadata>
Created by FontForge 20120731 at Sat Jul 30 20:57:21 2016
 By Apache
Copyright (c) 2011 Canada Type. Designed by Patrick Griffin &#38; Bill Troop. All rights reserved. Semplicita is a trademark of Canada Type.
</metadata>
<defs>
<font id="SemplicitaPro-Semibold" horiz-adv-x="600" >
  <font-face 
    font-family="Semplicita Pro Semibold"
    font-weight="600"
    font-stretch="normal"
    units-per-em="1000"
    panose-1="2 0 0 0 0 0 0 0 0 0"
    ascent="800"
    descent="-200"
    x-height="504"
    cap-height="757"
    bbox="-166 -334 1347 1108"
    underline-thickness="20"
    underline-position="-113"
    unicode-range="U+0020-FB04"
  />
<missing-glyph horiz-adv-x="601" 
d="M556 0h-511v758h511v-758zM465 87v584h-329v-584h329z" />
    <glyph glyph-name="ff" unicode="ff" horiz-adv-x="744" 
d="M226 0h-117v408h-85v96h85v72c0 59 14 116 46 154c37 43 97 60 152 60c73 0 126 -30 134 -36l-46 -91c-11 8 -42 27 -82 27c-59 0 -87 -42 -87 -112v-74h127v-96h-127v-408zM598 0h-117v408h-85v96h85v119c0 59 14 116 46 154c37 43 97 60 152 60c73 0 126 -30 134 -36
l-46 -91c-11 8 -42 27 -82 27c-59 0 -87 -42 -87 -112v-121h127v-96h-127v-408z" />
    <glyph glyph-name="fi" unicode="fi" horiz-adv-x="629" 
d="M226 0h-117v408h-85v96h85v113c0 59 14 116 46 154c37 43 97 60 152 60c51 0 92 -15 115 -26l-46 -89c-15 8 -37 15 -62 15c-60 0 -88 -41 -88 -112v-115h127v-96h-127v-408zM559 0h-118v505h118v-505zM501 572c-43 0 -75 31 -75 76s32 76 76 76c45 0 75 -32 75 -76
c0 -45 -32 -76 -76 -76z" />
    <glyph glyph-name="f_j" unicode="fj" horiz-adv-x="628" 
d="M226 0h-117v408h-85v96h85v113c0 59 14 116 46 154c37 43 97 60 152 60c51 0 92 -15 115 -26l-46 -89c-15 8 -37 15 -62 15c-60 0 -88 -41 -88 -112v-115h127v-96h-127v-408zM501 572c-43 0 -75 31 -75 76s32 76 76 76c45 0 75 -32 75 -76c0 -45 -32 -76 -76 -76z
M373 -268l-45 89c111 33 113 50 113 217v467h118v-469c0 -183 -18 -254 -186 -304z" />
    <glyph glyph-name="fl" unicode="fl" horiz-adv-x="624" 
d="M226 0h-117v408h-85v96h85v98c0 59 14 116 46 154c37 43 97 60 152 60c41 0 75 -10 99 -19l-30 -96c-15 8 -37 15 -62 15c-60 0 -88 -41 -88 -112v-100h127v-96h-127v-408zM557 0h-118v820h118v-820z" />
    <glyph glyph-name="f_t" unicode="ft" horiz-adv-x="682" 
d="M543 0h-118v408h-199v-408h-117v408h-85v96h85v113c0 59 14 116 46 154c37 43 97 60 152 60c51 0 92 -15 115 -26l-46 -89c-15 8 -37 15 -62 15c-60 0 -88 -41 -88 -112v-115h199v173h118v-173h124v-96h-124v-408z" />
    <glyph glyph-name="ffi" unicode="ffi" horiz-adv-x="1002" 
d="M226 0h-117v408h-85v96h85v72c0 59 14 116 46 154c37 43 97 60 152 60c73 0 126 -30 134 -36l-46 -91c-11 8 -42 27 -82 27c-59 0 -87 -42 -87 -112v-74h127v-96h-127v-408zM598 0h-117v408h-85v96h85v118c0 59 14 116 46 154c37 43 97 60 152 60c51 0 92 -15 115 -26
l-46 -89c-15 8 -37 15 -62 15c-60 0 -88 -41 -88 -112v-120h127v-96h-127v-408zM932 0h-118v505h118v-505zM874 572c-43 0 -75 31 -75 76s32 76 76 76c45 0 75 -32 75 -76c0 -45 -32 -76 -76 -76z" />
    <glyph glyph-name="ffl" unicode="ffl" horiz-adv-x="996" 
d="M226 0h-117v408h-85v96h85v67c0 59 14 116 46 154c37 43 97 60 152 60c73 0 126 -30 134 -36l-46 -91c-11 8 -42 27 -82 27c-59 0 -87 -42 -87 -112v-69h127v-96h-127v-408zM598 0h-117v408h-85v96h85v103c0 59 14 116 46 154c37 43 97 60 152 60c41 0 75 -10 99 -19
l-30 -96c-15 8 -37 15 -62 15c-60 0 -88 -41 -88 -112v-105h127v-96h-127v-408zM929 0h-118v820h118v-820z" />
    <glyph glyph-name=".notdef" horiz-adv-x="601" 
d="M556 0h-511v758h511v-758zM465 87v584h-329v-584h329z" />
    <glyph glyph-name="apple" unicode="&#xf8ff;" horiz-adv-x="1193" 
d="M718 0h-243l-121 607l242 238l243 -238zM414 0h-206l-158 206l103 197l201 -99zM985 0h-206l60 304l201 99l103 -197z" />
    <glyph glyph-name="space" unicode=" " horiz-adv-x="240" 
 />
    <glyph glyph-name="nbspace" unicode="&#xa0;" horiz-adv-x="240" 
 />
    <glyph glyph-name="A" unicode="A" horiz-adv-x="747" 
d="M760 0h-143l-69 148h-351l-68 -148h-143l388 788zM495 264l-109 235c-5 10 -12 27 -13 36c-2 -9 -10 -25 -15 -36l-108 -235h245z" />
    <glyph glyph-name="B" unicode="B" horiz-adv-x="642" 
d="M302 0h-217v757h179c153 0 280 -49 280 -183c0 -97 -67 -143 -112 -163c73 -18 174 -72 174 -197c0 -124 -100 -214 -304 -214zM213 454h60c84 0 136 29 136 93s-51 94 -121 94h-75v-187zM213 116h112c99 0 145 47 145 111c0 70 -56 117 -149 117h-108v-228z" />
    <glyph glyph-name="C" unicode="C" horiz-adv-x="762" 
d="M670 167l59 -83c-69 -66 -159 -101 -267 -101c-245 0 -420 180 -420 397c0 212 166 394 406 394c155 0 251 -77 276 -107l-68 -89c-53 52 -130 80 -208 80c-170 0 -270 -131 -270 -275c0 -158 119 -285 290 -285c95 0 172 39 202 69z" />
    <glyph glyph-name="D" unicode="D" horiz-adv-x="760" 
d="M285 0h-200v757h219c226 0 410 -131 410 -379c0 -240 -171 -378 -429 -378zM213 116h89c151 0 276 75 276 265c0 157 -109 260 -261 260h-104v-525z" />
    <glyph glyph-name="E" unicode="E" horiz-adv-x="594" 
d="M555 1h-470v755h438v-116h-310v-180h250v-116h-250v-227h342v-116z" />
    <glyph glyph-name="F" unicode="F" horiz-adv-x="542" 
d="M213 0h-128v756h431v-116h-303v-184h245v-117h-245v-339z" />
    <glyph glyph-name="G" unicode="G" horiz-adv-x="850" 
d="M688 289h-194v109h328c-3 -295 -184 -416 -371 -416c-229 0 -409 174 -409 393c0 221 176 399 407 399c183 0 285 -95 291 -101l-65 -96c-5 7 -85 81 -224 81c-165 0 -273 -124 -273 -284c0 -134 105 -276 274 -276c129 0 227 81 236 191z" />
    <glyph glyph-name="H" unicode="H" horiz-adv-x="784" 
d="M699 0h-128v328h-358v-328h-128v757h128v-313h358v313h128v-757z" />
    <glyph glyph-name="I" unicode="I" horiz-adv-x="298" 
d="M213 0h-128v757h128v-757z" />
    <glyph glyph-name="J" unicode="J" horiz-adv-x="298" 
d="M-28 -258l-46 109c129 43 159 82 159 248v658h128v-663c0 -214 -55 -279 -241 -352z" />
    <glyph glyph-name="K" unicode="K" horiz-adv-x="713" 
d="M734 0h-188l-333 306v-306h-128v757h128v-309l286 309h166l-364 -370z" />
    <glyph glyph-name="L" unicode="L" horiz-adv-x="546" 
d="M530 1h-445v756h128v-640h317v-116z" />
    <glyph glyph-name="M" unicode="M" horiz-adv-x="986" 
d="M937 0h-137l-38 377c-2 16 -3 29 0 42c-5 -12 -12 -25 -22 -41l-247 -407l-247 407c-10 16 -17 29 -22 41c3 -13 2 -26 0 -42l-38 -377h-137l99 777l332 -548c7 -12 11 -20 12 -29h1c1 9 5 17 13 29l332 548z" />
    <glyph glyph-name="N" unicode="N" horiz-adv-x="857" 
d="M772 -28l-562 507l2 -479h-128l1 778l562 -518l-2 497h128z" />
    <glyph glyph-name="O" unicode="O" horiz-adv-x="907" 
d="M865 375c0 -215 -188 -392 -410 -392c-230 0 -413 179 -413 395c0 217 183 396 413 396c228 0 410 -171 410 -399zM729 376c0 162 -125 282 -274 282c-152 0 -277 -120 -277 -276c0 -148 122 -284 270 -284c158 0 281 123 281 278z" />
    <glyph glyph-name="P" unicode="P" 
d="M213 0h-128v757h165c179 0 317 -59 317 -242c0 -152 -95 -255 -299 -255h-55v-260zM213 376h52c111 0 167 59 167 140c0 77 -51 124 -147 124h-72v-264z" />
    <glyph glyph-name="Q" unicode="Q" horiz-adv-x="908" 
d="M795 -107l-146 139c-55 -30 -126 -49 -193 -49c-231 0 -414 179 -414 395c0 217 183 396 414 396c227 0 410 -171 410 -399c0 -109 -52 -210 -126 -280l147 -110zM730 376c0 162 -126 282 -274 282c-153 0 -277 -120 -277 -276c0 -148 121 -284 270 -284
c157 0 281 123 281 278z" />
    <glyph glyph-name="R" unicode="R" horiz-adv-x="629" 
d="M667 0h-177l-257 280h-20v-280h-128v757h160c140 0 321 -36 321 -234c0 -104 -81 -203 -198 -224zM213 391h50c113 0 169 58 169 125c0 81 -51 124 -160 124h-59v-249z" />
    <glyph glyph-name="S" unicode="S" horiz-adv-x="591" 
d="M25 90l68 92c37 -36 106 -83 194 -83c80 0 126 39 126 101c0 87 -70 112 -146 151c-97 50 -193 102 -193 220c0 132 122 203 245 203c113 0 189 -67 205 -85l-62 -95c-38 38 -87 66 -142 66s-112 -25 -112 -83c0 -143 341 -108 341 -375c0 -114 -99 -219 -271 -219
c-109 0 -214 64 -253 107z" />
    <glyph glyph-name="T" unicode="T" horiz-adv-x="607" 
d="M368 0h-128v640h-223v116h573v-116h-222v-640z" />
    <glyph glyph-name="U" unicode="U" horiz-adv-x="774" 
d="M564 140v617h128v-666c-57 -60 -155 -108 -307 -108c-194 0 -305 98 -305 295v479h128v-409c0 -188 45 -252 200 -252c62 0 118 16 156 44z" />
    <glyph glyph-name="V" unicode="V" horiz-adv-x="711" 
d="M356 -40l-371 797h143l226 -508c4 -9 5 -20 6 -35c1 15 3 27 6 35l216 508h143z" />
    <glyph glyph-name="W" unicode="W" horiz-adv-x="1071" 
d="M779 -37l-244 518l-240 -516l-303 792h142l172 -463c4 -11 5 -22 6 -39c1 17 2 28 7 39l218 494l218 -494c4 -10 6 -21 7 -36c1 15 2 25 6 36l168 463h140z" />
    <glyph glyph-name="X" unicode="X" horiz-adv-x="721" 
d="M718 0h-160l-198 290l-201 -290h-160l292 390l-272 367h160l185 -267l185 267h160l-278 -367z" />
    <glyph glyph-name="Y" unicode="Y" horiz-adv-x="653" 
d="M390 0h-128v313l-277 444h143l194 -321c4 -7 5 -12 6 -27c1 14 3 19 8 27l194 321h142l-282 -444v-313z" />
    <glyph glyph-name="Z" unicode="Z" horiz-adv-x="682" 
d="M647 1h-649l425 639h-337v116h561l-424 -639h424v-116z" />
    <glyph glyph-name="a" unicode="a" horiz-adv-x="541" 
d="M371 106v88c-22 21 -71 43 -120 43c-67 0 -102 -39 -102 -78s35 -80 113 -80c42 0 85 12 109 27zM484 318v-265c-39 -36 -127 -68 -223 -68c-165 0 -235 94 -235 179c0 88 74 165 198 165c51 0 113 -13 147 -45v59c0 48 -26 78 -111 78c-65 0 -114 -18 -141 -29l-36 86
c44 21 106 41 190 41c167 0 211 -79 211 -201z" />
    <glyph glyph-name="b" unicode="b" horiz-adv-x="601" 
d="M63 48v772h118v-346c33 22 87 45 151 45c152 0 231 -128 231 -263c0 -177 -135 -271 -284 -271c-65 0 -150 18 -216 63zM181 371v-264c21 -14 58 -24 96 -24c102 0 161 70 161 170c0 88 -46 167 -132 167c-49 0 -102 -26 -125 -49z" />
    <glyph glyph-name="c" unicode="c" horiz-adv-x="520" 
d="M458 140l38 -82c-23 -23 -85 -73 -199 -73c-119 0 -261 100 -261 267c0 153 126 267 273 267c86 0 155 -42 172 -59l-45 -89c-14 13 -60 49 -122 49c-81 0 -156 -60 -156 -169c0 -99 69 -169 156 -169c79 0 127 39 144 58z" />
    <glyph glyph-name="d" unicode="d" horiz-adv-x="599" 
d="M418 109v267c-24 27 -71 45 -114 45c-87 0 -143 -71 -143 -175c0 -98 72 -163 154 -163c31 0 70 5 103 26zM418 485v335h118v-772c-69 -44 -148 -63 -221 -63c-142 0 -278 89 -278 261c0 162 109 273 264 273c40 0 84 -10 117 -34z" />
    <glyph glyph-name="e" unicode="e" horiz-adv-x="583" 
d="M492 136l37 -84c-27 -24 -106 -67 -213 -67c-167 0 -279 104 -279 264c0 156 106 270 264 270c164 0 246 -122 246 -262v-49h-388c7 -65 66 -125 177 -125c78 0 129 32 156 53zM160 303h264c-3 66 -47 123 -125 123c-69 0 -130 -44 -139 -123z" />
    <glyph glyph-name="f" unicode="f" horiz-adv-x="372" 
d="M226 0h-117v408h-85v96h85v99c0 59 14 116 46 154c37 43 97 60 152 60c73 0 126 -30 134 -36l-46 -91c-11 8 -42 27 -82 27c-59 0 -87 -42 -87 -112v-101h127v-96h-127v-408z" />
    <glyph glyph-name="g" unicode="g" horiz-adv-x="593" 
d="M411 -40v85c-34 -37 -93 -60 -137 -60c-120 0 -237 101 -237 267c0 174 132 267 278 267c104 0 167 -26 214 -52v-491c0 -191 -126 -247 -243 -247c-109 0 -189 36 -228 61l49 90c26 -20 94 -53 176 -53c68 0 128 32 128 133zM411 145v256c-20 9 -53 21 -92 21
c-82 0 -158 -49 -158 -170c0 -72 41 -168 135 -168c54 0 95 28 115 61z" />
    <glyph glyph-name="h" unicode="h" horiz-adv-x="577" 
d="M515 0h-118v275c0 88 -16 140 -98 140c-49 0 -100 -37 -116 -58v-357h-118v820h118v-367c26 24 84 66 162 66c110 0 170 -55 170 -182v-337z" />
    <glyph glyph-name="i" unicode="i" horiz-adv-x="256" 
d="M187 0h-118v505h118v-505zM128 592c-43 0 -75 31 -75 76s32 76 75 76c46 0 76 -32 76 -76c0 -45 -32 -76 -76 -76z" />
    <glyph glyph-name="j" unicode="j" horiz-adv-x="256" 
d="M1 -268l-45 89c111 33 113 50 113 217v467h118v-469c0 -183 -18 -254 -186 -304zM129 592c-43 0 -76 31 -76 76s33 76 76 76c46 0 76 -32 76 -76c0 -45 -32 -76 -76 -76z" />
    <glyph glyph-name="k" unicode="k" horiz-adv-x="531" 
d="M533 0h-161l-189 227v-227h-118v820h118v-515l163 200h147l-207 -232z" />
    <glyph glyph-name="l" unicode="l" horiz-adv-x="252" 
d="M185 0h-118v820h118v-820z" />
    <glyph glyph-name="m" unicode="m" horiz-adv-x="873" 
d="M811 0h-118v320c0 65 -27 95 -79 95c-51 0 -96 -32 -117 -56v-359h-118v325c0 64 -31 90 -85 90c-46 0 -94 -36 -111 -56v-359h-118v505h118v-53c23 22 82 67 159 67c80 0 111 -46 126 -76c40 31 104 76 181 76c103 0 162 -55 162 -180v-339z" />
    <glyph glyph-name="n" unicode="n" horiz-adv-x="577" 
d="M515 0h-118v275c0 88 -16 140 -98 140c-49 0 -100 -37 -116 -58v-357h-118v505h118v-52c26 24 84 66 162 66c110 0 170 -55 170 -182v-337z" />
    <glyph glyph-name="o" unicode="o" horiz-adv-x="617" 
d="M581 251c0 -146 -120 -266 -273 -266s-272 118 -272 266c0 149 119 268 275 268c153 0 270 -121 270 -268zM307 83c90 0 149 65 149 168c0 101 -66 169 -146 169c-87 0 -152 -68 -152 -172c0 -98 72 -165 149 -165z" />
    <glyph glyph-name="p" unicode="p" horiz-adv-x="599" 
d="M182 -255h-118v717c70 39 153 57 224 57c142 0 274 -88 274 -266c0 -139 -89 -268 -247 -268c-44 0 -100 22 -133 49v-289zM182 396v-256c26 -34 78 -56 126 -56c70 0 130 66 130 168c0 96 -60 168 -160 168c-34 0 -75 -9 -96 -24z" />
    <glyph glyph-name="q" unicode="q" horiz-adv-x="605" 
d="M541 -255h-118v289c-35 -28 -91 -49 -141 -49c-132 0 -246 111 -246 266c0 178 145 268 288 268c90 0 158 -21 217 -57v-717zM423 148v249c-21 12 -59 25 -93 25c-103 0 -171 -79 -171 -175c0 -105 70 -164 144 -164c46 0 92 25 120 65z" />
    <glyph glyph-name="r" unicode="r" horiz-adv-x="388" 
d="M183 0h-118v505h118v-78c11 24 51 92 110 92c44 0 71 -14 90 -25l-43 -110c-14 10 -36 24 -67 24c-57 0 -90 -64 -90 -127v-281z" />
    <glyph glyph-name="s" unicode="s" horiz-adv-x="437" 
d="M20 51l44 84c30 -29 88 -61 140 -61c46 0 75 25 75 58c0 93 -223 104 -223 244c0 76 66 145 176 145c82 0 143 -38 165 -57l-44 -82c-8 9 -54 49 -107 49c-38 0 -66 -21 -66 -51c0 -84 219 -88 219 -242c0 -90 -74 -153 -189 -153c-86 0 -152 35 -190 66z" />
    <glyph glyph-name="t" unicode="t" horiz-adv-x="372" 
d="M233 0h-118v408h-95v96h95v173h118v-173h124v-96h-124v-408z" />
    <glyph glyph-name="u" unicode="u" horiz-adv-x="575" 
d="M394 110v395h118v-450c-58 -50 -131 -70 -224 -70c-133 0 -227 65 -227 196v324h118v-295c0 -100 57 -127 121 -127c48 0 79 16 94 27z" />
    <glyph glyph-name="v" unicode="v" horiz-adv-x="523" 
d="M285 -23h-43l-246 528h131l110 -258c15 -35 22 -52 26 -75h2c3 23 9 39 24 75l109 258h129z" />
    <glyph glyph-name="w" unicode="w" horiz-adv-x="769" 
d="M561 -23h-46l-130 289l-131 -289h-46l-208 528h125l107 -274s11 -30 12 -38c2 9 11 33 14 40l117 256h20l118 -258c4 -9 11 -28 13 -37c2 12 8 25 13 38c35 92 76 193 106 273h124z" />
    <glyph glyph-name="x" unicode="x" horiz-adv-x="546" 
d="M543 0h-140l-130 188l-128 -188h-141l203 270l-179 235h143l105 -158l103 158h138l-179 -235z" />
    <glyph glyph-name="y" unicode="y" horiz-adv-x="559" 
d="M166 -256h-133l178 321l-213 440h131l149 -319l149 319h136z" />
    <glyph glyph-name="z" unicode="z" horiz-adv-x="515" 
d="M481 1h-474l284 407h-231v96h427l-277 -407h271v-96z" />
    <glyph glyph-name="germandbls" unicode="&#xdf;" horiz-adv-x="623" 
d="M308 -242v97c100 10 156 98 156 176c0 64 -39 121 -118 121c-25 0 -50 -6 -75 -17l143 273h-188v-408h-117v408h-85v96h85v99c0 59 14 116 46 154c37 43 97 60 152 60c73 0 126 -30 134 -36l-46 -91c-11 8 -42 27 -82 27c-59 0 -87 -42 -87 -112v-101h358l-162 -291
c9 2 18 3 27 3c84 0 138 -84 138 -181c0 -116 -79 -251 -279 -277z" />
    <glyph glyph-name="Agrave" unicode="&#xc0;" horiz-adv-x="747" 
d="M518 825l-318 49l47 105l302 -69zM760 0h-143l-69 148h-351l-68 -148h-143l388 788zM495 264l-109 235c-5 10 -12 27 -13 36c-2 -9 -10 -25 -15 -36l-108 -235h245z" />
    <glyph glyph-name="agrave" unicode="&#xe0;" horiz-adv-x="541" 
d="M371 106v88c-22 21 -71 43 -120 43c-67 0 -102 -39 -102 -78s35 -80 113 -80c42 0 85 12 109 27zM484 318v-265c-39 -36 -127 -68 -223 -68c-165 0 -235 94 -235 179c0 88 74 165 198 165c51 0 113 -13 147 -45v59c0 48 -26 78 -111 78c-65 0 -114 -18 -141 -29l-36 86
c44 21 106 41 190 41c167 0 211 -79 211 -201zM379 633l-76 -50l-192 163l100 73z" />
    <glyph glyph-name="Aacute" unicode="&#xc1;" horiz-adv-x="747" 
d="M549 879l-318 -49l-31 84l302 69zM760 0h-143l-69 148h-351l-68 -148h-143l388 788zM495 264l-109 235c-5 10 -12 27 -13 36c-2 -9 -10 -25 -15 -36l-108 -235h245z" />
    <glyph glyph-name="aacute" unicode="&#xe1;" horiz-adv-x="541" 
d="M371 106v88c-22 21 -71 43 -120 43c-67 0 -102 -39 -102 -78s35 -80 113 -80c42 0 85 12 109 27zM484 318v-265c-39 -36 -127 -68 -223 -68c-165 0 -235 94 -235 179c0 88 74 165 198 165c51 0 113 -13 147 -45v59c0 48 -26 78 -111 78c-65 0 -114 -18 -141 -29l-36 86
c44 21 106 41 190 41c167 0 211 -79 211 -201zM447 746l-192 -163l-76 50l168 186z" />
    <glyph glyph-name="Acircumflex" unicode="&#xc2;" horiz-adv-x="747" 
d="M531 808l-160 57l-167 -65l-48 72l216 109l218 -105zM760 0h-143l-69 148h-351l-68 -148h-143l388 788zM495 264l-109 235c-5 10 -12 27 -13 36c-2 -9 -10 -25 -15 -36l-108 -235h245z" />
    <glyph glyph-name="acircumflex" unicode="&#xe2;" horiz-adv-x="541" 
d="M371 106v88c-22 21 -71 43 -120 43c-67 0 -102 -39 -102 -78s35 -80 113 -80c42 0 85 12 109 27zM484 318v-265c-39 -36 -127 -68 -223 -68c-165 0 -235 94 -235 179c0 88 74 165 198 165c51 0 113 -13 147 -45v59c0 48 -26 78 -111 78c-65 0 -114 -18 -141 -29l-36 86
c44 21 106 41 190 41c167 0 211 -79 211 -201zM405 569l-125 83l-123 -83l-64 71l188 136l186 -136z" />
    <glyph glyph-name="Atilde" unicode="&#xc3;" horiz-adv-x="747" 
d="M534 980l56 -84c-28 -25 -89 -73 -146 -73c-58 0 -90 49 -134 49c-33 0 -70 -28 -98 -50l-55 77c28 25 104 74 156 74s86 -51 127 -51c37 0 78 40 94 58zM760 0h-143l-69 148h-351l-68 -148h-143l388 788zM495 264l-109 235c-5 10 -12 27 -13 36c-2 -9 -10 -25 -15 -36
l-108 -235h245z" />
    <glyph glyph-name="atilde" unicode="&#xe3;" horiz-adv-x="541" 
d="M371 106v88c-22 21 -71 43 -120 43c-67 0 -102 -39 -102 -78s35 -80 113 -80c42 0 85 12 109 27zM484 318v-265c-39 -36 -127 -68 -223 -68c-165 0 -235 94 -235 179c0 88 74 165 198 165c51 0 113 -13 147 -45v59c0 48 -26 78 -111 78c-65 0 -114 -18 -141 -29l-36 86
c44 21 106 41 190 41c167 0 211 -79 211 -201zM431 740l49 -79c-28 -28 -82 -78 -139 -78c-58 0 -90 49 -134 49c-33 0 -60 -28 -88 -50l-58 73c28 25 97 78 149 78s86 -51 127 -51c37 0 78 40 94 58z" />
    <glyph glyph-name="Adieresis" unicode="&#xc4;" horiz-adv-x="747" 
d="M576 912c0 -37 -30 -69 -78 -69c-44 0 -75 32 -75 69c0 39 31 69 75 69c48 0 78 -30 78 -69zM312 912c0 -37 -34 -69 -78 -69c-41 0 -76 32 -76 69c0 39 35 69 76 69c44 0 78 -30 78 -69zM760 0h-143l-69 148h-351l-68 -148h-143l388 788zM495 264l-109 235
c-5 10 -12 27 -13 36c-2 -9 -10 -25 -15 -36l-108 -235h245z" />
    <glyph glyph-name="adieresis" unicode="&#xe4;" horiz-adv-x="541" 
d="M371 106v88c-22 21 -71 43 -120 43c-67 0 -102 -39 -102 -78s35 -80 113 -80c42 0 85 12 109 27zM484 318v-265c-39 -36 -127 -68 -223 -68c-165 0 -235 94 -235 179c0 88 74 165 198 165c51 0 113 -13 147 -45v59c0 48 -26 78 -111 78c-65 0 -114 -18 -141 -29l-36 86
c44 21 106 41 190 41c167 0 211 -79 211 -201zM208 653c0 -35 -31 -64 -71 -64c-37 0 -68 29 -68 64c0 37 31 65 68 65c40 0 71 -28 71 -65zM448 653c0 -35 -27 -64 -70 -64c-39 0 -68 29 -68 64c0 37 29 65 68 65c43 0 70 -28 70 -65z" />
    <glyph glyph-name="Aring" unicode="&#xc5;" horiz-adv-x="747" 
d="M498 923c0 -67 -55 -121 -124 -121c-70 0 -125 54 -125 121c0 68 56 121 125 121s124 -56 124 -121zM426 923c0 28 -24 53 -52 53s-50 -25 -50 -53s22 -52 50 -52s52 24 52 52zM760 0h-143l-69 148h-351l-68 -148h-143l388 788zM495 264l-109 235c-5 10 -12 27 -13 36
c-2 -9 -10 -25 -15 -36l-108 -235h245z" />
    <glyph glyph-name="aring" unicode="&#xe5;" horiz-adv-x="541" 
d="M371 106v88c-22 21 -71 43 -120 43c-67 0 -102 -39 -102 -78s35 -80 113 -80c42 0 85 12 109 27zM484 318v-265c-39 -36 -127 -68 -223 -68c-165 0 -235 94 -235 179c0 88 74 165 198 165c51 0 113 -13 147 -45v59c0 48 -26 78 -111 78c-65 0 -114 -18 -141 -29l-36 86
c44 21 106 41 190 41c167 0 211 -79 211 -201zM394 684c0 -67 -55 -121 -124 -121c-70 0 -125 54 -125 121c0 68 56 121 125 121s124 -56 124 -121zM322 684c0 28 -24 53 -52 53s-50 -25 -50 -53s22 -52 50 -52s52 24 52 52z" />
    <glyph glyph-name="Amacron" unicode="&#x100;" horiz-adv-x="747" 
d="M586 852h-427v99h427v-99zM760 0h-143l-69 148h-351l-68 -148h-143l388 788zM495 264l-109 235c-5 10 -12 27 -13 36c-2 -9 -10 -25 -15 -36l-108 -235h245z" />
    <glyph glyph-name="amacron" unicode="&#x101;" horiz-adv-x="541" 
d="M371 106v88c-22 21 -71 43 -120 43c-67 0 -102 -39 -102 -78s35 -80 113 -80c42 0 85 12 109 27zM484 318v-265c-39 -36 -127 -68 -223 -68c-165 0 -235 94 -235 179c0 88 74 165 198 165c51 0 113 -13 147 -45v59c0 48 -26 78 -111 78c-65 0 -114 -18 -141 -29l-36 86
c44 21 106 41 190 41c167 0 211 -79 211 -201zM482 600h-427v99h427v-99z" />
    <glyph glyph-name="Abreve" unicode="&#x102;" horiz-adv-x="747" 
d="M442 1007h108c-5 -76 -60 -172 -181 -172c-87 0 -164 59 -173 172h111c0 -14 6 -83 61 -83c69 0 74 76 74 83zM760 0h-143l-69 148h-351l-68 -148h-143l388 788zM495 264l-109 235c-5 10 -12 27 -13 36c-2 -9 -10 -25 -15 -36l-108 -235h245z" />
    <glyph glyph-name="abreve" unicode="&#x103;" horiz-adv-x="541" 
d="M371 106v88c-22 21 -71 43 -120 43c-67 0 -102 -39 -102 -78s35 -80 113 -80c42 0 85 12 109 27zM484 318v-265c-39 -36 -127 -68 -223 -68c-165 0 -235 94 -235 179c0 88 74 165 198 165c51 0 113 -13 147 -45v59c0 48 -26 78 -111 78c-65 0 -114 -18 -141 -29l-36 86
c44 21 106 41 190 41c167 0 211 -79 211 -201zM337 755h108c-5 -76 -60 -172 -181 -172c-87 0 -164 59 -173 172h111c0 -14 6 -83 61 -83c69 0 74 76 74 83z" />
    <glyph glyph-name="Aogonek" unicode="&#x104;" horiz-adv-x="746" 
d="M779 -115v-78c-40 -24 -82 -34 -119 -34c-77 0 -121 44 -121 99c0 41 25 89 78 128l-69 148h-351l-68 -148h-143l388 788l388 -793c-103 -35 -122 -78 -122 -106c0 -22 20 -29 45 -29c34 0 77 14 94 25zM495 264l-109 235c-5 9 -12 26 -13 35c-3 -9 -10 -25 -15 -35
l-108 -235h245z" />
    <glyph glyph-name="aogonek" unicode="&#x105;" horiz-adv-x="541" 
d="M473 -107v-78c-40 -24 -82 -34 -119 -34c-77 0 -121 44 -121 99c0 34 21 72 61 107c-11 -1 -22 -2 -33 -2c-165 0 -235 94 -235 179c0 88 74 165 198 165c51 0 113 -13 147 -45v59c0 48 -26 78 -111 78c-65 0 -114 -18 -141 -29l-36 86c44 21 106 41 190 41
c167 0 211 -79 211 -201v-265c-18 -17 -49 -32 -80 -44c-37 -14 -72 -64 -72 -101c0 -22 13 -40 47 -40s77 14 94 25zM371 106v88c-22 21 -71 43 -120 43c-67 0 -102 -39 -102 -78s35 -80 113 -80c42 0 85 12 109 27z" />
    <glyph glyph-name="AE" unicode="&#xc6;" horiz-adv-x="1004" 
d="M965 1h-470v147h-258l-94 -148h-165l519 756h436v-116h-310v-180h250v-116h-250v-227h342v-116zM495 264v290l-185 -290h185z" />
    <glyph glyph-name="ae" unicode="&#xe6;" horiz-adv-x="909" 
d="M818 136l37 -84c-27 -24 -106 -67 -213 -67c-71 0 -131 19 -178 52c-44 -29 -121 -52 -203 -52c-165 0 -235 94 -235 179c0 88 74 165 198 165c51 0 113 -13 147 -45v59c0 48 -26 78 -111 78c-65 0 -114 -18 -141 -29l-36 86c44 21 106 41 190 41c90 0 155 -23 176 -74
c35 50 106 74 178 74c164 0 246 -122 246 -262v-49h-388c6 -62 64 -125 176 -125c81 0 131 33 157 53zM393 119c-10 22 -18 45 -20 74c-19 20 -71 44 -122 44c-66 0 -102 -39 -102 -78s36 -80 112 -80c41 0 96 12 132 40zM486 303h264c-3 66 -47 123 -125 123
c-69 0 -130 -44 -139 -123z" />
    <glyph glyph-name="AEacute" unicode="&#x1fc;" horiz-adv-x="1004" 
d="M965 1h-470v147h-258l-94 -148h-165l519 756h436v-116h-310v-180h250v-116h-250v-227h342v-116zM495 264v290l-185 -290h185zM899 868l-318 -49l-31 84l302 69z" />
    <glyph glyph-name="aeacute" unicode="&#x1fd;" horiz-adv-x="909" 
d="M818 136l37 -84c-27 -24 -106 -67 -213 -67c-71 0 -131 19 -178 52c-44 -29 -121 -52 -203 -52c-165 0 -235 94 -235 179c0 88 74 165 198 165c51 0 113 -13 147 -45v59c0 48 -26 78 -111 78c-65 0 -114 -18 -141 -29l-36 86c44 21 106 41 190 41c90 0 155 -23 176 -74
c35 50 106 74 178 74c164 0 246 -122 246 -262v-49h-388c6 -62 64 -125 176 -125c81 0 131 33 157 53zM393 119c-10 22 -18 45 -20 74c-19 20 -71 44 -122 44c-66 0 -102 -39 -102 -78s36 -80 112 -80c41 0 96 12 132 40zM486 303h264c-3 66 -47 123 -125 123
c-69 0 -130 -44 -139 -123zM645 746l-192 -163l-76 50l168 186z" />
    <glyph glyph-name="uni1E02" unicode="&#x1e02;" horiz-adv-x="642" 
d="M302 0h-217v757h179c153 0 280 -49 280 -183c0 -97 -67 -143 -112 -163c73 -18 174 -72 174 -197c0 -124 -100 -214 -304 -214zM213 454h60c84 0 136 29 136 93s-51 94 -121 94h-75v-187zM213 116h112c99 0 145 47 145 111c0 70 -56 117 -149 117h-108v-228zM382 890
c0 -38 -31 -71 -73 -71c-38 0 -72 33 -72 71c0 41 34 74 72 74c42 0 73 -33 73 -74z" />
    <glyph glyph-name="uni1E03" unicode="&#x1e03;" horiz-adv-x="601" 
d="M63 48v772h118v-346c33 22 87 45 151 45c152 0 231 -128 231 -263c0 -177 -135 -271 -284 -271c-65 0 -150 18 -216 63zM181 371v-264c21 -14 58 -24 96 -24c102 0 161 70 161 170c0 88 -46 167 -132 167c-49 0 -102 -26 -125 -49zM435 683c0 -38 -31 -71 -73 -71
c-38 0 -72 33 -72 71c0 41 34 74 72 74c42 0 73 -33 73 -74z" />
    <glyph glyph-name="Ccedilla" unicode="&#xc7;" horiz-adv-x="762" 
d="M670 167l59 -83c-69 -66 -159 -101 -267 -101c-245 0 -420 180 -420 397c0 212 166 394 406 394c155 0 251 -77 276 -107l-68 -89c-53 52 -130 80 -208 80c-170 0 -270 -131 -270 -275c0 -158 119 -285 290 -285c95 0 172 39 202 69zM415 -267h-101l74 205h139z" />
    <glyph glyph-name="ccedilla" unicode="&#xe7;" horiz-adv-x="520" 
d="M458 140l38 -82c-23 -23 -85 -73 -199 -73c-119 0 -261 100 -261 267c0 153 126 267 273 267c86 0 155 -42 172 -59l-45 -89c-14 13 -60 49 -122 49c-81 0 -156 -60 -156 -169c0 -99 69 -169 156 -169c79 0 127 39 144 58zM273 -264h-101l74 205h139z" />
    <glyph glyph-name="Cacute" unicode="&#x106;" horiz-adv-x="762" 
d="M670 167l59 -83c-69 -66 -159 -101 -267 -101c-245 0 -420 180 -420 397c0 212 166 394 406 394c155 0 251 -77 276 -107l-68 -89c-53 52 -130 80 -208 80c-170 0 -270 -131 -270 -275c0 -158 119 -285 290 -285c95 0 172 39 202 69zM600 878l-318 -49l-31 84l302 69z
" />
    <glyph glyph-name="cacute" unicode="&#x107;" horiz-adv-x="520" 
d="M458 140l38 -82c-23 -23 -85 -73 -199 -73c-119 0 -261 100 -261 267c0 153 126 267 273 267c86 0 155 -42 172 -59l-45 -89c-14 13 -60 49 -122 49c-81 0 -156 -60 -156 -169c0 -99 69 -169 156 -169c79 0 127 39 144 58zM435 746l-192 -163l-76 50l168 186z" />
    <glyph glyph-name="Ccircumflex" unicode="&#x108;" horiz-adv-x="762" 
d="M670 167l59 -83c-69 -66 -159 -101 -267 -101c-245 0 -420 180 -420 397c0 212 166 394 406 394c155 0 251 -77 276 -107l-68 -89c-53 52 -130 80 -208 80c-170 0 -270 -131 -270 -275c0 -158 119 -285 290 -285c95 0 172 39 202 69zM594 821l-160 59l-167 -59l-48 72
l216 101l218 -105z" />
    <glyph glyph-name="ccircumflex" unicode="&#x109;" horiz-adv-x="520" 
d="M458 140l38 -82c-23 -23 -85 -73 -199 -73c-119 0 -261 100 -261 267c0 153 126 267 273 267c86 0 155 -42 172 -59l-45 -89c-14 13 -60 49 -122 49c-81 0 -156 -60 -156 -169c0 -99 69 -169 156 -169c79 0 127 39 144 58zM409 572l-125 93l-123 -93l-64 71l188 136
l186 -136z" />
    <glyph glyph-name="Cdotaccent" unicode="&#x10a;" horiz-adv-x="762" 
d="M670 167l59 -83c-69 -66 -159 -101 -267 -101c-245 0 -420 180 -420 397c0 212 166 394 406 394c155 0 251 -77 276 -107l-68 -89c-53 52 -130 80 -208 80c-170 0 -270 -131 -270 -275c0 -158 119 -285 290 -285c95 0 172 39 202 69zM501 892c0 -38 -31 -71 -73 -71
c-38 0 -72 33 -72 71c0 41 34 74 72 74c42 0 73 -33 73 -74z" />
    <glyph glyph-name="cdotaccent" unicode="&#x10b;" horiz-adv-x="520" 
d="M458 140l38 -82c-23 -23 -85 -73 -199 -73c-119 0 -261 100 -261 267c0 153 126 267 273 267c86 0 155 -42 172 -59l-45 -89c-14 13 -60 49 -122 49c-81 0 -156 -60 -156 -169c0 -99 69 -169 156 -169c79 0 127 39 144 58zM347 654c0 -38 -31 -71 -73 -71
c-38 0 -72 33 -72 71c0 41 34 74 72 74c42 0 73 -33 73 -74z" />
    <glyph glyph-name="Ccaron" unicode="&#x10c;" horiz-adv-x="762" 
d="M670 167l59 -83c-69 -66 -159 -101 -267 -101c-245 0 -420 180 -420 397c0 212 166 394 406 394c155 0 251 -77 276 -107l-68 -89c-53 52 -130 80 -208 80c-170 0 -270 -131 -270 -275c0 -158 119 -285 290 -285c95 0 172 39 202 69zM647 925l-218 -105l-216 103l48 72
l167 -62l160 60z" />
    <glyph glyph-name="ccaron" unicode="&#x10d;" horiz-adv-x="520" 
d="M458 140l38 -82c-23 -23 -85 -73 -199 -73c-119 0 -261 100 -261 267c0 153 126 267 273 267c86 0 155 -42 172 -59l-45 -89c-14 13 -60 49 -122 49c-81 0 -156 -60 -156 -169c0 -99 69 -169 156 -169c79 0 127 39 144 58zM468 714l-186 -136l-188 136l64 71l123 -93
l125 93z" />
    <glyph glyph-name="Dcaron" unicode="&#x10e;" horiz-adv-x="760" 
d="M285 0h-200v757h219c226 0 410 -131 410 -379c0 -240 -171 -378 -429 -378zM213 116h89c151 0 276 75 276 265c0 157 -109 260 -261 260h-104v-525zM561 922l-218 -105l-216 103l48 72l167 -62l160 60z" />
    <glyph glyph-name="dcaron" unicode="&#x10f;" horiz-adv-x="637" 
d="M418 109v267c-24 27 -71 45 -114 45c-87 0 -143 -71 -143 -175c0 -98 72 -163 154 -163c31 0 70 5 103 26zM418 485v335h118v-772c-69 -44 -148 -63 -221 -63c-142 0 -278 89 -278 261c0 162 109 273 264 273c40 0 84 -10 117 -34zM687 563h-82l80 232h126z" />
    <glyph glyph-name="Dcroat" unicode="&#x110;" horiz-adv-x="781" 
d="M306 0h-200v323h-93v112h93v322h219c226 0 410 -131 410 -379c0 -240 -171 -378 -429 -378zM234 116h89c151 0 276 75 276 265c0 157 -109 260 -261 260h-104v-206h174v-112h-174v-207z" />
    <glyph glyph-name="dcroat" unicode="&#x111;" horiz-adv-x="599" 
d="M607 627h-71v-579c-69 -44 -148 -63 -221 -63c-142 0 -278 89 -278 261c0 162 109 273 264 273c40 0 84 -10 117 -34v142h-180l13 88h167v105h118v-105h84zM418 109v267c-24 27 -71 45 -114 45c-87 0 -143 -71 -143 -175c0 -98 72 -163 154 -163c31 0 70 5 103 26z" />
    <glyph glyph-name="uni1E0A" unicode="&#x1e0a;" horiz-adv-x="760" 
d="M285 0h-200v757h219c226 0 410 -131 410 -379c0 -240 -171 -378 -429 -378zM213 116h89c151 0 276 75 276 265c0 157 -109 260 -261 260h-104v-525zM440 891c0 -38 -31 -71 -73 -71c-38 0 -72 33 -72 71c0 41 34 74 72 74c42 0 73 -33 73 -74z" />
    <glyph glyph-name="uni1E0B" unicode="&#x1e0b;" horiz-adv-x="599" 
d="M418 109v267c-24 27 -71 45 -114 45c-87 0 -143 -71 -143 -175c0 -98 72 -163 154 -163c31 0 70 5 103 26zM418 485v335h118v-772c-69 -44 -148 -63 -221 -63c-142 0 -278 89 -278 261c0 162 109 273 264 273c40 0 84 -10 117 -34zM300 684c0 -38 -31 -71 -73 -71
c-38 0 -72 33 -72 71c0 41 34 74 72 74c42 0 73 -33 73 -74z" />
    <glyph glyph-name="Eth" unicode="&#xd0;" horiz-adv-x="781" 
d="M306 0h-200v323h-93v112h93v322h219c226 0 410 -131 410 -379c0 -240 -171 -378 -429 -378zM234 116h89c151 0 276 75 276 265c0 157 -109 260 -261 260h-104v-206h174v-112h-174v-207z" />
    <glyph glyph-name="eth" unicode="&#xf0;" horiz-adv-x="615" 
d="M521 714l-105 -62c85 -113 156 -263 156 -392c0 -162 -111 -275 -267 -275c-163 0 -269 124 -269 255c0 145 128 258 253 258c45 0 89 -14 127 -46c-14 37 -48 89 -91 146l-82 -49l-49 68l78 46c-55 64 -116 123 -170 157h162c31 -29 65 -64 99 -103l116 68zM304 83
c83 0 146 62 146 154c0 86 -56 163 -149 163c-95 0 -143 -81 -143 -158c0 -79 51 -159 146 -159z" />
    <glyph glyph-name="Egrave" unicode="&#xc8;" horiz-adv-x="594" 
d="M555 1h-470v755h438v-116h-310v-180h250v-116h-250v-227h342v-116zM447 826l-318 49l47 105l302 -69z" />
    <glyph glyph-name="egrave" unicode="&#xe8;" horiz-adv-x="583" 
d="M492 136l37 -84c-27 -24 -106 -67 -213 -67c-167 0 -279 104 -279 264c0 156 106 270 264 270c164 0 246 -122 246 -262v-49h-388c7 -65 66 -125 177 -125c78 0 129 32 156 53zM160 303h264c-3 66 -47 123 -125 123c-69 0 -130 -44 -139 -123zM402 633l-76 -50l-192 163
l100 73z" />
    <glyph glyph-name="Eacute" unicode="&#xc9;" horiz-adv-x="594" 
d="M555 1h-470v755h438v-116h-310v-180h250v-116h-250v-227h342v-116zM487 878l-318 -49l-31 84l302 69z" />
    <glyph glyph-name="eacute" unicode="&#xe9;" horiz-adv-x="583" 
d="M492 136l37 -84c-27 -24 -106 -67 -213 -67c-167 0 -279 104 -279 264c0 156 106 270 264 270c164 0 246 -122 246 -262v-49h-388c7 -65 66 -125 177 -125c78 0 129 32 156 53zM160 303h264c-3 66 -47 123 -125 123c-69 0 -130 -44 -139 -123zM471 746l-192 -163l-76 50
l168 186z" />
    <glyph glyph-name="Ecircumflex" unicode="&#xca;" horiz-adv-x="594" 
d="M555 1h-470v755h438v-116h-310v-180h250v-116h-250v-227h342v-116zM470 820l-160 59l-167 -59l-48 72l216 101l218 -105z" />
    <glyph glyph-name="ecircumflex" unicode="&#xea;" horiz-adv-x="583" 
d="M492 136l37 -84c-27 -24 -106 -67 -213 -67c-167 0 -279 104 -279 264c0 156 106 270 264 270c164 0 246 -122 246 -262v-49h-388c7 -65 66 -125 177 -125c78 0 129 32 156 53zM160 303h264c-3 66 -47 123 -125 123c-69 0 -130 -44 -139 -123zM422 572l-125 93l-123 -93
l-64 71l188 136l186 -136z" />
    <glyph glyph-name="Edieresis" unicode="&#xcb;" horiz-adv-x="594" 
d="M555 1h-470v755h438v-116h-310v-180h250v-116h-250v-227h342v-116zM255 884c0 -35 -31 -64 -71 -64c-37 0 -68 29 -68 64c0 37 31 65 68 65c40 0 71 -28 71 -65zM495 884c0 -35 -27 -64 -70 -64c-39 0 -68 29 -68 64c0 37 29 65 68 65c43 0 70 -28 70 -65z" />
    <glyph glyph-name="edieresis" unicode="&#xeb;" horiz-adv-x="583" 
d="M492 136l37 -84c-27 -24 -106 -67 -213 -67c-167 0 -279 104 -279 264c0 156 106 270 264 270c164 0 246 -122 246 -262v-49h-388c7 -65 66 -125 177 -125c78 0 129 32 156 53zM160 303h264c-3 66 -47 123 -125 123c-69 0 -130 -44 -139 -123zM243 646
c0 -35 -31 -64 -71 -64c-37 0 -68 29 -68 64c0 37 31 65 68 65c40 0 71 -28 71 -65zM483 646c0 -35 -27 -64 -70 -64c-39 0 -68 29 -68 64c0 37 29 65 68 65c43 0 70 -28 70 -65z" />
    <glyph glyph-name="Eogonek" unicode="&#x118;" horiz-adv-x="594" 
d="M515 -115v-78c-40 -24 -82 -34 -119 -34c-77 0 -121 44 -121 99c0 42 25 90 81 129h-271v755h438v-116h-310v-180h250v-116h-250v-227h342v-116h-109c-53 -45 -70 -83 -70 -112c0 -22 20 -29 45 -29c34 0 77 14 94 25z" />
    <glyph glyph-name="eogonek" unicode="&#x119;" horiz-adv-x="583" 
d="M505 -124v-78c-40 -24 -82 -34 -119 -34c-77 0 -121 44 -121 99c0 39 22 85 72 123c-7 -1 -14 -1 -21 -1c-167 0 -279 104 -279 264c0 156 106 270 264 270c164 0 246 -122 246 -262v-49h-388c7 -65 66 -125 177 -125c78 0 129 32 156 53l37 -84c-12 -11 -35 -26 -66 -39
c-75 -55 -97 -100 -97 -133c0 -22 20 -29 45 -29c34 0 77 14 94 25zM160 303h264c-3 66 -47 123 -125 123c-69 0 -130 -44 -139 -123z" />
    <glyph glyph-name="Edotaccent" unicode="&#x116;" horiz-adv-x="594" 
d="M555 1h-470v755h438v-116h-310v-180h250v-116h-250v-227h342v-116zM387 891c0 -38 -31 -71 -73 -71c-38 0 -72 33 -72 71c0 41 34 74 72 74c42 0 73 -33 73 -74z" />
    <glyph glyph-name="edotaccent" unicode="&#x117;" horiz-adv-x="583" 
d="M492 136l37 -84c-27 -24 -106 -67 -213 -67c-167 0 -279 104 -279 264c0 156 106 270 264 270c164 0 246 -122 246 -262v-49h-388c7 -65 66 -125 177 -125c78 0 129 32 156 53zM160 303h264c-3 66 -47 123 -125 123c-69 0 -130 -44 -139 -123zM369 654
c0 -38 -31 -71 -73 -71c-38 0 -72 33 -72 71c0 41 34 74 72 74c42 0 73 -33 73 -74z" />
    <glyph glyph-name="Emacron" unicode="&#x112;" horiz-adv-x="594" 
d="M555 1h-470v755h438v-116h-310v-180h250v-116h-250v-227h342v-116zM517 852h-427v99h427v-99z" />
    <glyph glyph-name="emacron" unicode="&#x113;" horiz-adv-x="583" 
d="M492 136l37 -84c-27 -24 -106 -67 -213 -67c-167 0 -279 104 -279 264c0 156 106 270 264 270c164 0 246 -122 246 -262v-49h-388c7 -65 66 -125 177 -125c78 0 129 32 156 53zM160 303h264c-3 66 -47 123 -125 123c-69 0 -130 -44 -139 -123zM510 600h-427v99h427v-99z
" />
    <glyph glyph-name="Ebreve" unicode="&#x114;" horiz-adv-x="594" 
d="M555 1h-470v755h438v-116h-310v-180h250v-116h-250v-227h342v-116zM378 992h108c-5 -76 -60 -172 -181 -172c-87 0 -164 59 -173 172h111c0 -14 6 -83 61 -83c69 0 74 76 74 83z" />
    <glyph glyph-name="ebreve" unicode="&#x115;" horiz-adv-x="583" 
d="M492 136l37 -84c-27 -24 -106 -67 -213 -67c-167 0 -279 104 -279 264c0 156 106 270 264 270c164 0 246 -122 246 -262v-49h-388c7 -65 66 -125 177 -125c78 0 129 32 156 53zM160 303h264c-3 66 -47 123 -125 123c-69 0 -130 -44 -139 -123zM366 755h108
c-5 -76 -60 -172 -181 -172c-87 0 -164 59 -173 172h111c0 -14 6 -83 61 -83c69 0 74 76 74 83z" />
    <glyph glyph-name="Ecaron" unicode="&#x11a;" horiz-adv-x="594" 
d="M555 1h-470v755h438v-116h-310v-180h250v-116h-250v-227h342v-116zM524 923l-218 -105l-216 103l48 72l167 -62l160 60z" />
    <glyph glyph-name="ecaron" unicode="&#x11b;" horiz-adv-x="583" 
d="M492 136l37 -84c-27 -24 -106 -67 -213 -67c-167 0 -279 104 -279 264c0 156 106 270 264 270c164 0 246 -122 246 -262v-49h-388c7 -65 66 -125 177 -125c78 0 129 32 156 53zM160 303h264c-3 66 -47 123 -125 123c-69 0 -130 -44 -139 -123zM484 714l-186 -136
l-188 136l64 71l123 -93l125 93z" />
    <glyph glyph-name="uni1E1E" unicode="&#x1e1e;" horiz-adv-x="542" 
d="M213 0h-128v756h431v-116h-303v-184h245v-117h-245v-339zM385 891c0 -38 -31 -71 -73 -71c-38 0 -72 33 -72 71c0 41 34 74 72 74c42 0 73 -33 73 -74z" />
    <glyph glyph-name="uni1E1F" unicode="&#x1e1f;" horiz-adv-x="372" 
d="M226 0h-117v408h-85v96h85v99c0 59 14 116 46 154c37 43 97 60 152 60c73 0 126 -30 134 -36l-46 -91c-11 8 -42 27 -82 27c-59 0 -87 -42 -87 -112v-101h127v-96h-127v-408zM353 946c0 -38 -31 -71 -73 -71c-38 0 -72 33 -72 71c0 41 34 74 72 74c42 0 73 -33 73 -74z
" />
    <glyph glyph-name="Gcircumflex" unicode="&#x11c;" horiz-adv-x="850" 
d="M688 289h-194v109h328c-3 -295 -184 -416 -371 -416c-229 0 -409 174 -409 393c0 221 176 399 407 399c183 0 285 -95 291 -101l-65 -96c-5 7 -85 81 -224 81c-165 0 -273 -124 -273 -284c0 -134 105 -276 274 -276c129 0 227 81 236 191zM614 817l-160 59l-167 -59
l-48 72l216 101l218 -105z" />
    <glyph glyph-name="gcircumflex" unicode="&#x11d;" horiz-adv-x="593" 
d="M411 -40v85c-34 -37 -93 -60 -137 -60c-120 0 -237 101 -237 267c0 174 132 267 278 267c104 0 167 -26 214 -52v-491c0 -191 -126 -247 -243 -247c-109 0 -189 36 -228 61l49 90c26 -20 94 -53 176 -53c68 0 128 32 128 133zM411 145v256c-20 9 -53 21 -92 21
c-82 0 -158 -49 -158 -170c0 -72 41 -168 135 -168c54 0 95 28 115 61zM421 572l-125 93l-123 -93l-64 71l188 136l186 -136z" />
    <glyph glyph-name="Gbreve" unicode="&#x11e;" horiz-adv-x="850" 
d="M688 289h-194v109h328c-3 -295 -184 -416 -371 -416c-229 0 -409 174 -409 393c0 221 176 399 407 399c183 0 285 -95 291 -101l-65 -96c-5 7 -85 81 -224 81c-165 0 -273 -124 -273 -284c0 -134 105 -276 274 -276c129 0 227 81 236 191zM505 1007h108
c-5 -76 -60 -172 -181 -172c-87 0 -164 59 -173 172h111c0 -14 6 -83 61 -83c69 0 74 76 74 83z" />
    <glyph glyph-name="gbreve" unicode="&#x11f;" horiz-adv-x="593" 
d="M411 -40v85c-34 -37 -93 -60 -137 -60c-120 0 -237 101 -237 267c0 174 132 267 278 267c104 0 167 -26 214 -52v-491c0 -191 -126 -247 -243 -247c-109 0 -189 36 -228 61l49 90c26 -20 94 -53 176 -53c68 0 128 32 128 133zM411 145v256c-20 9 -53 21 -92 21
c-82 0 -158 -49 -158 -170c0 -72 41 -168 135 -168c54 0 95 28 115 61zM365 755h108c-5 -76 -60 -172 -181 -172c-87 0 -164 59 -173 172h111c0 -14 6 -83 61 -83c69 0 74 76 74 83z" />
    <glyph glyph-name="Gdotaccent" unicode="&#x120;" horiz-adv-x="850" 
d="M688 289h-194v109h328c-3 -295 -184 -416 -371 -416c-229 0 -409 174 -409 393c0 221 176 399 407 399c183 0 285 -95 291 -101l-65 -96c-5 7 -85 81 -224 81c-165 0 -273 -124 -273 -284c0 -134 105 -276 274 -276c129 0 227 81 236 191zM508 906c0 -38 -31 -71 -73 -71
c-38 0 -72 33 -72 71c0 41 34 74 72 74c42 0 73 -33 73 -74z" />
    <glyph glyph-name="gdotaccent" unicode="&#x121;" horiz-adv-x="593" 
d="M411 -40v85c-34 -37 -93 -60 -137 -60c-120 0 -237 101 -237 267c0 174 132 267 278 267c104 0 167 -26 214 -52v-491c0 -191 -126 -247 -243 -247c-109 0 -189 36 -228 61l49 90c26 -20 94 -53 176 -53c68 0 128 32 128 133zM411 145v256c-20 9 -53 21 -92 21
c-82 0 -158 -49 -158 -170c0 -72 41 -168 135 -168c54 0 95 28 115 61zM369 654c0 -38 -31 -71 -73 -71c-38 0 -72 33 -72 71c0 41 34 74 72 74c42 0 73 -33 73 -74z" />
    <glyph glyph-name="Gcommaaccent" unicode="&#x122;" horiz-adv-x="850" 
d="M688 289h-194v109h328c-3 -295 -184 -416 -371 -416c-229 0 -409 174 -409 393c0 221 176 399 407 399c183 0 285 -95 291 -101l-65 -96c-5 7 -85 81 -224 81c-165 0 -273 -124 -273 -284c0 -134 105 -276 274 -276c129 0 227 81 236 191zM430 -259h-101l74 205h139z" />
    <glyph glyph-name="gcommaaccent" unicode="&#x123;" horiz-adv-x="593" 
d="M411 -40v85c-34 -37 -93 -60 -137 -60c-120 0 -237 101 -237 267c0 174 132 267 278 267c104 0 167 -26 214 -52v-491c0 -191 -126 -247 -243 -247c-109 0 -189 36 -228 61l49 90c26 -20 94 -53 176 -53c68 0 128 32 128 133zM411 145v256c-20 9 -53 21 -92 21
c-82 0 -158 -49 -158 -170c0 -72 41 -168 135 -168c54 0 95 28 115 61zM348 583h-139l112 205h101z" />
    <glyph glyph-name="Hcircumflex" unicode="&#x124;" horiz-adv-x="784" 
d="M699 0h-128v328h-358v-328h-128v757h128v-313h358v313h128v-757zM552 821l-160 59l-167 -59l-48 72l216 101l218 -105z" />
    <glyph glyph-name="hcircumflex" unicode="&#x125;" horiz-adv-x="577" 
d="M515 0h-118v275c0 88 -16 140 -98 140c-49 0 -100 -37 -116 -58v-357h-118v820h118v-367c26 24 84 66 162 66c110 0 170 -55 170 -182v-337zM249 846l-125 93l-123 -93l-64 71l188 136l186 -136z" />
    <glyph glyph-name="Hbar" unicode="&#x126;" horiz-adv-x="786" 
d="M700 0h-128v328h-358v-328h-128v553h-57v99h57v105h128v-105h358v105h128v-105h56v-99h-56v-553zM572 444v109h-358v-109h358z" />
    <glyph glyph-name="hbar" unicode="&#x127;" horiz-adv-x="577" 
d="M515 0h-118v275c0 88 -16 140 -98 140c-49 0 -100 -37 -116 -58v-357h-118v627h-71l13 88h58v105h118v-105h193l-13 -88h-180v-174c26 24 84 66 162 66c110 0 170 -55 170 -182v-337z" />
    <glyph glyph-name="Igrave" unicode="&#xcc;" horiz-adv-x="298" 
d="M213 0h-128v757h128v-757zM288 823l-318 49l47 105l302 -69z" />
    <glyph glyph-name="igrave" unicode="&#xec;" horiz-adv-x="256" 
d="M187 0h-118v505h118v-505zM218 633l-76 -50l-192 163l100 73z" />
    <glyph glyph-name="Iacute" unicode="&#xcd;" horiz-adv-x="298" 
d="M213 0h-128v757h128v-757zM338 878l-318 -49l-31 84l302 69z" />
    <glyph glyph-name="iacute" unicode="&#xed;" horiz-adv-x="256" 
d="M187 0h-118v505h118v-505zM308 746l-192 -163l-76 50l168 186z" />
    <glyph glyph-name="Icircumflex" unicode="&#xce;" horiz-adv-x="298" 
d="M213 0h-128v757h128v-757zM308 818l-160 59l-167 -59l-48 72l216 101l218 -105z" />
    <glyph glyph-name="icircumflex" unicode="&#xee;" horiz-adv-x="256" 
d="M187 0h-118v505h118v-505zM254 572l-125 93l-123 -93l-64 71l188 136l186 -136z" />
    <glyph glyph-name="Idieresis" unicode="&#xcf;" horiz-adv-x="298" 
d="M118 884c0 -35 -31 -64 -71 -64c-37 0 -68 29 -68 64c0 37 31 65 68 65c40 0 71 -28 71 -65zM318 884c0 -35 -27 -64 -70 -64c-39 0 -68 29 -68 64c0 37 29 65 68 65c43 0 70 -28 70 -65zM213 0h-128v757h128v-757z" />
    <glyph glyph-name="idieresis" unicode="&#xef;" horiz-adv-x="256" 
d="M187 0h-118v505h118v-505zM78 646c0 -35 -31 -64 -71 -64c-37 0 -68 29 -68 64c0 37 31 65 68 65c40 0 71 -28 71 -65zM318 646c0 -35 -27 -64 -70 -64c-39 0 -68 29 -68 64c0 37 29 65 68 65c43 0 70 -28 70 -65z" />
    <glyph glyph-name="Itilde" unicode="&#x128;" horiz-adv-x="298" 
d="M213 0h-128v757h128v-757zM310 976l56 -84c-28 -25 -89 -73 -146 -73c-58 0 -90 49 -134 49c-33 0 -70 -28 -98 -50l-55 77c28 25 104 74 156 74s86 -51 127 -51c37 0 78 40 94 58z" />
    <glyph glyph-name="itilde" unicode="&#x129;" horiz-adv-x="256" 
d="M187 0h-118v505h118v-505zM290 740l49 -79c-28 -28 -82 -78 -139 -78c-58 0 -90 49 -134 49c-33 0 -60 -28 -88 -50l-58 73c28 25 97 78 149 78s86 -51 127 -51c37 0 78 40 94 58z" />
    <glyph glyph-name="Imacron" unicode="&#x12a;" horiz-adv-x="298" 
d="M213 0h-128v757h128v-757zM362 852h-427v99h427v-99z" />
    <glyph glyph-name="imacron" unicode="&#x12b;" horiz-adv-x="256" 
d="M187 0h-118v505h118v-505zM343 600h-427v99h427v-99z" />
    <glyph glyph-name="Ibreve" unicode="&#x12c;" horiz-adv-x="298" 
d="M213 0h-128v757h128v-757zM218 991h108c-5 -76 -60 -172 -181 -172c-87 0 -164 59 -173 172h111c0 -14 6 -83 61 -83c69 0 74 76 74 83z" />
    <glyph glyph-name="ibreve" unicode="&#x12d;" horiz-adv-x="256" 
d="M187 0h-118v505h118v-505zM199 746h108c-5 -76 -60 -172 -181 -172c-87 0 -164 59 -173 172h111c0 -14 6 -83 61 -83c69 0 74 76 74 83z" />
    <glyph glyph-name="Iogonek" unicode="&#x12e;" horiz-adv-x="298" 
d="M243 -115v-78c-40 -24 -82 -34 -119 -34c-77 0 -121 44 -121 99c0 42 25 90 82 129v756h128v-762c-92 -35 -109 -78 -109 -106c0 -22 20 -29 45 -29c34 0 77 14 94 25z" />
    <glyph glyph-name="iogonek" unicode="&#x12f;" horiz-adv-x="256" 
d="M229 -115v-78c-40 -24 -82 -34 -119 -34c-77 0 -121 44 -121 99c0 41 24 89 80 128v505h118v-510c-83 -40 -97 -77 -97 -106c0 -22 20 -29 45 -29c34 0 77 14 94 25zM129 592c-43 0 -75 31 -75 76s32 76 75 76c46 0 76 -32 76 -76c0 -45 -32 -76 -76 -76z" />
    <glyph glyph-name="Idotaccent" unicode="&#x130;" horiz-adv-x="298" 
d="M213 0h-128v757h128v-757zM221 891c0 -38 -31 -71 -73 -71c-38 0 -72 33 -72 71c0 41 34 74 72 74c42 0 73 -33 73 -74z" />
    <glyph glyph-name="dotlessi" unicode="&#x131;" horiz-adv-x="256" 
d="M187 0h-118v505h118v-505z" />
    <glyph glyph-name="IJ" unicode="&#x132;" horiz-adv-x="596" 
d="M213 0h-128v757h128v-757zM270 -258l-46 109c129 43 159 82 159 248v658h128v-663c0 -214 -55 -279 -241 -352z" />
    <glyph glyph-name="ij" unicode="&#x133;" horiz-adv-x="512" 
d="M187 0h-118v505h118v-505zM128 592c-43 0 -75 31 -75 76s32 76 75 76c46 0 76 -32 76 -76c0 -45 -32 -76 -76 -76zM257 -268l-45 89c111 33 113 50 113 217v467h118v-469c0 -183 -18 -254 -186 -304zM385 592c-43 0 -76 31 -76 76s33 76 76 76c46 0 76 -32 76 -76
c0 -45 -32 -76 -76 -76z" />
    <glyph glyph-name="Jcircumflex" unicode="&#x134;" horiz-adv-x="298" 
d="M-28 -258l-46 109c129 43 159 82 159 248v658h128v-663c0 -214 -55 -279 -241 -352zM272 824l-125 93l-123 -93l-64 71l188 136l186 -136z" />
    <glyph glyph-name="jcircumflex" unicode="&#x135;" horiz-adv-x="256" 
d="M1 -268l-45 89c111 33 113 50 113 217v467h118v-469c0 -183 -18 -254 -186 -304zM249 572l-125 93l-123 -93l-64 71l188 136l186 -136z" />
    <glyph glyph-name="dotlessj" unicode="&#x237;" horiz-adv-x="256" 
d="M1 -268l-45 89c111 33 113 50 113 217v467h118v-469c0 -183 -18 -254 -186 -304z" />
    <glyph glyph-name="Kcommaaccent" unicode="&#x136;" horiz-adv-x="712" 
d="M734 0h-188l-333 306v-306h-128v757h128v-309l286 309h166l-364 -370zM346 -244h-101l74 205h139z" />
    <glyph glyph-name="kcommaaccent" unicode="&#x137;" horiz-adv-x="529" 
d="M533 0h-161l-189 227v-227h-118v820h118v-515l163 200h147l-207 -232zM248 -244h-101l74 205h139z" />
    <glyph glyph-name="kgreenlandic" unicode="&#x138;" horiz-adv-x="531" 
d="M533 0h-161l-189 227v-227h-118v505h118v-200l163 200h147l-207 -232z" />
    <glyph glyph-name="Lslash" unicode="&#x141;" horiz-adv-x="556" 
d="M540 1h-445v196l-78 -46v124l78 47v435h128v-361l157 92v-124l-157 -93v-154h317v-116z" />
    <glyph glyph-name="lslash" unicode="&#x142;" horiz-adv-x="323" 
d="M215 0h-118v218l-70 -45v120l70 45v482h118v-406l79 53v-122l-79 -52v-293z" />
    <glyph glyph-name="Lacute" unicode="&#x139;" horiz-adv-x="546" 
d="M530 1h-445v756h128v-640h317v-116zM347 871l-318 -49l-31 84l302 69z" />
    <glyph glyph-name="lacute" unicode="&#x13a;" horiz-adv-x="252" 
d="M185 0h-118v820h118v-820zM306 1035l-192 -163l-76 50l168 186z" />
    <glyph glyph-name="Lcommaaccent" unicode="&#x13b;" horiz-adv-x="546" 
d="M530 1h-445v756h128v-640h317v-116zM276 -244h-101l74 205h139z" />
    <glyph glyph-name="lcommaaccent" unicode="&#x13c;" horiz-adv-x="252" 
d="M185 0h-118v820h118v-820zM121 -244h-101l74 205h139z" />
    <glyph glyph-name="Lcaron" unicode="&#x13d;" horiz-adv-x="548" 
d="M530 1h-445v756h128v-640h317v-116zM425 588h-82l80 232h126z" />
    <glyph glyph-name="lcaron" unicode="&#x13e;" horiz-adv-x="287" 
d="M336 563h-82l80 232h126zM185 0h-118v820h118v-820z" />
    <glyph glyph-name="Ldot" unicode="&#x13f;" horiz-adv-x="575" 
d="M530 1h-445v756h128v-640h317v-116zM531 404c0 -36 -34 -69 -77 -69c-41 0 -76 32 -76 69c0 41 35 71 76 71c43 0 77 -30 77 -71z" />
    <glyph glyph-name="ldot" unicode="&#x140;" horiz-adv-x="410" 
d="M185 0h-118v820h118v-820zM408 402c0 -36 -34 -69 -77 -69c-41 0 -76 32 -76 69c0 41 35 71 76 71c43 0 77 -30 77 -71z" />
    <glyph glyph-name="uni1E40" unicode="&#x1e40;" horiz-adv-x="986" 
d="M937 0h-137l-38 377c-2 16 -3 29 0 42c-5 -12 -12 -25 -22 -41l-247 -407l-247 407c-10 16 -17 29 -22 41c3 -13 2 -26 0 -42l-38 -377h-137l99 777l332 -548c7 -12 11 -20 12 -29h1c1 9 5 17 13 29l332 548zM566 756c0 -38 -31 -71 -73 -71c-38 0 -72 33 -72 71
c0 41 34 74 72 74c42 0 73 -33 73 -74z" />
    <glyph glyph-name="uni1E41" unicode="&#x1e41;" horiz-adv-x="873" 
d="M811 0h-118v320c0 65 -27 95 -79 95c-51 0 -96 -32 -117 -56v-359h-118v325c0 64 -31 90 -85 90c-46 0 -94 -36 -111 -56v-359h-118v505h118v-53c23 22 82 67 159 67c80 0 111 -46 126 -76c40 31 104 76 181 76c103 0 162 -55 162 -180v-339zM509 654
c0 -38 -31 -71 -73 -71c-38 0 -72 33 -72 71c0 41 34 74 72 74c42 0 73 -33 73 -74z" />
    <glyph glyph-name="Ntilde" unicode="&#xd1;" horiz-adv-x="857" 
d="M772 -28l-562 507l2 -479h-128l1 778l562 -518l-2 497h128zM578 977l56 -84c-28 -25 -89 -73 -146 -73c-58 0 -90 49 -134 49c-33 0 -70 -28 -98 -50l-55 77c28 25 104 74 156 74s86 -51 127 -51c37 0 78 40 94 58z" />
    <glyph glyph-name="ntilde" unicode="&#xf1;" horiz-adv-x="577" 
d="M515 0h-118v275c0 88 -16 140 -98 140c-49 0 -100 -37 -116 -58v-357h-118v505h118v-52c26 24 84 66 162 66c110 0 170 -55 170 -182v-337zM441 740l49 -79c-28 -28 -82 -78 -139 -78c-58 0 -90 49 -134 49c-33 0 -60 -28 -88 -50l-58 73c28 25 97 78 149 78
s86 -51 127 -51c37 0 78 40 94 58z" />
    <glyph glyph-name="Nacute" unicode="&#x143;" horiz-adv-x="857" 
d="M772 -28l-562 507l2 -479h-128l1 778l562 -518l-2 497h128zM612 872l-318 -49l-31 84l302 69z" />
    <glyph glyph-name="nacute" unicode="&#x144;" horiz-adv-x="577" 
d="M515 0h-118v275c0 88 -16 140 -98 140c-49 0 -100 -37 -116 -58v-357h-118v505h118v-52c26 24 84 66 162 66c110 0 170 -55 170 -182v-337zM458 746l-192 -163l-76 50l168 186z" />
    <glyph glyph-name="Ncommaaccent" unicode="&#x145;" horiz-adv-x="857" 
d="M772 -28l-562 507l2 -479h-128l1 778l562 -518l-2 497h128zM423 -244h-101l74 205h139z" />
    <glyph glyph-name="ncommaaccent" unicode="&#x146;" horiz-adv-x="577" 
d="M515 0h-118v275c0 88 -16 140 -98 140c-49 0 -100 -37 -116 -58v-357h-118v505h118v-52c26 24 84 66 162 66c110 0 170 -55 170 -182v-337zM284 -244h-101l74 205h139z" />
    <glyph glyph-name="Ncaron" unicode="&#x147;" horiz-adv-x="857" 
d="M772 -28l-562 507l2 -479h-128l1 778l562 -518l-2 497h128zM645 919l-218 -105l-216 103l48 72l167 -62l160 60z" />
    <glyph glyph-name="ncaron" unicode="&#x148;" horiz-adv-x="577" 
d="M515 0h-118v275c0 88 -16 140 -98 140c-49 0 -100 -37 -116 -58v-357h-118v505h118v-52c26 24 84 66 162 66c110 0 170 -55 170 -182v-337zM479 714l-186 -136l-188 136l64 71l123 -93l125 93z" />
    <glyph glyph-name="napostrophe" unicode="&#x149;" horiz-adv-x="613" 
d="M551 0h-118v275c0 88 -16 140 -98 140c-49 0 -100 -37 -116 -58v-357h-118v505h118v-52c26 24 84 66 162 66c110 0 170 -55 170 -182v-337zM-1 467h-101l74 205h139z" />
    <glyph glyph-name="Eng" unicode="&#x14a;" horiz-adv-x="858" 
d="M532 -258l-46 109c125 42 157 80 159 235l-435 393l2 -479h-128l1 778l560 -515v494h128v-663c0 -214 -55 -279 -241 -352z" />
    <glyph glyph-name="eng" unicode="&#x14b;" horiz-adv-x="577" 
d="M329 -268l-45 89c111 33 113 50 113 217v237c0 88 -16 140 -98 140c-49 0 -100 -37 -116 -58v-357h-118v505h118v-52c26 24 84 66 162 66c110 0 170 -55 170 -182v-301c0 -183 -18 -254 -186 -304z" />
    <glyph glyph-name="Ograve" unicode="&#xd2;" horiz-adv-x="907" 
d="M865 375c0 -215 -188 -392 -410 -392c-230 0 -413 179 -413 395c0 217 183 396 413 396c228 0 410 -171 410 -399zM729 376c0 162 -125 282 -274 282c-152 0 -277 -120 -277 -276c0 -148 122 -284 270 -284c158 0 281 123 281 278zM597 829l-318 49l47 105l302 -69z" />
    <glyph glyph-name="ograve" unicode="&#xf2;" horiz-adv-x="617" 
d="M581 251c0 -146 -120 -266 -273 -266s-272 118 -272 266c0 149 119 268 275 268c153 0 270 -121 270 -268zM307 83c90 0 149 65 149 168c0 101 -66 169 -146 169c-87 0 -152 -68 -152 -172c0 -98 72 -165 149 -165zM401 633l-76 -50l-192 163l100 73z" />
    <glyph glyph-name="Oacute" unicode="&#xd3;" horiz-adv-x="907" 
d="M865 375c0 -215 -188 -392 -410 -392c-230 0 -413 179 -413 395c0 217 183 396 413 396c228 0 410 -171 410 -399zM729 376c0 162 -125 282 -274 282c-152 0 -277 -120 -277 -276c0 -148 122 -284 270 -284c158 0 281 123 281 278zM628 879l-318 -49l-31 84l302 69z" />
    <glyph glyph-name="oacute" unicode="&#xf3;" horiz-adv-x="617" 
d="M581 251c0 -146 -120 -266 -273 -266s-272 118 -272 266c0 149 119 268 275 268c153 0 270 -121 270 -268zM307 83c90 0 149 65 149 168c0 101 -66 169 -146 169c-87 0 -152 -68 -152 -172c0 -98 72 -165 149 -165zM469 746l-192 -163l-76 50l168 186z" />
    <glyph glyph-name="Ocircumflex" unicode="&#xd4;" horiz-adv-x="907" 
d="M865 375c0 -215 -188 -392 -410 -392c-230 0 -413 179 -413 395c0 217 183 396 413 396c228 0 410 -171 410 -399zM729 376c0 162 -125 282 -274 282c-152 0 -277 -120 -277 -276c0 -148 122 -284 270 -284c158 0 281 123 281 278zM611 808l-160 59l-167 -59l-48 72
l216 101l218 -105z" />
    <glyph glyph-name="ocircumflex" unicode="&#xf4;" horiz-adv-x="617" 
d="M581 251c0 -146 -120 -266 -273 -266s-272 118 -272 266c0 149 119 268 275 268c153 0 270 -121 270 -268zM307 83c90 0 149 65 149 168c0 101 -66 169 -146 169c-87 0 -152 -68 -152 -172c0 -98 72 -165 149 -165zM434 562l-125 93l-123 -93l-64 71l188 136l186 -136z
" />
    <glyph glyph-name="Otilde" unicode="&#xd5;" horiz-adv-x="907" 
d="M865 375c0 -215 -188 -392 -410 -392c-230 0 -413 179 -413 395c0 217 183 396 413 396c228 0 410 -171 410 -399zM729 376c0 162 -125 282 -274 282c-152 0 -277 -120 -277 -276c0 -148 122 -284 270 -284c158 0 281 123 281 278zM614 980l56 -84
c-28 -25 -89 -73 -146 -73c-58 0 -90 49 -134 49c-33 0 -70 -28 -98 -50l-55 77c28 25 104 74 156 74s86 -51 127 -51c37 0 78 40 94 58z" />
    <glyph glyph-name="otilde" unicode="&#xf5;" horiz-adv-x="617" 
d="M581 251c0 -146 -120 -266 -273 -266s-272 118 -272 266c0 149 119 268 275 268c153 0 270 -121 270 -268zM307 83c90 0 149 65 149 168c0 101 -66 169 -146 169c-87 0 -152 -68 -152 -172c0 -98 72 -165 149 -165zM469 740l49 -79c-28 -28 -82 -78 -139 -78
c-58 0 -90 49 -134 49c-33 0 -60 -28 -88 -50l-58 73c28 25 97 78 149 78s86 -51 127 -51c37 0 78 40 94 58z" />
    <glyph glyph-name="Odieresis" unicode="&#xd6;" horiz-adv-x="907" 
d="M308 882c0 -37 -31 -67 -72 -67c-38 0 -70 30 -70 67c0 40 32 70 70 70c41 0 72 -30 72 -70zM865 375c0 -215 -188 -392 -410 -392c-230 0 -413 179 -413 395c0 217 183 386 413 386c228 0 410 -161 410 -389zM729 376c0 162 -125 282 -274 282
c-152 0 -277 -120 -277 -276c0 -148 122 -284 270 -284c158 0 281 123 281 278zM741 882c0 -37 -31 -67 -72 -67c-38 0 -70 30 -70 67c0 40 32 70 70 70c41 0 72 -30 72 -70z" />
    <glyph glyph-name="odieresis" unicode="&#xf6;" horiz-adv-x="617" 
d="M581 251c0 -146 -120 -266 -273 -266s-272 118 -272 266c0 149 119 268 275 268c153 0 270 -121 270 -268zM307 83c90 0 149 65 149 168c0 101 -66 169 -146 169c-87 0 -152 -68 -152 -172c0 -98 72 -165 149 -165zM258 653c0 -35 -31 -64 -71 -64c-37 0 -68 29 -68 64
c0 37 31 65 68 65c40 0 71 -28 71 -65zM498 653c0 -35 -27 -64 -70 -64c-39 0 -68 29 -68 64c0 37 29 65 68 65c43 0 70 -28 70 -65z" />
    <glyph glyph-name="Omacron" unicode="&#x14c;" horiz-adv-x="907" 
d="M865 375c0 -215 -188 -392 -410 -392c-230 0 -413 179 -413 395c0 217 183 396 413 396c228 0 410 -171 410 -399zM729 376c0 162 -125 282 -274 282c-152 0 -277 -120 -277 -276c0 -148 122 -284 270 -284c158 0 281 123 281 278zM667 852h-427v99h427v-99z" />
    <glyph glyph-name="omacron" unicode="&#x14d;" horiz-adv-x="617" 
d="M581 251c0 -146 -120 -266 -273 -266s-272 118 -272 266c0 149 119 268 275 268c153 0 270 -121 270 -268zM307 83c90 0 149 65 149 168c0 101 -66 169 -146 169c-87 0 -152 -68 -152 -172c0 -98 72 -165 149 -165zM522 600h-427v99h427v-99z" />
    <glyph glyph-name="Obreve" unicode="&#x14e;" horiz-adv-x="907" 
d="M865 375c0 -215 -188 -392 -410 -392c-230 0 -413 179 -413 395c0 217 183 396 413 396c228 0 410 -171 410 -399zM729 376c0 162 -125 282 -274 282c-152 0 -277 -120 -277 -276c0 -148 122 -284 270 -284c158 0 281 123 281 278zM523 1007h108
c-5 -76 -60 -172 -181 -172c-87 0 -164 59 -173 172h111c0 -14 6 -83 61 -83c69 0 74 76 74 83z" />
    <glyph glyph-name="obreve" unicode="&#x14f;" horiz-adv-x="617" 
d="M581 251c0 -146 -120 -266 -273 -266s-272 118 -272 266c0 149 119 268 275 268c153 0 270 -121 270 -268zM307 83c90 0 149 65 149 168c0 101 -66 169 -146 169c-87 0 -152 -68 -152 -172c0 -98 72 -165 149 -165zM377 755h108c-5 -76 -60 -172 -181 -172
c-87 0 -164 59 -173 172h111c0 -14 6 -83 61 -83c69 0 74 76 74 83z" />
    <glyph glyph-name="Ohungarumlaut" unicode="&#x150;" horiz-adv-x="907" 
d="M865 375c0 -215 -188 -392 -410 -392c-230 0 -413 179 -413 395c0 217 183 396 413 396c228 0 410 -171 410 -399zM729 376c0 162 -125 282 -274 282c-152 0 -277 -120 -277 -276c0 -148 122 -284 270 -284c158 0 281 123 281 278zM499 949l-216 -131l-46 57l191 164z
M731 949l-216 -131l-46 57l191 164z" />
    <glyph glyph-name="ohungarumlaut" unicode="&#x151;" horiz-adv-x="617" 
d="M581 251c0 -146 -120 -266 -273 -266s-272 118 -272 266c0 149 119 268 275 268c153 0 270 -121 270 -268zM307 83c90 0 149 65 149 168c0 101 -66 169 -146 169c-87 0 -152 -68 -152 -172c0 -98 72 -165 149 -165zM353 713l-216 -131l-46 57l191 164zM585 713l-216 -131
l-46 57l191 164z" />
    <glyph glyph-name="Oslash" unicode="&#xd8;" horiz-adv-x="907" 
d="M304 -143l-112 33l60 144c-126 68 -210 197 -210 344c0 217 183 396 413 396c35 0 69 -4 102 -12l51 122l110 -41l-52 -124c119 -68 199 -194 199 -344c0 -215 -188 -392 -410 -392c-33 0 -64 4 -94 10zM300 147l211 505c-18 4 -37 6 -56 6c-152 0 -277 -120 -277 -276
c0 -94 49 -182 122 -235zM617 604l-211 -503c14 -2 28 -3 42 -3c158 0 281 123 281 278c0 96 -45 178 -112 228z" />
    <glyph glyph-name="oslash" unicode="&#xf8;" horiz-adv-x="617" 
d="M168 -147l-90 34l69 144c-68 48 -111 126 -111 216c0 149 119 268 275 268c22 0 44 -3 64 -8l64 132l93 -38l-66 -134c70 -49 115 -130 115 -220c0 -146 -120 -266 -273 -266c-26 0 -50 4 -73 10zM417 365l-138 -283c9 -2 18 -3 28 -3c90 0 149 65 149 168
c0 48 -15 88 -39 118zM196 133l135 281c-7 1 -14 2 -21 2c-87 0 -152 -68 -152 -172c0 -45 14 -83 38 -111z" />
    <glyph glyph-name="Oslashacute" unicode="&#x1fe;" horiz-adv-x="907" 
d="M304 -143l-112 33l60 144c-126 68 -210 197 -210 344c0 217 183 396 413 396c35 0 69 -4 102 -12l51 122l110 -41l-52 -124c119 -68 199 -194 199 -344c0 -215 -188 -392 -410 -392c-33 0 -64 4 -94 10zM300 147l211 505c-18 4 -37 6 -56 6c-152 0 -277 -120 -277 -276
c0 -94 49 -182 122 -235zM617 604l-211 -503c14 -2 28 -3 42 -3c158 0 281 123 281 278c0 96 -45 178 -112 228zM548 867l-238 -37l-31 84l238 54z" />
    <glyph glyph-name="oslashacute" unicode="&#x1ff;" horiz-adv-x="617" 
d="M168 -147l-90 34l69 144c-68 48 -111 126 -111 216c0 149 119 268 275 268c22 0 44 -3 64 -8l64 132l93 -38l-66 -134c70 -49 115 -130 115 -220c0 -146 -120 -266 -273 -266c-26 0 -50 4 -73 10zM449 746l-192 -163l-76 50l168 186zM417 365l-138 -283c9 -2 18 -3 28 -3
c90 0 149 65 149 168c0 48 -15 88 -39 118zM196 133l135 281c-7 1 -14 2 -21 2c-87 0 -152 -68 -152 -172c0 -45 14 -83 38 -111z" />
    <glyph glyph-name="OE" unicode="&#x152;" horiz-adv-x="1239" 
d="M1200 1h-470v110c-77 -95 -179 -128 -275 -128c-230 0 -413 179 -413 395c0 217 183 396 413 396c99 0 203 -38 275 -125v107h438v-116h-310v-180h250v-116h-250v-227h342v-116zM729 376c0 162 -125 282 -274 282c-152 0 -277 -120 -277 -276c0 -148 122 -284 270 -284
c158 0 281 123 281 278z" />
    <glyph glyph-name="oe" unicode="&#x153;" horiz-adv-x="1003" 
d="M912 136l37 -84c-27 -24 -106 -67 -213 -67c-95 0 -172 34 -221 92c-50 -56 -124 -92 -207 -92c-153 0 -272 118 -272 266c0 149 119 268 275 268c83 0 156 -36 205 -93c46 58 117 93 205 93c164 0 246 -122 246 -262v-49h-388c7 -65 66 -125 177 -125
c78 0 129 32 156 53zM307 83c90 0 149 65 149 168c0 101 -66 169 -146 169c-87 0 -152 -68 -152 -172c0 -98 72 -165 149 -165zM580 303h264c-3 66 -47 123 -125 123c-69 0 -130 -44 -139 -123z" />
    <glyph glyph-name="uni1E56" unicode="&#x1e56;" 
d="M213 0h-128v757h165c179 0 317 -59 317 -242c0 -152 -95 -255 -299 -255h-55v-260zM213 376h52c111 0 167 59 167 140c0 77 -51 124 -147 124h-72v-264zM380 901c0 -38 -31 -71 -73 -71c-38 0 -72 33 -72 71c0 41 34 74 72 74c42 0 73 -33 73 -74z" />
    <glyph glyph-name="uni1E57" unicode="&#x1e57;" horiz-adv-x="599" 
d="M182 -255h-118v717c70 39 153 57 224 57c142 0 274 -88 274 -266c0 -139 -89 -268 -247 -268c-44 0 -100 22 -133 49v-289zM182 396v-256c26 -34 78 -56 126 -56c70 0 130 66 130 168c0 96 -60 168 -160 168c-34 0 -75 -9 -96 -24zM369 654c0 -38 -31 -71 -73 -71
c-38 0 -72 33 -72 71c0 41 34 74 72 74c42 0 73 -33 73 -74z" />
    <glyph glyph-name="Thorn" unicode="&#xde;" horiz-adv-x="599" 
d="M213 0h-128v757h128v-129h37c179 0 317 -59 317 -242c0 -152 -95 -255 -299 -255h-55v-131zM213 247h52c111 0 167 59 167 140c0 77 -51 124 -147 124h-72v-264z" />
    <glyph glyph-name="thorn" unicode="&#xfe;" 
d="M183 -255h-118v1075h118v-314c29 9 75 13 106 13c142 0 274 -88 274 -266c0 -139 -89 -268 -247 -268c-44 0 -100 22 -133 49v-289zM183 396v-256c26 -34 78 -56 126 -56c70 0 130 66 130 168c0 96 -60 168 -160 168c-34 0 -75 -9 -96 -24z" />
    <glyph glyph-name="Racute" unicode="&#x154;" horiz-adv-x="629" 
d="M667 0h-177l-257 280h-20v-280h-128v757h160c140 0 321 -36 321 -234c0 -104 -81 -203 -198 -224zM213 391h50c113 0 169 58 169 125c0 81 -51 124 -160 124h-59v-249zM474 879l-318 -49l-31 84l302 69z" />
    <glyph glyph-name="racute" unicode="&#x155;" horiz-adv-x="388" 
d="M183 0h-118v505h118v-78c11 24 51 92 110 92c44 0 71 -14 90 -25l-43 -110c-14 10 -36 24 -67 24c-57 0 -90 -64 -90 -127v-281zM366 746l-192 -163l-76 50l168 186z" />
    <glyph glyph-name="Rcommaaccent" unicode="&#x156;" horiz-adv-x="627" 
d="M667 0h-177l-257 280h-20v-280h-128v757h160c140 0 321 -36 321 -234c0 -104 -81 -203 -198 -224zM213 391h50c113 0 169 58 169 125c0 81 -51 124 -160 124h-59v-249zM319 -244h-101l74 205h139z" />
    <glyph glyph-name="rcommaaccent" unicode="&#x157;" horiz-adv-x="388" 
d="M183 0h-118v505h118v-78c11 24 51 92 110 92c44 0 71 -14 90 -25l-43 -110c-14 10 -36 24 -67 24c-57 0 -90 -64 -90 -127v-281zM147 -244h-101l74 205h139z" />
    <glyph glyph-name="Rcaron" unicode="&#x158;" horiz-adv-x="629" 
d="M667 0h-177l-257 280h-20v-280h-128v757h160c140 0 321 -36 321 -234c0 -104 -81 -203 -198 -224zM213 391h50c113 0 169 58 169 125c0 81 -51 124 -160 124h-59v-249zM519 922l-218 -105l-216 103l48 72l167 -62l160 60z" />
    <glyph glyph-name="rcaron" unicode="&#x159;" horiz-adv-x="388" 
d="M183 0h-118v505h118v-78c11 24 51 92 110 92c44 0 71 -14 90 -25l-43 -110c-14 10 -36 24 -67 24c-57 0 -90 -64 -90 -127v-281zM390 714l-186 -136l-188 136l64 71l123 -93l125 93z" />
    <glyph glyph-name="Scaron" unicode="&#x160;" horiz-adv-x="591" 
d="M25 90l68 92c37 -36 106 -83 194 -83c80 0 126 39 126 101c0 87 -70 112 -146 151c-97 50 -193 102 -193 220c0 132 122 203 245 203c113 0 189 -67 205 -85l-62 -95c-38 38 -87 66 -142 66s-112 -25 -112 -83c0 -143 341 -108 341 -375c0 -114 -99 -219 -271 -219
c-109 0 -214 64 -253 107zM525 912l-218 -105l-216 109l48 72l167 -68l160 60z" />
    <glyph glyph-name="scaron" unicode="&#x161;" horiz-adv-x="437" 
d="M20 51l44 84c30 -29 88 -61 140 -61c46 0 75 25 75 58c0 93 -223 104 -223 244c0 76 66 145 176 145c82 0 143 -38 165 -57l-44 -82c-8 9 -54 49 -107 49c-38 0 -66 -21 -66 -51c0 -84 219 -88 219 -242c0 -90 -74 -153 -189 -153c-86 0 -152 35 -190 66zM412 708
l-186 -136l-188 136l64 71l123 -93l125 93z" />
    <glyph glyph-name="Scedilla" unicode="&#x15e;" horiz-adv-x="591" 
d="M25 90l68 92c37 -36 106 -83 194 -83c80 0 126 39 126 101c0 87 -70 112 -146 151c-97 50 -193 102 -193 220c0 132 122 203 245 203c113 0 189 -67 205 -85l-62 -95c-38 38 -87 66 -142 66s-112 -25 -112 -83c0 -143 341 -108 341 -375c0 -114 -99 -219 -271 -219
c-109 0 -214 64 -253 107zM291 -254h-101l74 205h139z" />
    <glyph glyph-name="scedilla" unicode="&#x15f;" horiz-adv-x="437" 
d="M20 51l44 84c30 -29 88 -61 140 -61c46 0 75 25 75 58c0 93 -223 104 -223 244c0 76 66 145 176 145c82 0 143 -38 165 -57l-44 -82c-8 9 -54 49 -107 49c-38 0 -66 -21 -66 -51c0 -84 219 -88 219 -242c0 -90 -74 -153 -189 -153c-86 0 -152 35 -190 66zM210 -255h-101
l74 205h139z" />
    <glyph glyph-name="uni1E60" unicode="&#x1e60;" horiz-adv-x="591" 
d="M25 90l68 92c37 -36 106 -83 194 -83c80 0 126 39 126 101c0 87 -70 112 -146 151c-97 50 -193 102 -193 220c0 132 122 203 245 203c113 0 189 -67 205 -85l-62 -95c-38 38 -87 66 -142 66s-112 -25 -112 -83c0 -143 341 -108 341 -375c0 -114 -99 -219 -271 -219
c-109 0 -214 64 -253 107zM379 892c0 -38 -31 -71 -73 -71c-38 0 -72 33 -72 71c0 41 34 74 72 74c42 0 73 -33 73 -74z" />
    <glyph glyph-name="uni1E61" unicode="&#x1e61;" horiz-adv-x="437" 
d="M20 51l44 84c30 -29 88 -61 140 -61c46 0 75 25 75 58c0 93 -223 104 -223 244c0 76 66 145 176 145c82 0 143 -38 165 -57l-44 -82c-8 9 -54 49 -107 49c-38 0 -66 -21 -66 -51c0 -84 219 -88 219 -242c0 -90 -74 -153 -189 -153c-86 0 -152 35 -190 66zM293 654
c0 -38 -31 -71 -73 -71c-38 0 -72 33 -72 71c0 41 34 74 72 74c42 0 73 -33 73 -74z" />
    <glyph glyph-name="Sacute" unicode="&#x15a;" horiz-adv-x="591" 
d="M25 90l68 92c37 -36 106 -83 194 -83c80 0 126 39 126 101c0 87 -70 112 -146 151c-97 50 -193 102 -193 220c0 132 122 203 245 203c113 0 189 -67 205 -85l-62 -95c-38 38 -87 66 -142 66s-112 -25 -112 -83c0 -143 341 -108 341 -375c0 -114 -99 -219 -271 -219
c-109 0 -214 64 -253 107zM486 877l-318 -49l-31 84l302 69z" />
    <glyph glyph-name="sacute" unicode="&#x15b;" horiz-adv-x="437" 
d="M20 51l44 84c30 -29 88 -61 140 -61c46 0 75 25 75 58c0 93 -223 104 -223 244c0 76 66 145 176 145c82 0 143 -38 165 -57l-44 -82c-8 9 -54 49 -107 49c-38 0 -66 -21 -66 -51c0 -84 219 -88 219 -242c0 -90 -74 -153 -189 -153c-86 0 -152 35 -190 66zM397 746
l-192 -163l-76 50l168 186z" />
    <glyph glyph-name="Scircumflex" unicode="&#x15c;" horiz-adv-x="591" 
d="M25 90l68 92c37 -36 106 -83 194 -83c80 0 126 39 126 101c0 87 -70 112 -146 151c-97 50 -193 102 -193 220c0 132 122 203 245 203c113 0 189 -67 205 -85l-62 -95c-38 38 -87 66 -142 66s-112 -25 -112 -83c0 -143 341 -108 341 -375c0 -114 -99 -219 -271 -219
c-109 0 -214 64 -253 107zM469 821l-160 59l-167 -59l-48 72l216 101l218 -105z" />
    <glyph glyph-name="scircumflex" unicode="&#x15d;" horiz-adv-x="437" 
d="M20 51l44 84c30 -29 88 -61 140 -61c46 0 75 25 75 58c0 93 -223 104 -223 244c0 76 66 145 176 145c82 0 143 -38 165 -57l-44 -82c-8 9 -54 49 -107 49c-38 0 -66 -21 -66 -51c0 -84 219 -88 219 -242c0 -90 -74 -153 -189 -153c-86 0 -152 35 -190 66zM357 572
l-125 93l-123 -93l-64 71l188 136l186 -136z" />
    <glyph glyph-name="longs" unicode="&#x17f;" horiz-adv-x="291" 
d="M226 0h-117v408h-85v96h85v99c0 59 14 116 46 154c37 43 97 60 152 60c73 0 126 -30 134 -36l-46 -91c-11 8 -42 27 -82 27c-59 0 -87 -42 -87 -112v-605z" />
    <glyph glyph-name="uni1E6A" unicode="&#x1e6a;" horiz-adv-x="607" 
d="M368 0h-128v640h-223v116h573v-116h-222v-640zM376 906c0 -38 -31 -71 -73 -71c-38 0 -72 33 -72 71c0 41 34 74 72 74c42 0 73 -33 73 -74z" />
    <glyph glyph-name="uni1E6B" unicode="&#x1e6b;" horiz-adv-x="372" 
d="M246 804c0 -38 -31 -71 -73 -71c-38 0 -72 33 -72 71c0 41 34 74 72 74c42 0 73 -33 73 -74zM233 0h-118v408h-95v96h95v173h118v-173h124v-96h-124v-408z" />
    <glyph glyph-name="Tcommaaccent" unicode="&#x162;" horiz-adv-x="605" 
d="M367 0h-128v640h-223v116h573v-116h-222v-640zM297 -244h-101l74 205h139z" />
    <glyph glyph-name="tcommaaccent" unicode="&#x163;" horiz-adv-x="370" 
d="M167 -244h-101l74 205h139zM232 0h-118v408h-95v96h95v173h118v-173h124v-96h-124v-408z" />
    <glyph glyph-name="Tcaron" unicode="&#x164;" horiz-adv-x="607" 
d="M368 0h-128v640h-223v116h573v-116h-222v-640zM520 920l-218 -105l-216 103l48 72l167 -62l160 60z" />
    <glyph glyph-name="tcaron" unicode="&#x165;" horiz-adv-x="372" 
d="M390 575h-82l80 232h126zM233 0h-118v408h-95v96h95v173h118v-173h124v-96h-124v-408z" />
    <glyph glyph-name="Tbar" unicode="&#x166;" horiz-adv-x="607" 
d="M368 0h-128v393h-150v99h150v148h-223v116h573v-116h-222v-148h149v-99h-149v-393z" />
    <glyph glyph-name="tbar" unicode="&#x167;" horiz-adv-x="372" 
d="M233 0h-118v232h-65v84h65v92h-95v96h95v173h118v-173h124v-96h-124v-92h95v-84h-95v-232z" />
    <glyph glyph-name="Ugrave" unicode="&#xd9;" horiz-adv-x="774" 
d="M564 140v617h128v-666c-57 -60 -155 -108 -307 -108c-194 0 -305 98 -305 295v479h128v-409c0 -188 45 -252 200 -252c62 0 118 16 156 44zM531 824l-318 49l47 105l302 -69z" />
    <glyph glyph-name="ugrave" unicode="&#xf9;" horiz-adv-x="576" 
d="M394 110v395h118v-450c-58 -50 -131 -70 -224 -70c-133 0 -227 65 -227 196v324h118v-295c0 -100 57 -127 121 -127c48 0 79 16 94 27zM386 633l-76 -50l-192 163l100 73z" />
    <glyph glyph-name="Uacute" unicode="&#xda;" horiz-adv-x="774" 
d="M564 140v617h128v-666c-57 -60 -155 -108 -307 -108c-194 0 -305 98 -305 295v479h128v-409c0 -188 45 -252 200 -252c62 0 118 16 156 44zM569 872l-318 -49l-31 84l302 69z" />
    <glyph glyph-name="uacute" unicode="&#xfa;" horiz-adv-x="576" 
d="M394 110v395h118v-450c-58 -50 -131 -70 -224 -70c-133 0 -227 65 -227 196v324h118v-295c0 -100 57 -127 121 -127c48 0 79 16 94 27zM491 746l-192 -163l-76 50l168 186z" />
    <glyph glyph-name="Ucircumflex" unicode="&#xdb;" horiz-adv-x="774" 
d="M564 140v617h128v-666c-57 -60 -155 -108 -307 -108c-194 0 -305 98 -305 295v479h128v-409c0 -188 45 -252 200 -252c62 0 118 16 156 44zM551 819l-160 59l-167 -59l-48 72l216 101l218 -105z" />
    <glyph glyph-name="ucircumflex" unicode="&#xfb;" horiz-adv-x="576" 
d="M394 110v395h118v-450c-58 -50 -131 -70 -224 -70c-133 0 -227 65 -227 196v324h118v-295c0 -100 57 -127 121 -127c48 0 79 16 94 27zM414 572l-125 93l-123 -93l-64 71l188 136l186 -136z" />
    <glyph glyph-name="Udieresis" unicode="&#xdc;" horiz-adv-x="774" 
d="M564 140v617h128v-666c-57 -60 -155 -108 -307 -108c-194 0 -305 98 -305 295v479h128v-409c0 -188 45 -252 200 -252c62 0 118 16 156 44zM217 884c0 -35 -31 -64 -71 -64c-37 0 -68 29 -68 64c0 37 31 65 68 65c40 0 71 -28 71 -65zM696 884c0 -35 -27 -64 -70 -64
c-39 0 -68 29 -68 64c0 37 29 65 68 65c43 0 70 -28 70 -65z" />
    <glyph glyph-name="udieresis" unicode="&#xfc;" horiz-adv-x="576" 
d="M394 110v395h118v-450c-58 -50 -131 -70 -224 -70c-133 0 -227 65 -227 196v324h118v-295c0 -100 57 -127 121 -127c48 0 79 16 94 27zM238 646c0 -35 -31 -64 -71 -64c-37 0 -68 29 -68 64c0 37 31 65 68 65c40 0 71 -28 71 -65zM478 646c0 -35 -27 -64 -70 -64
c-39 0 -68 29 -68 64c0 37 29 65 68 65c43 0 70 -28 70 -65z" />
    <glyph glyph-name="Utilde" unicode="&#x168;" horiz-adv-x="774" 
d="M564 140v617h128v-666c-57 -60 -155 -108 -307 -108c-194 0 -305 98 -305 295v479h128v-409c0 -188 45 -252 200 -252c62 0 118 16 156 44zM548 978l49 -79c-28 -28 -82 -78 -139 -78c-58 0 -90 49 -134 49c-33 0 -60 -28 -88 -50l-58 73c28 25 97 78 149 78
s86 -51 127 -51c37 0 78 40 94 58z" />
    <glyph glyph-name="utilde" unicode="&#x169;" horiz-adv-x="576" 
d="M394 110v395h118v-450c-58 -50 -131 -70 -224 -70c-133 0 -227 65 -227 196v324h118v-295c0 -100 57 -127 121 -127c48 0 79 16 94 27zM444 740l49 -79c-28 -28 -82 -78 -139 -78c-58 0 -90 49 -134 49c-33 0 -60 -28 -88 -50l-58 73c28 25 97 78 149 78s86 -51 127 -51
c37 0 78 40 94 58z" />
    <glyph glyph-name="Umacron" unicode="&#x16a;" horiz-adv-x="774" 
d="M564 140v617h128v-666c-57 -60 -155 -108 -307 -108c-194 0 -305 98 -305 295v479h128v-409c0 -188 45 -252 200 -252c62 0 118 16 156 44zM601 852h-427v99h427v-99z" />
    <glyph glyph-name="umacron" unicode="&#x16b;" horiz-adv-x="576" 
d="M394 110v395h118v-450c-58 -50 -131 -70 -224 -70c-133 0 -227 65 -227 196v324h118v-295c0 -100 57 -127 121 -127c48 0 79 16 94 27zM497 600h-427v99h427v-99z" />
    <glyph glyph-name="Ubreve" unicode="&#x16c;" horiz-adv-x="774" 
d="M564 140v617h128v-666c-57 -60 -155 -108 -307 -108c-194 0 -305 98 -305 295v479h128v-409c0 -188 45 -252 200 -252c62 0 118 16 156 44zM460 973h108c-5 -76 -60 -172 -181 -172c-87 0 -164 59 -173 172h111c0 -14 6 -83 61 -83c69 0 74 76 74 83z" />
    <glyph glyph-name="ubreve" unicode="&#x16d;" horiz-adv-x="576" 
d="M394 110v395h118v-450c-58 -50 -131 -70 -224 -70c-133 0 -227 65 -227 196v324h118v-295c0 -100 57 -127 121 -127c48 0 79 16 94 27zM353 755h108c-5 -76 -60 -172 -181 -172c-87 0 -164 59 -173 172h111c0 -14 6 -83 61 -83c69 0 74 76 74 83z" />
    <glyph glyph-name="Uring" unicode="&#x16e;" horiz-adv-x="774" 
d="M564 140v617h128v-666c-57 -60 -155 -108 -307 -108c-194 0 -305 98 -305 295v479h128v-409c0 -188 45 -252 200 -252c62 0 118 16 156 44zM512 890c0 -67 -55 -121 -124 -121c-70 0 -125 54 -125 121c0 68 56 121 125 121s124 -56 124 -121zM440 890c0 28 -24 53 -52 53
s-50 -25 -50 -53s22 -52 50 -52s52 24 52 52z" />
    <glyph glyph-name="uring" unicode="&#x16f;" horiz-adv-x="576" 
d="M394 110v395h118v-450c-58 -50 -131 -70 -224 -70c-133 0 -227 65 -227 196v324h118v-295c0 -100 57 -127 121 -127c48 0 79 16 94 27zM417 704c0 -67 -55 -121 -124 -121c-70 0 -125 54 -125 121c0 68 56 121 125 121s124 -56 124 -121zM345 704c0 28 -24 53 -52 53
s-50 -25 -50 -53s22 -52 50 -52s52 24 52 52z" />
    <glyph glyph-name="Uhungarumlaut" unicode="&#x170;" horiz-adv-x="774" 
d="M564 140v617h128v-666c-57 -60 -155 -108 -307 -108c-194 0 -305 98 -305 295v479h128v-409c0 -188 45 -252 200 -252c62 0 118 16 156 44zM452 949l-216 -131l-46 57l191 164zM684 949l-216 -131l-46 57l191 164z" />
    <glyph glyph-name="uhungarumlaut" unicode="&#x171;" horiz-adv-x="576" 
d="M394 110v395h118v-450c-58 -50 -131 -70 -224 -70c-133 0 -227 65 -227 196v324h118v-295c0 -100 57 -127 121 -127c48 0 79 16 94 27zM340 713l-216 -131l-46 57l191 164zM572 713l-216 -131l-46 57l191 164z" />
    <glyph glyph-name="Uogonek" unicode="&#x172;" horiz-adv-x="774" 
d="M587 -130v-78c-40 -24 -82 -34 -119 -34c-77 0 -121 44 -121 99c0 41 24 89 79 128c-13 -1 -27 -2 -41 -2c-194 0 -305 98 -305 295v479h128v-409c0 -188 45 -252 200 -252c62 0 118 16 156 44v617h128v-666c-35 -37 -91 -71 -154 -89c-35 -10 -98 -79 -98 -122
c0 -21 14 -35 53 -35c34 0 77 14 94 25z" />
    <glyph glyph-name="uogonek" unicode="&#x173;" horiz-adv-x="575" 
d="M482 -126v-78c-40 -24 -82 -34 -119 -34c-77 0 -121 44 -121 99c0 40 23 86 75 125c-9 -1 -19 -1 -29 -1c-133 0 -227 65 -227 196v324h118v-295c0 -100 57 -127 121 -127c48 0 79 16 94 27v395h118v-450c-23 -20 -48 -34 -75 -45c-72 -54 -94 -99 -94 -132
c0 -22 20 -29 45 -29c34 0 77 14 94 25z" />
    <glyph glyph-name="Wdieresis" unicode="&#x1e84;" horiz-adv-x="1071" 
d="M779 -37l-244 518l-240 -516l-303 792h142l172 -463c4 -11 5 -21 6 -36c1 15 2 25 7 36l218 494l218 -494c4 -10 6 -21 7 -36c1 15 2 25 6 36l168 463h140zM815 758c0 -35 -27 -64 -70 -64c-39 0 -68 29 -68 64c0 37 29 65 68 65c43 0 70 -28 70 -65zM395 758
c0 -35 -31 -64 -71 -64c-37 0 -68 29 -68 64c0 37 31 65 68 65c40 0 71 -28 71 -65z" />
    <glyph glyph-name="wdieresis" unicode="&#x1e85;" horiz-adv-x="769" 
d="M561 -23h-46l-130 289l-131 -289h-46l-208 528h125l107 -274s11 -30 12 -38c2 9 11 33 14 40l117 256h20l118 -258c4 -9 11 -28 13 -37c2 12 8 25 13 38c35 92 76 193 106 273h124zM574 646c0 -35 -27 -64 -70 -64c-39 0 -68 29 -68 64c0 37 29 65 68 65
c43 0 70 -28 70 -65zM334 646c0 -35 -31 -64 -71 -64c-37 0 -68 29 -68 64c0 37 31 65 68 65c40 0 71 -28 71 -65z" />
    <glyph glyph-name="Wcircumflex" unicode="&#x174;" horiz-adv-x="1071" 
d="M779 -37l-244 518l-240 -516l-303 792h142l172 -463c4 -11 5 -22 6 -39c1 17 2 28 7 39l218 494l218 -494c4 -10 6 -21 7 -36c1 15 2 25 6 36l168 463h140zM695 811l-160 59l-167 -59l-48 72l216 101l218 -105z" />
    <glyph glyph-name="wcircumflex" unicode="&#x175;" horiz-adv-x="769" 
d="M561 -23h-46l-130 289l-131 -289h-46l-208 528h125l107 -274s11 -30 12 -38c2 9 11 33 14 40l117 256h20l118 -258c4 -9 11 -28 13 -37c2 12 8 25 13 38c35 92 76 193 106 273h124zM509 572l-125 93l-123 -93l-64 71l188 136l186 -136z" />
    <glyph glyph-name="Wgrave" unicode="&#x1e80;" horiz-adv-x="1071" 
d="M779 -37l-244 518l-240 -516l-303 792h142l172 -463c4 -11 5 -22 6 -39c1 17 2 28 7 39l218 494l218 -494c4 -10 6 -21 7 -36c1 15 2 25 6 36l168 463h140zM680 830l-318 49l47 105l302 -69z" />
    <glyph glyph-name="wgrave" unicode="&#x1e81;" horiz-adv-x="769" 
d="M561 -23h-46l-130 289l-131 -289h-46l-208 528h125l107 -274s11 -30 12 -38c2 9 11 33 14 40l117 256h20l118 -258c4 -9 11 -28 13 -37c2 12 8 25 13 38c35 92 76 193 106 273h124zM478 633l-76 -50l-192 163l100 73z" />
    <glyph glyph-name="Wacute" unicode="&#x1e82;" horiz-adv-x="1071" 
d="M779 -37l-244 518l-240 -516l-303 792h142l172 -463c4 -11 5 -22 6 -39c1 17 2 28 7 39l218 494l218 -494c4 -10 6 -22 7 -39c1 17 2 28 6 39l168 463h140zM711 883l-318 -49l-31 84l302 69z" />
    <glyph glyph-name="wacute" unicode="&#x1e83;" horiz-adv-x="769" 
d="M561 -23h-46l-130 289l-131 -289h-46l-208 528h125l107 -274s11 -30 12 -38c2 9 11 33 14 40l117 256h20l118 -258c4 -9 11 -28 13 -37c2 12 8 25 13 38c35 92 76 193 106 273h124zM548 746l-192 -163l-76 50l168 186z" />
    <glyph glyph-name="Ycircumflex" unicode="&#x176;" horiz-adv-x="653" 
d="M390 0h-128v313l-277 444h143l194 -321c4 -7 5 -12 6 -27c1 14 3 19 8 27l194 321h142l-282 -444v-313zM487 818l-160 59l-167 -59l-48 72l216 101l218 -105z" />
    <glyph glyph-name="ycircumflex" unicode="&#x177;" horiz-adv-x="559" 
d="M166 -256h-133l178 321l-213 440h131l149 -319l149 319h136zM405 572l-125 93l-123 -93l-64 71l188 136l186 -136z" />
    <glyph glyph-name="Ygrave" unicode="&#x1ef2;" horiz-adv-x="653" 
d="M390 0h-128v313l-277 444h143l194 -321c4 -7 5 -12 6 -27c1 14 3 19 8 27l194 321h142l-282 -444v-313zM423 788l-76 -50l-192 163l100 73z" />
    <glyph glyph-name="ygrave" unicode="&#x1ef3;" horiz-adv-x="559" 
d="M166 -256h-133l178 321l-213 440h131l149 -319l149 319h136zM374 633l-76 -50l-192 163l100 73z" />
    <glyph glyph-name="Yacute" unicode="&#xdd;" horiz-adv-x="653" 
d="M390 0h-128v313l-277 444h143l194 -321c4 -7 5 -12 6 -27c1 14 3 19 8 27l194 321h142l-282 -444v-313zM504 901l-192 -163l-76 50l168 186z" />
    <glyph glyph-name="yacute" unicode="&#xfd;" horiz-adv-x="559" 
d="M166 -256h-133l178 321l-213 440h131l149 -319l149 319h136zM474 746l-192 -163l-76 50l168 186z" />
    <glyph glyph-name="Ydieresis" unicode="&#x178;" horiz-adv-x="653" 
d="M390 0h-128v313l-277 444h143l194 -321c4 -7 5 -12 6 -27c1 14 3 19 8 27l194 321h142l-282 -444v-313zM656 883c0 -35 -27 -64 -70 -64c-39 0 -68 29 -68 64c0 37 29 65 68 65c43 0 70 -28 70 -65zM136 883c0 -35 -31 -64 -71 -64c-37 0 -68 29 -68 64c0 37 31 65 68 65
c40 0 71 -28 71 -65z" />
    <glyph glyph-name="ydieresis" unicode="&#xff;" horiz-adv-x="559" 
d="M166 -256h-133l178 321l-213 440h131l149 -319l149 319h136zM229 646c0 -35 -31 -64 -71 -64c-37 0 -68 29 -68 64c0 37 31 65 68 65c40 0 71 -28 71 -65zM469 646c0 -35 -27 -64 -70 -64c-39 0 -68 29 -68 64c0 37 29 65 68 65c43 0 70 -28 70 -65z" />
    <glyph glyph-name="Zcaron" unicode="&#x17d;" horiz-adv-x="682" 
d="M647 1h-649l425 639h-337v116h561l-424 -639h424v-116zM577 921l-218 -105l-216 103l48 72l167 -62l160 60z" />
    <glyph glyph-name="zcaron" unicode="&#x17e;" horiz-adv-x="515" 
d="M481 1h-474l284 407h-231v96h427l-277 -407h271v-96zM438 714l-186 -136l-188 136l64 71l123 -93l125 93z" />
    <glyph glyph-name="Zacute" unicode="&#x179;" horiz-adv-x="682" 
d="M647 1h-649l425 639h-337v116h561l-424 -639h424v-116zM538 878l-318 -49l-31 84l302 69z" />
    <glyph glyph-name="zacute" unicode="&#x17a;" horiz-adv-x="515" 
d="M481 1h-474l284 407h-231v96h427l-277 -407h271v-96zM429 746l-192 -163l-76 50l168 186z" />
    <glyph glyph-name="Zdotaccent" unicode="&#x17b;" horiz-adv-x="682" 
d="M647 1h-649l425 639h-337v116h561l-424 -639h424v-116zM420 891c0 -38 -31 -71 -73 -71c-38 0 -72 33 -72 71c0 41 34 74 72 74c42 0 73 -33 73 -74z" />
    <glyph glyph-name="zdotaccent" unicode="&#x17c;" horiz-adv-x="515" 
d="M481 1h-474l284 407h-231v96h427l-277 -407h271v-96zM323 654c0 -38 -31 -71 -73 -71c-38 0 -72 33 -72 71c0 41 34 74 72 74c42 0 73 -33 73 -74z" />
    <glyph glyph-name="ampersand" unicode="&#x26;" horiz-adv-x="756" 
d="M775 0h-142l-92 112c-30 -46 -104 -124 -228 -124c-155 0 -274 123 -274 272c0 122 80 211 163 245c-24 36 -41 62 -41 108c0 86 63 157 165 157c91 0 137 -57 156 -73l-69 -71c-17 16 -53 47 -91 47c-29 0 -60 -18 -60 -58c0 -31 18 -54 44 -85h270l-22 -95h-166z
M475 188l-211 241c-28 -7 -121 -52 -121 -165c0 -109 87 -177 176 -177c90 0 143 70 156 101z" />
    <glyph glyph-name="sterling" unicode="&#xa3;" horiz-adv-x="653" 
d="M599 103l11 -101c-24 -6 -72 -16 -104 -19c-12 -1 -22 -1 -30 -1c-70 4 -131 28 -185 28c-71 0 -198 -52 -210 -58l-38 91c7 5 83 40 144 54v183h-75v91h75v155c0 160 68 225 186 225c58 0 104 -31 123 -45l-51 -85c-12 6 -36 27 -68 27c-52 0 -67 -33 -67 -102v-175h137
v-91h-137v-171c48 -2 107 -26 166 -26c44 0 74 7 123 20z" />
    <glyph glyph-name="yen" unicode="&#xa5;" horiz-adv-x="777" 
d="M669 99h-219v-99h-128v99h-215v91h215v86h-215v91h181l-243 390h143l194 -321c4 -7 5 -12 6 -27c1 14 3 19 8 27l194 321h142l-248 -390h185v-91h-219v-86h219v-91z" />
    <glyph glyph-name="dollar" unicode="$" horiz-adv-x="604" 
d="M279 -125l-88 4l19 116c-80 19 -140 63 -167 92l67 92c25 -25 67 -55 118 -70l37 229c-91 44 -175 98 -175 206c0 128 118 200 232 200h9l19 115l88 -4l-21 -129c58 -22 95 -57 105 -68l-62 -95c-20 19 -41 35 -62 47l-29 -180c124 -63 177 -125 177 -223
c0 -154 -128 -220 -249 -222zM347 295l-31 -194c60 6 94 41 94 94c0 46 -26 76 -63 100zM287 469l26 160c-45 -4 -89 -30 -89 -79c0 -39 28 -62 63 -81z" />
    <glyph glyph-name="cent" unicode="&#xa2;" horiz-adv-x="585" 
d="M360 -26h-81v111c-128 22 -224 124 -224 262c0 141 108 232 224 247v152h81v-150c79 -7 155 -61 172 -79l-56 -73c-16 14 -74 55 -116 58v-323c60 0 118 47 135 66l39 -78c-26 -34 -86 -74 -174 -80v-113zM279 186v306c-48 -18 -101 -63 -101 -149
c0 -83 51 -138 101 -157z" />
    <glyph glyph-name="Euro" unicode="&#x20ac;" horiz-adv-x="723" 
d="M625 128l45 -96c-9 -6 -82 -46 -191 -46c-119 0 -282 65 -330 259h-102l20 92h70c-1 9 -1 18 -1 28c0 16 0 32 1 48h-79l21 91h73c36 144 135 257 318 257c86 0 157 -29 201 -57l-54 -86c-16 8 -88 38 -155 38c-83 0 -157 -51 -191 -152h279l-19 -91h-279
c-1 -14 -1 -28 -1 -42c0 -11 0 -23 1 -34h285l-20 -92h-244c31 -84 96 -156 207 -156c75 0 137 35 145 39z" />
    <glyph glyph-name="parenleft" unicode="(" horiz-adv-x="279" 
d="M240 -225l-91 -37c-59 147 -96 340 -96 540c0 224 44 425 95 558l93 -38c-32 -93 -82 -300 -82 -518c0 -187 35 -344 81 -505z" />
    <glyph glyph-name="parenright" unicode=")" horiz-adv-x="279" 
d="M131 -262l-91 37c46 161 81 319 81 505c0 218 -50 425 -82 518l93 38c51 -132 94 -333 94 -558c0 -200 -35 -393 -95 -540z" />
    <glyph glyph-name="bracketleft" unicode="[" horiz-adv-x="340" 
d="M305 -216h-229v1036h229v-93h-126v-853h126v-90z" />
    <glyph glyph-name="bracketright" unicode="]" horiz-adv-x="340" 
d="M264 -216h-229v93h123v853h-123v90h229v-1036z" />
    <glyph glyph-name="braceleft" unicode="{" horiz-adv-x="374" 
d="M346 -126l-24 -87c-155 15 -196 86 -196 220v121c0 74 -23 128 -118 176c95 48 118 102 118 176v121c0 134 41 205 196 220l24 -87c-87 -14 -111 -47 -111 -146v-120c0 -72 -14 -117 -58 -164c44 -47 58 -92 58 -164v-120c0 -99 24 -132 111 -146z" />
    <glyph glyph-name="braceright" unicode="}" horiz-adv-x="374" 
d="M52 -213l-24 87c87 14 111 47 111 146v120c0 72 14 117 58 164c-44 47 -58 92 -58 164v120c0 99 -24 132 -111 146l24 87c155 -15 196 -86 196 -220v-121c0 -74 23 -128 118 -176c-95 -48 -118 -102 -118 -176v-121c0 -134 -41 -205 -196 -220z" />
    <glyph glyph-name="exclam" unicode="!" horiz-adv-x="279" 
d="M188 219h-96l-21 538h136zM139 -14c-41 0 -74 37 -74 74c0 41 33 75 74 75c43 0 74 -34 74 -75c0 -37 -32 -74 -74 -74z" />
    <glyph glyph-name="exclamdown" unicode="&#xa1;" horiz-adv-x="264" 
d="M200 -211h-136l19 538h96zM132 411c-43 0 -74 34 -74 75c0 37 32 74 74 74c41 0 74 -37 74 -74c0 -41 -33 -75 -74 -75z" />
    <glyph glyph-name="question" unicode="?" horiz-adv-x="485" 
d="M376 381l59 -59c-25 -41 -102 -114 -199 -114c-85 0 -179 55 -179 153c0 89 77 130 118 160c49 35 101 74 101 114c0 21 -15 48 -54 48c-41 0 -75 -30 -91 -42l-46 65c29 25 88 68 164 68c99 0 147 -74 147 -138c0 -69 -57 -120 -134 -175c-39 -28 -86 -61 -86 -101
c0 -29 21 -60 66 -60c59 0 115 54 134 81zM229 -14c-40 0 -73 37 -73 76s33 72 73 72s72 -34 72 -72s-32 -76 -72 -76z" />
    <glyph glyph-name="questiondown" unicode="&#xbf;" horiz-adv-x="471" 
d="M348 -115l46 -65c-29 -25 -88 -68 -164 -68c-99 0 -147 74 -147 138c0 69 57 120 134 175c39 28 86 61 86 101c0 29 -21 60 -66 60c-59 0 -115 -54 -134 -81l-59 59c25 41 102 114 199 114c85 0 179 -55 179 -153c0 -89 -77 -130 -118 -160c-49 -35 -101 -74 -101 -114
c0 -21 15 -48 54 -48c41 0 75 30 91 42zM323 464c0 -39 -33 -72 -73 -72s-72 34 -72 72s32 76 72 76s73 -37 73 -76z" />
    <glyph glyph-name="dagger" unicode="&#x2020;" horiz-adv-x="507" 
d="M310 56h-117v476h-147v97h147v186h117v-186h151v-97h-151v-476z" />
    <glyph glyph-name="daggerdbl" unicode="&#x2021;" horiz-adv-x="536" 
d="M324 57h-117v176h-147v97h147v225h-147v96h147v169h117v-169h151v-96h-151v-225h151v-97h-151v-176z" />
    <glyph glyph-name="guilsinglleft" unicode="&#x2039;" horiz-adv-x="354" 
d="M313 26h-126l-147 212l144 212h125l-155 -213z" />
    <glyph glyph-name="guilsinglright" unicode="&#x203a;" horiz-adv-x="354" 
d="M167 25h-126l159 211l-155 213h125l144 -211z" />
    <glyph glyph-name="guillemotleft" unicode="&#xab;" horiz-adv-x="609" 
d="M316 25h-129l-147 213l144 212h128l-154 -213zM570 25h-127l-148 213l144 212h125l-155 -212z" />
    <glyph glyph-name="guillemotright" unicode="&#xbb;" horiz-adv-x="602" 
d="M167 24h-125l159 212l-155 213h125l144 -211zM416 24h-121l158 213l-155 212h122l142 -211z" />
    <glyph glyph-name="less" unicode="&#x3c;" horiz-adv-x="645" 
d="M529 28l-484 309v68l485 289l54 -101l-385 -224l385 -243z" />
    <glyph glyph-name="greater" unicode="&#x3e;" horiz-adv-x="645" 
d="M600 335l-485 -289l-54 101l385 224l-385 243l54 98l485 -309v-68z" />
    <glyph glyph-name="lessequal" unicode="&#x2264;" horiz-adv-x="688" 
d="M559 130l-490 267v59l491 251l56 -88l-382 -194l383 -209zM631 1h-577v99h577v-99z" />
    <glyph glyph-name="greaterequal" unicode="&#x2265;" horiz-adv-x="689" 
d="M619 397l-489 -267l-58 86l382 209l-381 194l56 88l490 -251v-59zM635 1h-578v99h578v-99z" />
    <glyph glyph-name="quotesingle" unicode="'" horiz-adv-x="252" 
d="M175 461h-98l-19 300h136z" />
    <glyph glyph-name="quotedbl" unicode="&#x22;" horiz-adv-x="449" 
d="M175 461h-98l-19 300h136zM372 461h-97l-19 300h135z" />
    <glyph glyph-name="quoteleft" unicode="&#x2018;" horiz-adv-x="278" 
d="M165 525h-126l125 232h82z" />
    <glyph glyph-name="quoteright" unicode="&#x2019;" horiz-adv-x="272" 
d="M126 525h-82l80 232h126z" />
    <glyph glyph-name="quotedblleft" unicode="&#x201c;" horiz-adv-x="457" 
d="M349 525h-111l103 232h82zM151 525h-112l125 232h82z" />
    <glyph glyph-name="quotedblright" unicode="&#x201d;" horiz-adv-x="451" 
d="M304 525h-82l95 232h112zM127 525h-82l73 232h112z" />
    <glyph glyph-name="quotesinglbase" unicode="&#x201a;" horiz-adv-x="266" 
d="M90 -113h-82l80 232h126z" />
    <glyph glyph-name="quotedblbase" unicode="&#x201e;" horiz-adv-x="454" 
d="M273 -112h-82l95 232h112zM96 -112h-82l73 232h112z" />
    <glyph glyph-name="minute" unicode="&#x2032;" horiz-adv-x="272" 
d="M126 525h-82l80 232h126z" />
    <glyph glyph-name="second" unicode="&#x2033;" horiz-adv-x="451" 
d="M304 525h-82l95 232h112zM127 525h-82l73 232h112z" />
    <glyph glyph-name="minus" unicode="&#x2212;" horiz-adv-x="722" 
d="M647 314h-572v99h572v-99z" />
    <glyph glyph-name="plus" unicode="+" horiz-adv-x="674" 
d="M623 314h-227v-210h-118v210h-227v99h227v211h118v-211h227v-99z" />
    <glyph glyph-name="divide" unicode="&#xf7;" horiz-adv-x="698" 
d="M418 157c0 -35 -27 -65 -69 -65c-36 0 -66 30 -66 65s30 64 66 64c42 0 69 -29 69 -64zM418 556c0 -33 -27 -62 -69 -62c-36 0 -66 29 -66 62c0 36 30 65 66 65c44 0 69 -29 69 -65zM635 314h-572v99h572v-99z" />
    <glyph glyph-name="multiply" unicode="&#xd7;" horiz-adv-x="671" 
d="M607 172l-83 -65l-188 180l-187 -178l-86 61l195 183l-192 183l82 65l190 -180l186 181l82 -66l-190 -182z" />
    <glyph glyph-name="equal" unicode="=" horiz-adv-x="728" 
d="M653 399h-578v102h578v-102zM653 190h-578v102h578v-102z" />
    <glyph glyph-name="plusminus" unicode="&#xb1;" horiz-adv-x="708" 
d="M640 362h-227v-210h-118v210h-227v99h227v211h118v-211h227v-99zM640 1h-572v99h572v-99z" />
    <glyph glyph-name="notequal" unicode="&#x2260;" horiz-adv-x="694" 
d="M635 190h-282l-86 -234l-88 25l76 209h-198v102h237l37 107h-274v102h313l88 236l86 -32l-75 -204h166v-102h-206l-36 -107h242v-102z" />
    <glyph glyph-name="approxequal" unicode="&#x2248;" horiz-adv-x="716" 
d="M523 269l125 -10c-10 -121 -70 -162 -140 -162c-151 0 -201 92 -276 92c-22 0 -34 -20 -35 -76l-121 10c0 99 59 164 140 164c128 0 181 -93 278 -93c23 0 29 14 29 75zM523 529l125 -10c-10 -121 -70 -162 -140 -162c-151 0 -201 92 -276 92c-22 0 -34 -20 -35 -76
l-121 10c0 99 59 164 140 164c128 0 181 -93 278 -93c23 0 29 14 29 75z" />
    <glyph glyph-name="period" unicode="." horiz-adv-x="255" 
d="M127 -14c-40 0 -74 38 -74 74c0 41 34 74 74 74c43 0 74 -33 74 -74c0 -36 -31 -74 -74 -74z" />
    <glyph glyph-name="comma" unicode="," horiz-adv-x="272" 
d="M90 -110h-82l83 232h126z" />
    <glyph glyph-name="bullet" unicode="&#x2022;" horiz-adv-x="429" 
d="M215 150c-85 0 -154 68 -154 153s69 154 154 154c84 0 153 -69 153 -154s-69 -153 -153 -153z" />
    <glyph glyph-name="periodcentered" unicode="&#xb7;" horiz-adv-x="265" 
d="M209 362c0 -36 -34 -69 -77 -69c-41 0 -76 32 -76 69c0 41 35 71 76 71c43 0 77 -30 77 -71z" />
    <glyph glyph-name="colon" unicode=":" horiz-adv-x="280" 
d="M140 -14c-40 0 -74 38 -74 74c0 41 34 75 74 75c42 0 74 -34 74 -75c0 -36 -32 -74 -74 -74zM214 386c0 -37 -32 -73 -74 -73c-40 0 -74 36 -74 73c0 42 34 75 74 75c42 0 74 -33 74 -75z" />
    <glyph glyph-name="semicolon" unicode=";" horiz-adv-x="294" 
d="M157 313c-40 0 -74 37 -74 74c0 41 34 74 74 74c43 0 74 -33 74 -74c0 -37 -31 -74 -74 -74zM93 -110h-82l83 232h127z" />
    <glyph glyph-name="ellipsis" unicode="&#x2026;" horiz-adv-x="769" 
d="M127 -14c-40 0 -74 38 -74 74c0 41 34 74 74 74c43 0 74 -33 74 -74c0 -36 -31 -74 -74 -74zM384 -14c-40 0 -74 38 -74 74c0 41 34 74 74 74c43 0 74 -33 74 -74c0 -36 -31 -74 -74 -74zM641 -14c-40 0 -74 38 -74 74c0 41 34 74 74 74c43 0 74 -33 74 -74
c0 -36 -31 -74 -74 -74z" />
    <glyph glyph-name="onedotenleader" unicode="&#x2024;" horiz-adv-x="255" 
d="M127 -14c-40 0 -74 38 -74 74c0 41 34 74 74 74c43 0 74 -33 74 -74c0 -36 -31 -74 -74 -74z" />
    <glyph glyph-name="twodotenleader" unicode="&#x2025;" horiz-adv-x="512" 
d="M127 -14c-40 0 -74 38 -74 74c0 41 34 74 74 74c43 0 74 -33 74 -74c0 -36 -31 -74 -74 -74zM384 -14c-40 0 -74 38 -74 74c0 41 34 74 74 74c43 0 74 -33 74 -74c0 -36 -31 -74 -74 -74z" />
    <glyph glyph-name="hyphen" unicode="-" horiz-adv-x="429" 
d="M350 196h-284l13 98h284z" />
    <glyph glyph-name="uni00AD" unicode="&#xad;" horiz-adv-x="429" 
d="M350 196h-284l13 98h284z" />
    <glyph glyph-name="endash" unicode="&#x2013;" horiz-adv-x="676" 
d="M594 196h-528l15 98h528z" />
    <glyph glyph-name="emdash" unicode="&#x2014;" horiz-adv-x="937" 
d="M855 196h-789l16 98h788z" />
    <glyph glyph-name="underscore" unicode="_" horiz-adv-x="645" 
d="M580 -49h-515v98h515v-98z" />
    <glyph glyph-name="numbersign" unicode="#" horiz-adv-x="665" 
d="M442 -7l-97 13l26 213h-112l-29 -226l-97 13l26 213h-105l2 98h115l13 100h-105l2 97h115l27 217l99 -8l-26 -209h112l27 217l100 -8l-27 -209h104l-1 -97h-115l-13 -100h103l-1 -98h-114zM383 317l13 100h-112l-13 -100h112z" />
    <glyph glyph-name="zero" unicode="0" horiz-adv-x="680" 
d="M339 -16c-237 0 -278 229 -278 390c0 157 40 389 277 389c239 0 281 -221 281 -389c0 -165 -44 -390 -280 -390zM339 87c140 0 153 192 153 287c0 103 -17 287 -154 287c-134 0 -151 -178 -151 -287c0 -95 18 -287 152 -287z" />
    <glyph glyph-name="zero_slash" horiz-adv-x="680" 
d="M339 -16c-237 0 -278 229 -278 390c0 157 40 389 277 389c239 0 281 -221 281 -389c0 -165 -44 -390 -280 -390zM213 177l191 472c-19 11 -40 17 -66 17c-139 0 -156 -178 -156 -292c0 -54 5 -134 31 -197zM469 565l-190 -468c17 -10 36 -15 60 -15
c145 0 158 192 158 292c0 55 -5 131 -28 191z" />
    <glyph glyph-name="one" unicode="1" horiz-adv-x="396" 
d="M302 -4h-124v620l-118 -53l-44 94l286 115v-776z" />
    <glyph glyph-name="two" unicode="2" horiz-adv-x="621" 
d="M570 0h-539v72c141 70 384 278 384 463c0 68 -46 126 -116 126c-73 0 -129 -48 -158 -82l-60 80c36 36 116 104 229 104c139 0 234 -101 234 -228c0 -165 -180 -341 -307 -437l333 6v-104z" />
    <glyph glyph-name="three" unicode="3" horiz-adv-x="568" 
d="M24 66l52 87c20 -24 88 -67 169 -67c100 0 147 66 147 133c0 86 -79 159 -192 159c-13 0 -16 -1 -23 -1v72c8 -1 15 -1 22 -1c96 0 160 57 160 123c0 50 -37 86 -102 86c-46 0 -97 -18 -124 -36l-37 87c27 19 99 55 179 55c128 0 206 -93 206 -185
c0 -51 -24 -116 -108 -160v-1c99 -41 139 -135 139 -210c0 -118 -99 -223 -266 -223c-125 0 -200 59 -222 82z" />
    <glyph glyph-name="four" unicode="4" horiz-adv-x="656" 
d="M505 -5h-124v127h-357v73l405 588h76v-558h107v-103h-107v-127zM388 225v325l-222 -325h222z" />
    <glyph glyph-name="five" unicode="5" horiz-adv-x="578" 
d="M29 49l41 100c38 -30 94 -59 163 -59c106 0 162 70 162 154c0 77 -46 152 -175 152c-33 0 -75 -5 -135 -24l100 376h322l-31 -101h-205l-47 -170c19 3 35 4 49 4c141 0 254 -96 254 -242c0 -127 -86 -255 -272 -255c-111 0 -196 45 -226 65z" />
    <glyph glyph-name="six" unicode="6" horiz-adv-x="635" 
d="M365 768l84 -75c-36 -36 -136 -140 -192 -232c32 11 64 16 94 16c129 0 236 -95 236 -244c0 -169 -137 -248 -271 -248s-266 89 -266 245c0 120 82 301 315 538zM320 88c83 0 138 66 138 144c0 77 -54 149 -140 149c-84 0 -142 -69 -142 -148c0 -84 65 -145 144 -145z
" />
    <glyph glyph-name="seven" unicode="7" horiz-adv-x="576" 
d="M184 -9h-138l347 651h-346v105h528z" />
    <glyph glyph-name="eight" unicode="8" horiz-adv-x="619" 
d="M444 379c52 -26 112 -82 112 -172c0 -124 -112 -223 -246 -223c-135 0 -248 100 -248 218c0 90 66 149 114 176c-54 27 -108 90 -108 174c0 124 117 212 245 212c129 0 238 -90 238 -212c0 -84 -51 -148 -107 -173zM309 85c67 0 121 58 121 124s-53 123 -121 123
s-123 -56 -123 -122c0 -67 55 -125 123 -125zM310 423c67 0 118 54 118 119s-51 120 -118 120c-68 0 -120 -55 -120 -118s51 -121 120 -121z" />
    <glyph glyph-name="nine" unicode="9" horiz-adv-x="633" 
d="M272 -26l-85 76c32 36 133 145 189 237c-32 -11 -64 -16 -94 -16c-129 0 -236 95 -236 244c0 169 137 248 271 248s266 -79 266 -235c0 -120 -78 -297 -311 -554zM315 367c84 0 142 69 142 148c0 84 -65 145 -144 145c-83 0 -138 -66 -138 -144c0 -77 54 -149 140 -149z
" />
    <glyph glyph-name="onesuperior" unicode="&#xb9;" horiz-adv-x="326" 
d="M254 328h-115v324l-75 -28l-42 85l232 81v-462z" />
    <glyph glyph-name="twosuperior" unicode="&#xb2;" horiz-adv-x="493" 
d="M437 330h-404c76 52 265 206 265 305c0 39 -30 58 -62 58c-39 0 -79 -28 -98 -48l-53 73c28 24 87 66 167 66c98 0 163 -63 163 -143c0 -101 -112 -195 -167 -230l189 10v-91z" />
    <glyph glyph-name="threesuperior" unicode="&#xb3;" horiz-adv-x="423" 
d="M292 577v-1c59 -22 85 -78 85 -122c0 -74 -73 -136 -187 -136c-85 0 -139 35 -157 51l49 77c15 -16 65 -37 108 -37c52 0 76 30 76 61c0 44 -50 68 -115 68c-8 0 -15 0 -23 -1v63c7 0 8 -1 19 -1c50 0 94 20 94 57c0 25 -21 38 -51 38c-31 0 -64 -15 -77 -23l-33 80
c20 16 73 33 127 33c91 0 148 -48 148 -113c0 -30 -12 -68 -63 -94z" />
    <glyph glyph-name="fraction" unicode="&#x2044;" horiz-adv-x="163" 
d="M-70 -39l-96 45l398 765l97 -45z" />
    <glyph glyph-name="percent" unicode="%" horiz-adv-x="787" 
d="M270 -26l-78 31l310 743l79 -32zM357 605c0 -87 -70 -156 -157 -156s-156 69 -156 156s69 157 156 157s157 -70 157 -157zM201 535c39 0 69 31 69 70s-30 71 -69 71s-69 -32 -69 -71s30 -70 69 -70zM743 145c0 -87 -70 -156 -158 -156c-86 0 -155 69 -155 156
c0 88 69 158 155 158c88 0 158 -70 158 -158zM586 74c40 0 69 32 69 71c0 40 -29 71 -69 71c-39 0 -68 -31 -68 -71c0 -39 29 -71 68 -71z" />
    <glyph glyph-name="perthousand" unicode="&#x2030;" horiz-adv-x="1170" 
d="M271 -26l-78 31l310 743l79 -32zM358 605c0 -87 -70 -156 -157 -156s-156 69 -156 156s69 157 156 157s157 -70 157 -157zM202 535c39 0 69 31 69 70s-30 71 -69 71s-69 -32 -69 -71s30 -70 69 -70zM744 145c0 -87 -70 -156 -158 -156c-86 0 -155 69 -155 156
c0 88 69 158 155 158c88 0 158 -70 158 -158zM587 74c40 0 69 32 69 71c0 40 -29 71 -69 71c-39 0 -68 -31 -68 -71c0 -39 29 -71 68 -71zM1127 145c0 -87 -70 -156 -158 -156c-86 0 -155 69 -155 156c0 88 69 158 155 158c88 0 158 -70 158 -158zM970 74c40 0 69 32 69 71
c0 40 -29 71 -69 71c-39 0 -68 -31 -68 -71c0 -39 29 -71 68 -71z" />
    <glyph glyph-name="onequarter" unicode="&#xbc;" horiz-adv-x="909" 
d="M268 -39l-96 45l398 765l97 -45zM268 328h-111v324l-75 -28l-42 85l228 81v-462zM785 -5h-106v75h-239v69l271 312h74v-294h73v-87h-73v-75zM683 151v145l-126 -145h126z" />
    <glyph glyph-name="onehalf" unicode="&#xbd;" horiz-adv-x="971" 
d="M268 -39l-96 45l398 765l97 -45zM268 328h-111v324l-75 -28l-42 85l228 81v-462zM917 0h-404c76 52 265 206 265 305c0 39 -30 58 -62 58c-39 0 -79 -28 -98 -48l-53 73c28 24 87 66 167 66c98 0 163 -63 163 -143c0 -101 -112 -195 -167 -230l189 10v-91z" />
    <glyph glyph-name="threequarters" unicode="&#xbe;" horiz-adv-x="998" 
d="M876 -5h-106v75h-239v69l271 312h74v-294h73v-87h-73v-75zM359 -39l-96 45l398 765l97 -45zM301 577v-1c59 -22 85 -78 85 -122c0 -74 -73 -136 -187 -136c-85 0 -139 35 -157 51l49 77c15 -16 65 -37 108 -37c52 0 76 30 76 61c0 44 -50 68 -115 68c-8 0 -15 0 -23 -1
v63c7 0 8 -1 19 -1c50 0 94 20 94 57c0 25 -21 38 -51 38c-31 0 -64 -15 -77 -23l-33 80c20 16 73 33 127 33c91 0 148 -48 148 -113c0 -30 -12 -68 -63 -94zM774 151v145l-126 -145h126z" />
    <glyph glyph-name="arrowup" unicode="&#x2191;" horiz-adv-x="490" 
d="M304 -4h-118v615l-88 -68l-48 98l195 116l195 -116l-50 -98l-86 68v-615z" />
    <glyph glyph-name="arrowdown" unicode="&#x2193;" horiz-adv-x="490" 
d="M440 112l-195 -116l-195 116l48 98l88 -68v615h118v-615l86 68z" />
    <glyph glyph-name="arrowright" unicode="&#x2192;" horiz-adv-x="861" 
d="M695 181l-98 48l68 88h-615v118h615l-68 86l98 50l116 -195z" />
    <glyph glyph-name="arrowleft" unicode="&#x2190;" horiz-adv-x="861" 
d="M811 317h-615l68 -88l-98 -48l-116 195l116 195l98 -50l-68 -86h615v-118z" />
    <glyph glyph-name="arrowboth" unicode="&#x2194;" horiz-adv-x="861" 
d="M695 181l-98 48l68 88h-469l68 -88l-98 -48l-116 195l116 195l98 -50l-68 -86h469l-68 86l98 50l116 -195z" />
    <glyph glyph-name="arrowupdn" unicode="&#x2195;" horiz-adv-x="490" 
d="M440 111l-195 -116l-195 116l48 98l88 -68v469l-88 -68l-48 98l195 116l195 -116l-50 -98l-86 68v-469l86 68z" />
    <glyph glyph-name="uni2196" unicode="&#x2196;" horiz-adv-x="749" 
d="M705 149l-83 -83l-435 434l-14 -110l-103 35l56 220l220 56l33 -104l-108 -13z" />
    <glyph glyph-name="uni2197" unicode="&#x2197;" horiz-adv-x="749" 
d="M705 425l-103 -35l-14 110l-435 -434l-83 83l434 435l-108 13l33 104l220 -56z" />
    <glyph glyph-name="uni2198" unicode="&#x2198;" horiz-adv-x="749" 
d="M649 122l-220 -56l-33 104l108 13l-434 435l83 83l435 -434l14 110l103 -35z" />
    <glyph glyph-name="uni2199" unicode="&#x2199;" horiz-adv-x="749" 
d="M346 66l-220 56l-56 220l103 35l14 -110l435 434l83 -83l-434 -435l108 -13z" />
    <glyph glyph-name="triagdn" unicode="&#x25bc;" horiz-adv-x="669" 
d="M327 10l-337 579h689z" />
    <glyph glyph-name="triaglf" unicode="&#x25c4;" horiz-adv-x="632" 
d="M533 -5l-533 365l533 359v-724z" />
    <glyph glyph-name="triagrt" unicode="&#x25ba;" horiz-adv-x="632" 
d="M632 360l-533 -365v724z" />
    <glyph glyph-name="triagup" unicode="&#x25b2;" horiz-adv-x="669" 
d="M679 0h-689l337 578z" />
    <glyph glyph-name="slash" unicode="/" horiz-adv-x="557" 
d="M118 -216l-85 30l406 1006l85 -37z" />
    <glyph glyph-name="backslash" unicode="\" horiz-adv-x="559" 
d="M525 -186l-85 -31l-406 1001l85 36z" />
    <glyph glyph-name="bar" unicode="|" horiz-adv-x="260" 
d="M183 -260h-106v1080h106v-1080z" />
    <glyph glyph-name="brokenbar" unicode="&#xa6;" horiz-adv-x="264" 
d="M185 -260h-106v439h106v-439zM185 381h-106v439h106v-439z" />
    <glyph glyph-name="at" unicode="@" horiz-adv-x="1026" 
d="M762 -89l33 -81c-103 -43 -185 -52 -247 -52c-271 0 -492 214 -492 479s215 479 486 479c273 0 436 -178 436 -413c0 -150 -131 -346 -383 -346c-188 0 -271 103 -271 203c0 92 71 182 197 182c44 0 88 -14 120 -39v35c0 57 -44 75 -107 75c-69 0 -115 -19 -131 -26
l-35 74c40 19 106 46 175 46c159 0 199 -92 199 -197v-160h-31c-43 86 -138 100 -184 100c-71 0 -107 -39 -107 -83c0 -55 57 -117 176 -117c180 0 287 133 287 261c0 115 -78 310 -344 310c-217 0 -388 -169 -388 -396c0 -192 178 -374 394 -374c64 0 131 2 217 40z" />
    <glyph glyph-name="copyright" unicode="&#xa9;" horiz-adv-x="909" 
d="M454 67c170 0 305 137 305 306c0 171 -135 306 -305 306c-171 0 -305 -135 -305 -306c0 -169 134 -306 305 -306zM855 372c0 -219 -179 -397 -401 -397s-400 178 -400 397c0 221 178 398 400 398s401 -177 401 -398zM601 270l47 -66c-43 -38 -99 -58 -174 -58
c-151 0 -262 105 -262 228c0 125 101 232 253 232c103 0 160 -48 178 -64l-53 -71c-35 31 -78 43 -130 43c-84 0 -138 -61 -138 -141c0 -75 68 -136 152 -136c73 0 114 23 127 33z" />
    <glyph glyph-name="uni2117" unicode="&#x2117;" horiz-adv-x="909" 
d="M454 67c170 0 305 137 305 306c0 171 -135 306 -305 306c-171 0 -305 -135 -305 -306c0 -169 134 -306 305 -306zM855 372c0 -219 -179 -397 -401 -397s-400 178 -400 397c0 221 178 398 400 398s401 -177 401 -398zM429 148h-100v439h107c128 0 215 -37 215 -145
c0 -93 -64 -157 -192 -157h-30v-137zM429 375h29c59 0 86 27 86 63c0 31 -20 59 -79 59h-36v-122z" />
    <glyph glyph-name="registered" unicode="&#xae;" horiz-adv-x="715" 
d="M651 491c0 -160 -134 -291 -293 -291c-161 0 -294 131 -294 291s133 290 294 290c159 0 293 -130 293 -290zM359 277c116 0 213 98 213 215c0 116 -97 214 -213 214c-118 0 -214 -91 -214 -214c0 -117 96 -215 214 -215zM496 337h-84l-73 117l-11 17v-134h-77v320h92
c70 0 140 -26 140 -103c0 -48 -23 -75 -76 -90zM328 510h19c48 0 67 16 67 46c0 25 -21 41 -61 41h-25v-87z" />
    <glyph glyph-name="trademark" unicode="&#x2122;" horiz-adv-x="1037" 
d="M309 370h-110v287h-130v101h370v-101h-130v-287zM973 370h-111l-26 176l-118 -191l-118 190l-23 -175h-111l69 399l184 -239l183 238z" />
    <glyph glyph-name="ordfeminine" unicode="&#xaa;" horiz-adv-x="459" 
d="M288 458v59c-15 10 -40 20 -66 20c-35 0 -65 -17 -65 -43c0 -30 24 -50 67 -50c25 0 48 6 64 14zM399 593v-177c-48 -38 -111 -49 -180 -49c-122 0 -177 60 -177 129c0 83 84 112 159 112c40 0 66 -8 86 -16v31c0 22 -27 40 -77 40c-37 0 -79 -13 -96 -19l-32 65
c38 17 87 31 150 31c132 0 167 -56 167 -147z" />
    <glyph glyph-name="ordmasculine" unicode="&#xba;" horiz-adv-x="501" 
d="M460 552c0 -101 -91 -185 -209 -185c-117 0 -209 83 -209 185c0 103 92 188 209 188c118 0 209 -87 209 -188zM250 451c55 0 92 41 92 101c0 59 -40 104 -89 104c-53 0 -94 -46 -94 -106c0 -57 45 -99 91 -99z" />
    <glyph glyph-name="florin" unicode="&#x192;" horiz-adv-x="371" 
d="M-105 -244l15 94c13 -3 33 -10 50 -10c45 0 65 53 81 137l83 432h-90l16 95h93l15 79c29 155 76 268 215 268c16 0 70 -13 76 -15l-22 -93c-11 3 -38 5 -50 5c-76 0 -94 -107 -119 -244h104l-16 -95h-106l-92 -479c-22 -114 -95 -193 -183 -193c-35 0 -63 15 -70 19z" />
    <glyph glyph-name="currency" unicode="&#xa4;" horiz-adv-x="719" 
d="M652 155l-90 -67l-74 70c-36 -21 -80 -37 -130 -37c-49 0 -94 16 -130 37l-76 -71l-84 68l76 73c-25 36 -41 78 -41 130c0 53 16 93 40 127l-76 74l84 69l76 -74c37 24 82 40 131 40c50 0 95 -16 131 -39l74 71l90 -67l-77 -75c23 -33 37 -73 37 -126
c0 -52 -15 -94 -40 -129c29 -26 61 -56 79 -74zM492 358c0 74 -63 132 -134 132c-67 0 -132 -58 -132 -132s64 -134 132 -134c71 0 134 61 134 134z" />
    <glyph glyph-name="asciicircum" unicode="^" horiz-adv-x="704" 
d="M628 404h-138l-139 262l-139 -262h-137l227 410h98z" />
    <glyph glyph-name="asciitilde" unicode="~" horiz-adv-x="560" 
d="M474 574l41 -99c-19 -18 -77 -59 -140 -59c-54 0 -111 52 -172 52c-41 0 -92 -32 -116 -48l-42 97c25 22 92 64 147 64c62 0 122 -53 171 -53c54 0 95 33 111 46z" />
    <glyph glyph-name="asterisk" unicode="*" horiz-adv-x="511" 
d="M268 679h-28l-47 142h122zM414 522l-99 -71l-45 142l23 17zM196 451l-99 71l121 88l23 -17zM459 646l-152 -6l-9 28l114 90zM204 640l-152 6l47 112l114 -90z" />
    <glyph glyph-name="degree" unicode="&#xb0;" horiz-adv-x="435" 
d="M390 634c0 -88 -77 -157 -173 -157c-97 0 -172 69 -172 157s75 158 172 158c96 0 173 -70 173 -158zM217 553c41 0 72 36 72 81s-31 81 -72 81c-40 0 -71 -36 -71 -81s31 -81 71 -81z" />
    <glyph glyph-name="section" unicode="&#xa7;" horiz-adv-x="586" 
d="M374 -124l-334 522c20 55 91 109 158 140c-25 39 -56 85 -80 125c8 51 236 156 298 153l24 -111c-44 0 -169 -21 -210 -34c101 -164 209 -332 310 -491c-20 -56 -87 -104 -153 -137c29 -49 70 -111 100 -158c-18 -53 -230 -166 -311 -166l-23 111c45 -1 180 29 221 46z
M427 166l-177 283c-14 0 -28 -4 -40 -8c-26 -9 -43 -19 -58 -28l182 -287c5 -1 20 3 30 7c18 7 53 25 63 33z" />
    <glyph glyph-name="logicalnot" unicode="&#xac;" horiz-adv-x="715" 
d="M636 110h-127v193h-443v111h570v-304z" />
    <glyph glyph-name="infinity" unicode="&#x221e;" horiz-adv-x="967" 
d="M470 151c-47 -63 -105 -114 -194 -114c-111 0 -216 79 -216 225c0 148 107 225 217 225c105 0 160 -72 207 -149c48 77 106 149 221 149c110 0 201 -66 201 -216c0 -171 -119 -234 -227 -234c-97 0 -160 51 -209 114zM537 250c37 -56 80 -100 150 -100s111 44 111 110
c0 72 -48 116 -107 116c-67 0 -110 -58 -154 -126zM416 229c-47 76 -86 147 -147 147c-39 0 -100 -28 -100 -111s61 -115 118 -115c58 0 96 33 129 79z" />
    <glyph glyph-name="estimated" unicode="&#x212e;" horiz-adv-x="888" 
d="M839 318h-638c25 -128 124 -220 267 -220c139 0 219 74 224 81l65 -96c-6 -6 -108 -101 -291 -101c-231 0 -407 178 -407 399c0 219 170 393 399 393c187 0 378 -121 381 -456zM198 427h507c-9 150 -117 231 -246 231c-150 0 -242 -112 -261 -231z" />
    <glyph glyph-name="schwa" unicode="&#x259;" horiz-adv-x="583" 
d="M36 247v49h388c-7 65 -66 125 -177 125c-78 0 -129 -32 -156 -53l-37 84c27 24 106 67 213 67c167 0 279 -104 279 -264c0 -156 -106 -270 -264 -270c-164 0 -246 122 -246 262zM423 201h-264c3 -66 47 -123 125 -123c69 0 130 44 139 123z" />
    <glyph glyph-name="integral" unicode="&#x222b;" horiz-adv-x="541" 
d="M212 -39v642c0 59 14 116 46 154c37 43 97 60 152 60c73 0 126 -30 134 -36l-46 -91c-11 8 -42 27 -82 27c-59 0 -87 -42 -87 -112v-642c0 -59 -14 -116 -46 -154c-37 -43 -97 -60 -152 -60c-73 0 -126 30 -134 36l46 91c11 -8 42 -27 82 -27c59 0 87 42 87 112z" />
    <glyph glyph-name="radical" unicode="&#x221a;" horiz-adv-x="730" 
d="M264 -291l-259 590h125l135 -322l346 819h130z" />
    <glyph glyph-name="partialdiff" unicode="&#x2202;" horiz-adv-x="642" 
d="M182 768l94 51c128 -118 307 -331 307 -575c0 -142 -111 -262 -266 -262c-164 0 -270 125 -270 254c0 147 128 259 253 259c45 0 89 -14 127 -46c-29 77 -140 226 -245 319zM316 80c82 0 145 62 145 156c0 84 -58 161 -146 161c-98 0 -146 -76 -146 -163
c0 -72 51 -154 147 -154z" />
    <glyph glyph-name="lozenge" unicode="&#x25ca;" horiz-adv-x="630" 
d="M316 -52l-272 446l273 445l267 -446zM317 161l137 233l-137 232l-139 -232z" />
    <glyph glyph-name="Delta" unicode="&#x2206;" horiz-adv-x="842" 
d="M808 0h-774l388 788zM611 116l-177 383c-5 9 -12 29 -13 38c-3 -9 -10 -28 -15 -38l-176 -383h381z" />
    <glyph glyph-name="Omega" unicode="&#x2126;" horiz-adv-x="925" 
d="M846 0h-329v131c144 35 223 139 223 255c0 141 -118 272 -277 272c-160 0 -279 -131 -279 -265c0 -115 88 -231 232 -265v-128h-332v116l200 -17c-131 39 -226 154 -226 300c0 201 180 375 406 375c223 0 402 -168 402 -374c0 -148 -92 -260 -228 -301l208 27v-126z" />
    <glyph glyph-name="summation" unicode="&#x2211;" horiz-adv-x="702" 
d="M645 1h-600l310 377l-310 378h568v-115h-323l222 -263l-223 -262h356v-115z" />
    <glyph glyph-name="product" unicode="&#x220f;" horiz-adv-x="802" 
d="M708 0h-128v640h-358v-640h-128v756h614v-756z" />
    <glyph glyph-name="pi" unicode="&#x3c0;" horiz-adv-x="609" 
d="M535 0h-117v408h-227v-408h-117v504h461v-504z" />
    <glyph glyph-name="mu" unicode="&#xb5;" horiz-adv-x="590" 
d="M530 0h-118v43c-32 -38 -77 -58 -120 -58c-35 0 -70 13 -95 39v-279h-118v760h118v-377c23 -27 64 -45 105 -45c56 0 110 33 110 122v300h118v-505z" />
    <glyph glyph-name="uni01C0" unicode="&#x1c0;" horiz-adv-x="290" 
d="M209 0h-128v757h128v-757z" />
    <glyph glyph-name="uni01C1" unicode="&#x1c1;" horiz-adv-x="526" 
d="M209 0h-128v757h128v-757zM445 0h-128v757h128v-757z" />
    <glyph glyph-name="uni01C2" unicode="&#x1c2;" horiz-adv-x="608" 
d="M358 0h-128v211h-180v114h180v141h-180v115h180v176h128v-176h199v-115h-199v-141h199v-114h-199v-211z" />
    <glyph glyph-name="uni01C3" unicode="&#x1c3;" horiz-adv-x="254" 
d="M191 214h-128v542h128v-542zM126 -14c-38 0 -72 33 -72 74c0 38 34 71 72 71c42 0 73 -33 73 -71c0 -41 -31 -74 -73 -74z" />
    <glyph glyph-name="acute" unicode="&#xb4;" horiz-adv-x="368" 
d="M318 746l-192 -163l-76 50l168 186z" />
    <glyph glyph-name="grave" unicode="`" horiz-adv-x="368" 
d="M318 633l-76 -50l-192 163l100 73z" />
    <glyph glyph-name="tilde" unicode="&#x2dc;" horiz-adv-x="519" 
d="M420 740l49 -79c-28 -28 -82 -78 -139 -78c-58 0 -90 49 -134 49c-33 0 -60 -28 -88 -50l-58 73c28 25 97 78 149 78s86 -51 127 -51c37 0 78 40 94 58z" />
    <glyph glyph-name="dieresis" unicode="&#xa8;" horiz-adv-x="479" 
d="M189 646c0 -35 -31 -64 -71 -64c-37 0 -68 29 -68 64c0 37 31 65 68 65c40 0 71 -28 71 -65zM429 646c0 -35 -27 -64 -70 -64c-39 0 -68 29 -68 64c0 37 29 65 68 65c43 0 70 -28 70 -65z" />
    <glyph glyph-name="circumflex" unicode="&#x2c6;" horiz-adv-x="474" 
d="M362 572l-125 93l-123 -93l-64 71l188 136l186 -136z" />
    <glyph glyph-name="caron" unicode="&#x2c7;" horiz-adv-x="473" 
d="M424 714l-186 -136l-188 136l64 71l123 -93l125 93z" />
    <glyph glyph-name="cedilla" unicode="&#xb8;" horiz-adv-x="327" 
d="M167 -244h-101l74 205h139z" />
    <glyph glyph-name="breve" unicode="&#x2d8;" horiz-adv-x="454" 
d="M296 755h108c-5 -76 -60 -172 -181 -172c-87 0 -164 59 -173 172h111c0 -14 6 -83 61 -83c69 0 74 76 74 83z" />
    <glyph glyph-name="hungarumlaut" unicode="&#x2dd;" horiz-adv-x="594" 
d="M312 713l-216 -131l-46 57l191 164zM544 713l-216 -131l-46 57l191 164z" />
    <glyph glyph-name="macron" unicode="&#xaf;" horiz-adv-x="525" 
d="M476 600h-427v99h427v-99z" />
    <glyph glyph-name="commaaccent" unicode="&#xf6c3;" horiz-adv-x="327" 
d="M167 -244h-101l74 205h139z" />
    <glyph glyph-name="dotaccent" unicode="&#x2d9;" horiz-adv-x="245" 
d="M195 654c0 -38 -31 -71 -73 -71c-38 0 -72 33 -72 71c0 41 34 74 72 74c42 0 73 -33 73 -74z" />
    <glyph glyph-name="ring" unicode="&#x2da;" horiz-adv-x="349" 
d="M299 704c0 -67 -55 -121 -124 -121c-70 0 -125 54 -125 121c0 68 56 121 125 121s124 -56 124 -121zM227 704c0 28 -24 53 -52 53s-50 -25 -50 -53s22 -52 50 -52s52 24 52 52z" />
    <glyph glyph-name="ogonek" unicode="&#x2db;" horiz-adv-x="458" 
d="M428 -115v-78c-40 -24 -82 -34 -119 -34c-77 0 -121 44 -121 99c0 50 37 110 121 152h79c-76 -56 -99 -102 -99 -135c0 -22 20 -29 45 -29c34 0 77 14 94 25z" />
    <glyph glyph-name="grave.cap" horiz-adv-x="449" 
d="M368 829l-318 49l47 105l302 -69z" />
    <glyph glyph-name="acute.cap" horiz-adv-x="449" 
d="M399 879l-318 -49l-31 84l302 69z" />
    <glyph glyph-name="circumflex.cap" horiz-adv-x="534" 
d="M425 808l-160 59l-167 -59l-48 72l216 101l218 -105z" />
    <glyph glyph-name="caron.cap" horiz-adv-x="520" 
d="M484 903l-218 -105l-216 103l48 72l167 -62l160 60z" />
    <glyph glyph-name="tilde.cap" horiz-adv-x="533" 
d="M427 980l56 -84c-28 -25 -89 -73 -146 -73c-58 0 -90 49 -134 49c-33 0 -70 -28 -98 -50l-55 77c28 25 104 74 156 74s86 -51 127 -51c37 0 78 40 94 58z" />
    <glyph glyph-name="paragraph" unicode="&#xb6;" horiz-adv-x="585" 
d="M485 -155h-117v912h117v-912zM308 754v-495c-164 -5 -265 118 -265 237c0 123 101 258 265 258z" />
    <glyph glyph-name="sterling.dnom" horiz-adv-x="455" 
d="M422 98l9 -86c-18 -9 -64 -22 -111 -22c-38 0 -74 17 -115 17c-42 0 -137 -36 -146 -40l-36 81c7 4 59 28 96 37v79h-65v76h65v79c0 92 64 132 146 132c55 0 93 -30 107 -43l-50 -69c-5 7 -22 26 -45 26c-28 0 -43 -17 -43 -47v-78h110v-76h-110v-71c5 1 22 1 27 1
c29 0 55 -17 87 -17c24 0 59 14 74 21z" />
    <glyph glyph-name="yen.dnom" horiz-adv-x="533" 
d="M466 41h-144v-45h-113v45h-141v72h141v43h-141v72h103l-149 205h126l115 -156c3 -4 3 -7 4 -17c0 10 1 13 4 17l115 156h125l-152 -205h107v-72h-144v-43h144v-72z" />
    <glyph glyph-name="dollar.dnom" horiz-adv-x="403" 
d="M171 -89l-66 4l19 85c-47 13 -84 38 -104 57l55 76c16 -14 41 -29 70 -39l26 114c-56 25 -119 53 -119 131c0 86 78 134 157 134c8 0 15 -1 22 -2l18 78l65 -3l-21 -92c36 -16 59 -37 64 -42l-50 -80c-11 10 -23 19 -36 26l-18 -82c57 -26 120 -59 120 -144
c0 -99 -86 -144 -172 -144c-4 0 -9 1 -13 1zM230 176l-20 -92c35 2 48 18 48 42c0 22 -11 37 -28 50zM193 304l17 74c-23 -1 -45 -13 -45 -35c0 -16 11 -28 28 -39z" />
    <glyph glyph-name="cent.dnom" horiz-adv-x="392" 
d="M248 1h-71v54c-87 17 -153 80 -153 164c0 89 81 138 153 147v93h71v-92c46 -7 97 -36 109 -47l-39 -67c-12 9 -44 31 -70 32v-145c31 0 63 15 77 26l32 -65c-13 -12 -46 -34 -109 -43v-57zM177 142v144c-35 -4 -63 -34 -63 -71c0 -38 21 -68 63 -73z" />
    <glyph glyph-name="Euro.dnom" horiz-adv-x="485" 
d="M415 107l40 -81c-8 -5 -65 -36 -137 -36c-110 0 -190 62 -219 156h-75l24 66h39c-1 6 -1 21 -1 21s0 13 1 19h-58l24 66h46c29 94 104 154 213 154c57 0 110 -22 145 -43l-48 -73c-11 5 -63 27 -102 27c-42 0 -76 -17 -99 -65c56 0 134 1 178 1l-22 -67h-174
c-2 -6 -2 -13 -2 -20s0 -14 2 -20h184l-21 -66h-144c22 -45 59 -67 109 -67c43 0 92 26 97 28z" />
    <glyph glyph-name="parenleft.dnom" horiz-adv-x="222" 
d="M192 -112l-84 -32c-43 93 -70 207 -70 318c0 126 32 247 69 331l86 -34c-23 -56 -57 -177 -57 -295c0 -101 24 -192 56 -288z" />
    <glyph glyph-name="parenright.dnom" horiz-adv-x="220" 
d="M114 -144l-84 32c32 96 56 188 56 288c0 118 -35 239 -57 295l86 34c37 -83 67 -204 67 -331c0 -111 -25 -225 -68 -318z" />
    <glyph glyph-name="minus.dnom" horiz-adv-x="518" 
d="M465 159h-412v90h412v-90z" />
    <glyph glyph-name="plus.dnom" horiz-adv-x="474" 
d="M443 159h-158v-134h-96v134h-158v90h158v137h96v-137h158v-90z" />
    <glyph glyph-name="comma.dnom" horiz-adv-x="227" 
d="M86 -67h-72l60 164h115z" />
    <glyph glyph-name="hyphen.dnom" horiz-adv-x="285" 
d="M216 111h-165l18 91h164z" />
    <glyph glyph-name="period.dnom" horiz-adv-x="203" 
d="M163 50c0 -29 -27 -60 -62 -60c-33 0 -61 31 -61 60c0 32 28 59 61 59c35 0 62 -27 62 -59z" />
    <glyph glyph-name="divide.dnom" horiz-adv-x="484" 
d="M448 159h-412v90h412v-90zM300 71c0 -29 -23 -53 -59 -53c-31 0 -57 24 -57 53s27 52 57 52c36 0 59 -24 59 -52zM300 337c0 -27 -23 -51 -59 -51c-31 0 -57 24 -57 51c0 29 26 54 57 54c37 0 59 -25 59 -54z" />
    <glyph glyph-name="equal.dnom" horiz-adv-x="518" 
d="M465 75h-412v91h412v-91zM465 243h-412v90h412v-90z" />
    <glyph glyph-name="bracketleft.dnom" horiz-adv-x="273" 
d="M241 -120h-184v615h184v-81h-91v-454h91v-80z" />
    <glyph glyph-name="multiply.dnom" horiz-adv-x="442" 
d="M404 86l-66 -52l-116 103l-114 -102l-70 50l121 107l-118 106l66 53l115 -103l116 102l65 -52l-119 -106z" />
    <glyph glyph-name="bracketright.dnom" horiz-adv-x="273" 
d="M216 -120h-184v80h87v456h-87v79h184v-615z" />
    <glyph glyph-name="zero.dnom" horiz-adv-x="468" 
d="M233 -12c-165 0 -194 139 -194 234c0 93 28 232 194 232c167 0 196 -132 196 -232c0 -98 -30 -234 -196 -234zM233 80c72 0 79 96 79 142c0 51 -9 142 -79 142c-69 0 -77 -89 -77 -142c0 -46 9 -142 77 -142z" />
    <glyph glyph-name="zero_slash.dnom" horiz-adv-x="468" 
d="M233 -12c-165 0 -194 139 -194 234c0 93 28 232 194 232c167 0 196 -132 196 -232c0 -98 -30 -234 -196 -234zM166 126l96 237c-9 4 -18 6 -29 6c-74 0 -82 -89 -82 -147c0 -27 2 -65 15 -96zM303 315l-95 -236c7 -3 15 -4 25 -4c77 0 84 96 84 147c0 27 -3 63 -14 93z
" />
    <glyph glyph-name="one.dnom" horiz-adv-x="301" 
d="M240 -2h-111v324l-75 -28l-42 85l228 81v-462z" />
    <glyph glyph-name="two.dnom" horiz-adv-x="452" 
d="M418 0h-404c76 52 265 206 265 305c0 39 -30 58 -62 58c-39 0 -79 -28 -98 -48l-53 73c28 24 87 66 167 66c98 0 163 -63 163 -143c0 -101 -112 -195 -167 -230l189 10v-91z" />
    <glyph glyph-name="three.dnom" horiz-adv-x="396" 
d="M275 247v-1c59 -22 85 -78 85 -122c0 -74 -73 -136 -187 -136c-85 0 -139 35 -157 51l49 77c15 -16 65 -37 108 -37c52 0 76 30 76 61c0 44 -50 68 -115 68c-8 0 -15 0 -23 -1v63c7 0 8 -1 19 -1c50 0 94 20 94 57c0 25 -21 38 -51 38c-31 0 -64 -15 -77 -23l-33 80
c20 16 73 33 127 33c91 0 148 -48 148 -113c0 -30 -12 -68 -63 -94z" />
    <glyph glyph-name="four.dnom" horiz-adv-x="466" 
d="M366 -5h-106v75h-239v69l271 312h74v-294h73v-87h-73v-75zM264 151v145l-126 -145h126z" />
    <glyph glyph-name="five.dnom" horiz-adv-x="404" 
d="M21 32l35 91c18 -14 55 -39 108 -39c51 0 84 24 84 67c0 35 -22 69 -94 69c-21 0 -49 -3 -98 -17l68 241h234l-29 -87h-131l-23 -67c11 1 19 2 30 2c90 0 166 -63 166 -151c0 -75 -55 -152 -185 -152c-80 0 -142 29 -165 43z" />
    <glyph glyph-name="six.dnom" horiz-adv-x="425" 
d="M242 474l75 -62c-45 -36 -113 -103 -132 -128c20 9 41 13 62 13c80 0 156 -62 156 -149c0 -89 -78 -160 -186 -160c-109 0 -184 72 -184 169c0 138 189 306 209 317zM287 145c0 35 -27 67 -71 67c-42 0 -71 -30 -71 -67c0 -38 32 -65 72 -65c41 0 70 29 70 65z" />
    <glyph glyph-name="seven.dnom" horiz-adv-x="426" 
d="M157 -7h-130l227 353h-213v95h381z" />
    <glyph glyph-name="eight.dnom" horiz-adv-x="448" 
d="M335 232c31 -15 73 -48 73 -103c0 -77 -82 -140 -182 -140c-101 0 -186 63 -186 135c0 53 46 92 73 106c-9 3 -69 40 -69 104c0 72 79 133 181 133c100 0 179 -58 179 -133c0 -53 -39 -92 -69 -102zM291 136c0 27 -28 53 -67 53c-38 0 -69 -24 -69 -53
c0 -30 31 -56 68 -56c38 0 68 27 68 56zM291 323c0 28 -28 53 -67 53c-37 0 -68 -24 -68 -52c0 -27 29 -54 69 -54c38 0 66 25 66 53z" />
    <glyph glyph-name="nine.dnom" horiz-adv-x="425" 
d="M183 -32l-75 62c45 36 113 103 132 128c-20 -9 -41 -13 -62 -13c-80 0 -156 62 -156 149c0 89 78 160 186 160c109 0 184 -72 184 -159c0 -138 -189 -316 -209 -327zM280 297c0 38 -32 65 -72 65c-41 0 -70 -29 -70 -65c0 -35 27 -67 71 -67c42 0 71 30 71 67z" />
    <glyph glyph-name="braceleft.dnom" horiz-adv-x="298" 
d="M272 -34l-24 -80c-98 9 -157 33 -157 130v79c0 35 -18 63 -91 96c73 33 91 61 91 96v79c0 97 59 121 157 130l24 -80c-69 -10 -82 -33 -82 -65v-71c0 -39 -7 -63 -40 -89c33 -26 40 -50 40 -89v-71c0 -32 13 -55 82 -65z" />
    <glyph glyph-name="braceright.dnom" horiz-adv-x="298" 
d="M50 -114l-24 80c69 10 82 33 82 65v71c0 39 7 63 40 89c-33 26 -40 50 -40 89v71c0 32 -13 55 -82 65l24 80c98 -9 157 -33 157 -130v-79c0 -35 18 -63 91 -96c-73 -33 -91 -61 -91 -96v-79c0 -97 -59 -121 -157 -130z" />
    <glyph glyph-name="sterling.sup" horiz-adv-x="455" 
d="M420 428l9 -86c-18 -9 -64 -22 -111 -22c-38 0 -74 17 -115 17c-42 0 -137 -36 -146 -40l-36 81c7 4 59 28 96 37v79h-65v76h65v79c0 92 64 132 146 132c55 0 93 -30 107 -43l-50 -69c-5 7 -22 26 -45 26c-28 0 -43 -17 -43 -47v-78h110v-76h-110v-71c5 1 22 1 27 1
c29 0 55 -17 87 -17c24 0 59 14 74 21z" />
    <glyph glyph-name="yen.sup" horiz-adv-x="531" 
d="M465 371h-144v-45h-113v45h-141v72h141v43h-141v72h103l-149 205h126l115 -156c3 -4 3 -7 4 -17c0 10 1 13 4 17l115 156h125l-152 -205h107v-72h-144v-43h144v-72z" />
    <glyph glyph-name="dollar.sup" horiz-adv-x="403" 
d="M171 241l-66 4l19 85c-47 13 -84 38 -104 57l55 76c16 -14 41 -29 70 -39l26 114c-56 25 -119 53 -119 131c0 86 78 134 157 134c8 0 15 -1 22 -2l18 78l65 -3l-21 -92c36 -16 59 -37 64 -42l-50 -80c-11 10 -23 19 -36 26l-18 -82c57 -26 120 -59 120 -144
c0 -99 -86 -144 -172 -144c-4 0 -9 1 -13 1zM230 506l-20 -92c35 2 48 18 48 42c0 22 -11 37 -28 50zM193 634l17 74c-23 -1 -45 -13 -45 -35c0 -16 11 -28 28 -39z" />
    <glyph glyph-name="cent.sup" horiz-adv-x="399" 
d="M255 330h-71v54c-87 17 -153 80 -153 164c0 89 81 138 153 147v93h71v-92c46 -7 97 -36 109 -47l-39 -67c-12 9 -44 31 -70 32v-145c31 0 63 15 77 26l32 -65c-13 -12 -46 -34 -109 -43v-57zM184 471v144c-35 -4 -63 -34 -63 -71c0 -38 21 -68 63 -73z" />
    <glyph glyph-name="Euro.sup" horiz-adv-x="485" 
d="M414 437l40 -81c-8 -5 -65 -36 -137 -36c-110 0 -190 62 -219 156h-75l24 66h39c-1 6 -1 21 -1 21s0 13 1 19h-58l24 66h46c29 94 104 154 213 154c57 0 110 -22 145 -43l-48 -73c-11 5 -63 27 -102 27c-42 0 -76 -17 -99 -65c56 0 134 1 178 1l-22 -67h-174
c-2 -6 -2 -13 -2 -20s0 -14 2 -20h184l-21 -66h-144c22 -45 59 -67 109 -67c43 0 92 26 97 28z" />
    <glyph glyph-name="parenleft.sup" horiz-adv-x="222" 
d="M192 218l-84 -32c-43 93 -70 207 -70 318c0 126 32 247 69 331l86 -34c-23 -56 -57 -177 -57 -295c0 -101 24 -192 56 -288z" />
    <glyph glyph-name="parenright.sup" horiz-adv-x="220" 
d="M114 186l-84 32c32 96 56 188 56 288c0 118 -35 239 -57 295l86 34c37 -83 67 -204 67 -331c0 -111 -25 -225 -68 -318z" />
    <glyph glyph-name="minus.sup" horiz-adv-x="518" 
d="M465 489h-412v90h412v-90z" />
    <glyph glyph-name="plus.sup" horiz-adv-x="474" 
d="M443 489h-158v-134h-96v134h-158v90h158v137h96v-137h158v-90z" />
    <glyph glyph-name="comma.sup" horiz-adv-x="231" 
d="M93 263h-72l60 164h115z" />
    <glyph glyph-name="hyphen.sup" horiz-adv-x="287" 
d="M217 441h-165l18 91h164z" />
    <glyph glyph-name="period.sup" horiz-adv-x="205" 
d="M164 380c0 -29 -27 -60 -62 -60c-33 0 -61 31 -61 60c0 32 28 59 61 59c35 0 62 -27 62 -59z" />
    <glyph glyph-name="divide.sup" horiz-adv-x="484" 
d="M448 489h-412v90h412v-90zM300 401c0 -29 -23 -53 -59 -53c-31 0 -57 24 -57 53s27 52 57 52c36 0 59 -24 59 -52zM300 667c0 -27 -23 -51 -59 -51c-31 0 -57 24 -57 51c0 29 26 54 57 54c37 0 59 -25 59 -54z" />
    <glyph glyph-name="equal.sup" horiz-adv-x="518" 
d="M465 405h-412v91h412v-91zM465 573h-412v90h412v-90z" />
    <glyph glyph-name="bracketleft.sup" horiz-adv-x="273" 
d="M241 210h-184v615h184v-81h-91v-454h91v-80z" />
    <glyph glyph-name="multiply.sup" horiz-adv-x="443" 
d="M404 416l-66 -52l-116 103l-114 -102l-70 50l121 107l-118 106l66 53l115 -103l116 102l65 -52l-119 -106z" />
    <glyph glyph-name="bracketright.sup" horiz-adv-x="273" 
d="M216 210h-184v80h87v456h-87v79h184v-615z" />
    <glyph glyph-name="zero.sup" horiz-adv-x="468" 
d="M233 318c-165 0 -194 139 -194 234c0 93 28 232 194 232c167 0 196 -132 196 -232c0 -98 -30 -234 -196 -234zM233 410c72 0 79 96 79 142c0 51 -9 142 -79 142c-69 0 -77 -89 -77 -142c0 -46 9 -142 77 -142z" />
    <glyph glyph-name="zero_slash.sup" horiz-adv-x="468" 
d="M233 318c-165 0 -194 139 -194 234c0 93 28 232 194 232c167 0 196 -132 196 -232c0 -98 -30 -234 -196 -234zM166 456l96 237c-9 4 -18 6 -29 6c-74 0 -82 -89 -82 -147c0 -27 2 -65 15 -96zM303 645l-95 -236c7 -3 15 -4 25 -4c77 0 84 96 84 147c0 27 -3 63 -14 93z
" />
    <glyph glyph-name="one.sup" horiz-adv-x="300" 
d="M239 328h-111v324l-75 -28l-42 85l228 81v-462z" />
    <glyph glyph-name="two.sup" horiz-adv-x="457" 
d="M421 330h-404c76 52 265 206 265 305c0 39 -30 58 -62 58c-39 0 -79 -28 -98 -48l-53 73c28 24 87 66 167 66c98 0 163 -63 163 -143c0 -101 -112 -195 -167 -230l189 10v-91z" />
    <glyph glyph-name="three.sup" horiz-adv-x="397" 
d="M276 577v-1c59 -22 85 -78 85 -122c0 -74 -73 -136 -187 -136c-85 0 -139 35 -157 51l49 77c15 -16 65 -37 108 -37c52 0 76 30 76 61c0 44 -50 68 -115 68c-8 0 -15 0 -23 -1v63c7 0 8 -1 19 -1c50 0 94 20 94 57c0 25 -21 38 -51 38c-31 0 -64 -15 -77 -23l-33 80
c20 16 73 33 127 33c91 0 148 -48 148 -113c0 -30 -12 -68 -63 -94z" />
    <glyph glyph-name="four.sup" horiz-adv-x="467" 
d="M367 325h-106v75h-239v69l271 312h74v-294h73v-87h-73v-75zM265 481v145l-126 -145h126z" />
    <glyph glyph-name="five.sup" horiz-adv-x="403" 
d="M21 362l35 91c18 -14 55 -39 108 -39c51 0 84 24 84 67c0 35 -22 69 -94 69c-21 0 -49 -3 -98 -17l68 241h234l-29 -87h-131l-23 -67c11 1 19 2 30 2c90 0 166 -63 166 -151c0 -75 -55 -152 -185 -152c-80 0 -142 29 -165 43z" />
    <glyph glyph-name="six.sup" horiz-adv-x="425" 
d="M242 804l75 -62c-45 -36 -113 -103 -132 -128c20 9 41 13 62 13c80 0 156 -62 156 -149c0 -89 -78 -160 -186 -160c-109 0 -184 72 -184 169c0 138 189 306 209 317zM287 475c0 35 -27 67 -71 67c-42 0 -71 -30 -71 -67c0 -38 32 -65 72 -65c41 0 70 29 70 65z" />
    <glyph glyph-name="seven.sup" horiz-adv-x="422" 
d="M159 323h-130l227 353h-213v95h381z" />
    <glyph glyph-name="eight.sup" horiz-adv-x="448" 
d="M335 562c31 -15 73 -48 73 -103c0 -77 -82 -140 -182 -140c-101 0 -186 63 -186 135c0 53 46 92 73 106c-9 3 -69 40 -69 104c0 72 79 133 181 133c100 0 179 -58 179 -133c0 -53 -39 -92 -69 -102zM291 466c0 27 -28 53 -67 53c-38 0 -69 -24 -69 -53
c0 -30 31 -56 68 -56c38 0 68 27 68 56zM291 653c0 28 -28 53 -67 53c-37 0 -68 -24 -68 -52c0 -27 29 -54 69 -54c38 0 66 25 66 53z" />
    <glyph glyph-name="nine.sup" horiz-adv-x="425" 
d="M183 298l-75 62c45 36 113 103 132 128c-20 -9 -41 -13 -62 -13c-80 0 -156 62 -156 149c0 89 78 160 186 160c109 0 184 -72 184 -159c0 -138 -189 -316 -209 -327zM280 627c0 38 -32 65 -72 65c-41 0 -70 -29 -70 -65c0 -35 27 -67 71 -67c42 0 71 30 71 67z" />
    <glyph glyph-name="braceleft.sup" horiz-adv-x="303" 
d="M277 296l-24 -80c-98 9 -157 33 -157 130v79c0 35 -18 63 -91 96c73 33 91 61 91 96v79c0 97 59 121 157 130l24 -80c-69 -10 -82 -33 -82 -65v-71c0 -39 -7 -63 -40 -89c33 -26 40 -50 40 -89v-71c0 -32 13 -55 82 -65z" />
    <glyph glyph-name="braceright.sup" horiz-adv-x="303" 
d="M50 216l-24 80c69 10 82 33 82 65v71c0 39 7 63 40 89c-33 26 -40 50 -40 89v71c0 32 -13 55 -82 65l24 80c98 -9 157 -33 157 -130v-79c0 -35 18 -63 91 -96c-73 -33 -91 -61 -91 -96v-79c0 -97 -59 -121 -157 -130z" />
    <glyph glyph-name="sterling.sinf" horiz-adv-x="453" 
d="M420 -92l9 -86c-18 -9 -64 -22 -111 -22c-38 0 -74 17 -115 17c-42 0 -137 -36 -146 -40l-36 81c7 4 59 28 96 37v79h-65v76h65v79c0 92 64 132 146 132c55 0 93 -30 107 -43l-50 -69c-5 7 -22 26 -45 26c-28 0 -43 -17 -43 -47v-78h110v-76h-110v-71c5 1 22 1 27 1
c29 0 55 -17 87 -17c24 0 59 14 74 21z" />
    <glyph glyph-name="yen.sinf" horiz-adv-x="532" 
d="M465 -149h-144v-45h-113v45h-141v72h141v43h-141v72h103l-149 205h126l115 -156c3 -4 3 -7 4 -17c0 10 1 13 4 17l115 156h125l-152 -205h107v-72h-144v-43h144v-72z" />
    <glyph glyph-name="dollar.sinf" horiz-adv-x="403" 
d="M171 -279l-66 4l19 85c-47 13 -84 38 -104 57l55 76c16 -14 41 -29 70 -39l26 114c-56 25 -119 53 -119 131c0 86 78 134 157 134c8 0 15 -1 22 -2l18 78l65 -3l-21 -92c36 -16 59 -37 64 -42l-50 -80c-11 10 -23 19 -36 26l-18 -82c57 -26 120 -59 120 -144
c0 -99 -86 -144 -172 -144c-4 0 -9 1 -13 1zM230 -14l-20 -92c35 2 48 18 48 42c0 22 -11 37 -28 50zM193 114l17 74c-23 -1 -45 -13 -45 -35c0 -16 11 -28 28 -39z" />
    <glyph glyph-name="cent.sinf" horiz-adv-x="399" 
d="M255 -190h-71v54c-87 17 -153 80 -153 164c0 89 81 138 153 147v93h71v-92c46 -7 97 -36 109 -47l-39 -67c-12 9 -44 31 -70 32v-145c31 0 63 15 77 26l32 -65c-13 -12 -46 -34 -109 -43v-57zM184 -49v144c-35 -4 -63 -34 -63 -71c0 -38 21 -68 63 -73z" />
    <glyph glyph-name="Euro.sinf" horiz-adv-x="484" 
d="M414 -83l40 -81c-8 -5 -65 -36 -137 -36c-110 0 -190 62 -219 156h-75l24 66h39c-1 6 -1 21 -1 21s0 13 1 19h-58l24 66h46c29 94 104 154 213 154c57 0 110 -22 145 -43l-48 -73c-11 5 -63 27 -102 27c-42 0 -76 -17 -99 -65c56 0 134 1 178 1l-22 -67h-174
c-2 -6 -2 -13 -2 -20s0 -14 2 -20h184l-21 -66h-144c22 -45 59 -67 109 -67c43 0 92 26 97 28z" />
    <glyph glyph-name="parenleft.sinf" unicode="&#x208d;" horiz-adv-x="222" 
d="M192 -302l-84 -32c-43 93 -70 207 -70 318c0 126 32 247 69 331l86 -34c-23 -56 -57 -177 -57 -295c0 -101 24 -192 56 -288z" />
    <glyph glyph-name="parenright.sinf" unicode="&#x208e;" horiz-adv-x="220" 
d="M114 -334l-84 32c32 96 56 188 56 288c0 118 -35 239 -57 295l86 34c37 -83 67 -204 67 -331c0 -111 -25 -225 -68 -318z" />
    <glyph glyph-name="minus.sinf" horiz-adv-x="518" 
d="M465 -31h-412v90h412v-90z" />
    <glyph glyph-name="plus.sinf" horiz-adv-x="474" 
d="M443 -31h-158v-134h-96v134h-158v90h158v137h96v-137h158v-90z" />
    <glyph glyph-name="comma.sinf" horiz-adv-x="230" 
d="M86 -257h-72l60 164h115z" />
    <glyph glyph-name="hyphen.sinf" horiz-adv-x="285" 
d="M216 -79h-165l18 91h164z" />
    <glyph glyph-name="period.sinf" horiz-adv-x="205" 
d="M164 -140c0 -29 -27 -60 -62 -60c-33 0 -61 31 -61 60c0 32 28 59 61 59c35 0 62 -27 62 -59z" />
    <glyph glyph-name="divide.sinf" horiz-adv-x="484" 
d="M448 -31h-412v90h412v-90zM300 -119c0 -29 -23 -53 -59 -53c-31 0 -57 24 -57 53s27 52 57 52c36 0 59 -24 59 -52zM300 147c0 -27 -23 -51 -59 -51c-31 0 -57 24 -57 51c0 29 26 54 57 54c37 0 59 -25 59 -54z" />
    <glyph glyph-name="equal.sinf" horiz-adv-x="518" 
d="M465 -115h-412v91h412v-91zM465 53h-412v90h412v-90z" />
    <glyph glyph-name="bracketleft.sinf" horiz-adv-x="273" 
d="M241 -310h-184v615h184v-81h-91v-454h91v-80z" />
    <glyph glyph-name="multiply.sinf" horiz-adv-x="441" 
d="M403 -104l-66 -52l-116 103l-114 -102l-70 50l121 107l-118 106l66 53l115 -103l116 102l65 -52l-119 -106z" />
    <glyph glyph-name="bracketright.sinf" horiz-adv-x="273" 
d="M216 -310h-184v80h87v456h-87v79h184v-615z" />
    <glyph glyph-name="zero.sinf" unicode="&#x2080;" horiz-adv-x="468" 
d="M233 -202c-165 0 -194 139 -194 234c0 93 28 232 194 232c167 0 196 -132 196 -232c0 -98 -30 -234 -196 -234zM233 -110c72 0 79 96 79 142c0 51 -9 142 -79 142c-69 0 -77 -89 -77 -142c0 -46 9 -142 77 -142z" />
    <glyph glyph-name="zero_slash.sinf" horiz-adv-x="468" 
d="M233 -202c-165 0 -194 139 -194 234c0 93 28 232 194 232c167 0 196 -132 196 -232c0 -98 -30 -234 -196 -234zM166 -64l96 237c-9 4 -18 6 -29 6c-74 0 -82 -89 -82 -147c0 -27 2 -65 15 -96zM303 125l-95 -236c7 -3 15 -4 25 -4c77 0 84 96 84 147c0 27 -3 63 -14 93z
" />
    <glyph glyph-name="one.sinf" unicode="&#x2081;" horiz-adv-x="300" 
d="M239 -192h-111v324l-75 -28l-42 85l228 81v-462z" />
    <glyph glyph-name="two.sinf" unicode="&#x2082;" horiz-adv-x="450" 
d="M416 -190h-404c76 52 265 206 265 305c0 39 -30 58 -62 58c-39 0 -79 -28 -98 -48l-53 73c28 24 87 66 167 66c98 0 163 -63 163 -143c0 -101 -112 -195 -167 -230l189 10v-91z" />
    <glyph glyph-name="three.sinf" unicode="&#x2083;" horiz-adv-x="396" 
d="M275 57v-1c59 -22 85 -78 85 -122c0 -74 -73 -136 -187 -136c-85 0 -139 35 -157 51l49 77c15 -16 65 -37 108 -37c52 0 76 30 76 61c0 44 -50 68 -115 68c-8 0 -15 0 -23 -1v63c7 0 8 -1 19 -1c50 0 94 20 94 57c0 25 -21 38 -51 38c-31 0 -64 -15 -77 -23l-33 80
c20 16 73 33 127 33c91 0 148 -48 148 -113c0 -30 -12 -68 -63 -94z" />
    <glyph glyph-name="four.sinf" unicode="&#x2084;" horiz-adv-x="467" 
d="M367 -195h-106v75h-239v69l271 312h74v-294h73v-87h-73v-75zM265 -39v145l-126 -145h126z" />
    <glyph glyph-name="five.sinf" unicode="&#x2085;" horiz-adv-x="402" 
d="M19 -158l35 91c18 -14 55 -39 108 -39c51 0 84 24 84 67c0 35 -22 69 -94 69c-21 0 -49 -3 -98 -17l68 241h234l-29 -87h-131l-23 -67c11 1 19 2 30 2c90 0 166 -63 166 -151c0 -75 -55 -152 -185 -152c-80 0 -142 29 -165 43z" />
    <glyph glyph-name="six.sinf" unicode="&#x2086;" horiz-adv-x="425" 
d="M242 284l75 -62c-45 -36 -113 -103 -132 -128c20 9 41 13 62 13c80 0 156 -62 156 -149c0 -89 -78 -160 -186 -160c-109 0 -184 72 -184 169c0 138 189 306 209 317zM287 -45c0 35 -27 67 -71 67c-42 0 -71 -30 -71 -67c0 -38 32 -65 72 -65c41 0 70 29 70 65z" />
    <glyph glyph-name="seven.sinf" unicode="&#x2087;" horiz-adv-x="425" 
d="M157 -197h-130l227 353h-213v95h381z" />
    <glyph glyph-name="eight.sinf" unicode="&#x2088;" horiz-adv-x="448" 
d="M335 42c31 -15 73 -48 73 -103c0 -77 -82 -140 -182 -140c-101 0 -186 63 -186 135c0 54 46 92 73 106c-9 3 -69 40 -69 104c0 72 79 133 181 133c100 0 179 -58 179 -133c0 -53 -39 -92 -69 -102zM291 -54c0 27 -28 53 -67 53c-38 0 -69 -24 -69 -53
c0 -30 31 -56 68 -56c38 0 68 27 68 56zM291 133c0 28 -28 53 -67 53c-37 0 -68 -24 -68 -52c0 -27 29 -54 69 -54c38 0 66 25 66 53z" />
    <glyph glyph-name="nine.sinf" unicode="&#x2089;" horiz-adv-x="425" 
d="M183 -222l-75 62c45 36 113 103 132 128c-20 -9 -41 -13 -62 -13c-80 0 -156 62 -156 149c0 89 78 160 186 160c109 0 184 -72 184 -159c0 -138 -189 -316 -209 -327zM280 107c0 38 -32 65 -72 65c-41 0 -70 -29 -70 -65c0 -35 27 -67 71 -67c42 0 71 30 71 67z" />
    <glyph glyph-name="braceleft.sinf" horiz-adv-x="303" 
d="M277 -224l-24 -80c-98 9 -157 33 -157 130v79c0 35 -18 63 -91 96c73 33 91 61 91 96v79c0 97 59 121 157 130l24 -80c-69 -10 -82 -33 -82 -65v-71c0 -39 -7 -63 -40 -89c33 -26 40 -50 40 -89v-71c0 -32 13 -55 82 -65z" />
    <glyph glyph-name="braceright.sinf" horiz-adv-x="303" 
d="M50 -304l-24 80c69 10 82 33 82 65v71c0 39 7 63 40 89c-33 26 -40 50 -40 89v71c0 32 -13 55 -82 65l24 80c98 -9 157 -33 157 -130v-79c0 -35 18 -63 91 -96c-73 -33 -91 -61 -91 -96v-79c0 -97 -59 -121 -157 -130z" />
    <glyph glyph-name="zero.osf" horiz-adv-x="664" 
d="M612 260c0 -154 -125 -278 -280 -278s-280 124 -280 278c0 155 125 279 280 279s280 -124 280 -279zM501 259c0 92 -75 166 -168 166s-168 -74 -168 -166s75 -166 168 -166s168 74 168 166z" />
    <glyph glyph-name="zero_slash.osf" horiz-adv-x="664" 
d="M612 260c0 -154 -125 -278 -280 -278s-280 124 -280 278c0 155 125 279 280 279s280 -124 280 -279zM458 369l-184 -266c18 -7 38 -10 59 -10c93 0 168 74 168 166c0 42 -16 80 -43 110zM207 149l182 266c-17 6 -36 10 -56 10c-93 0 -168 -74 -168 -166
c0 -42 16 -81 42 -110z" />
    <glyph glyph-name="one.osf" horiz-adv-x="478" 
d="M446 0h-395l1 99l143 -1v303l-95 -35l-35 90l247 89v-446l134 1v-100z" />
    <glyph glyph-name="two.osf" horiz-adv-x="564" 
d="M516 0h-492v52c140 72 337 175 337 293c0 57 -46 106 -107 106c-62 0 -123 -49 -150 -81l-62 75c32 34 117 111 230 111c121 0 207 -89 207 -193c0 -133 -141 -231 -238 -274l275 14v-103z" />
    <glyph glyph-name="three.osf" horiz-adv-x="553" 
d="M18 -151l52 87c20 -24 88 -67 169 -67c100 0 147 66 147 133c0 86 -79 159 -192 159c-13 0 -16 -1 -23 -1v72c8 -1 15 -1 22 -1c96 0 160 57 160 123c0 50 -37 86 -102 86c-46 0 -97 -18 -124 -36l-37 87c27 19 99 55 179 55c128 0 206 -93 206 -185
c0 -51 -24 -116 -108 -160v-1c99 -41 139 -135 139 -210c0 -118 -99 -223 -266 -223c-125 0 -200 59 -222 82z" />
    <glyph glyph-name="four.osf" horiz-adv-x="691" 
d="M529 -211h-117v212h-400v18l503 581h14v-496h125v-103h-125v-212zM412 104v224l-198 -224h198z" />
    <glyph glyph-name="five.osf" horiz-adv-x="531" 
d="M19 -158l48 93c19 -27 95 -80 170 -80c71 0 136 48 136 129c0 107 -111 177 -276 213l100 308h279l-25 -105h-186l-44 -135c142 -34 265 -132 265 -276c0 -140 -116 -237 -254 -237c-113 0 -194 65 -213 90z" />
    <glyph glyph-name="six.osf" horiz-adv-x="635" 
d="M366 768l84 -75c-36 -36 -136 -140 -192 -232c32 11 64 16 94 16c129 0 236 -95 236 -244c0 -169 -137 -248 -271 -248s-266 89 -266 245c0 120 82 301 315 538zM321 88c83 0 138 66 138 144c0 77 -54 149 -140 149c-84 0 -142 -69 -142 -148c0 -84 65 -145 144 -145z
" />
    <glyph glyph-name="seven.osf" horiz-adv-x="554" 
d="M167 -212h-136l345 629h-328v105h511z" />
    <glyph glyph-name="eight.osf" horiz-adv-x="621" 
d="M445 364c57 -27 113 -81 113 -165c0 -118 -112 -215 -246 -215c-135 0 -249 97 -249 211c0 88 68 144 115 169c-55 25 -108 86 -108 166c0 118 114 204 244 204c129 0 238 -86 238 -204c0 -80 -51 -142 -107 -166zM431 202c0 61 -53 116 -121 116
c-67 0 -122 -53 -122 -115c0 -63 55 -118 122 -118s121 55 121 117zM429 520c0 62 -51 114 -118 114s-120 -53 -120 -113c0 -58 51 -113 121 -113c67 0 117 51 117 112z" />
    <glyph glyph-name="nine.osf" horiz-adv-x="590" 
d="M263 -268l-85 76c32 36 133 145 189 237c-32 -11 -64 -16 -94 -16c-129 0 -236 95 -236 244c0 169 137 248 271 248s266 -79 266 -235c0 -120 -78 -297 -311 -554zM306 125c84 0 142 69 142 148c0 84 -65 145 -144 145c-83 0 -138 -66 -138 -144c0 -77 54 -149 140 -149z
" />
    <glyph glyph-name="zero.tab" horiz-adv-x="660" 
d="M329 -16c-237 0 -278 229 -278 390c0 157 40 389 277 389c239 0 281 -221 281 -389c0 -165 -44 -390 -280 -390zM329 87c140 0 153 192 153 287c0 103 -17 287 -154 287c-134 0 -151 -178 -151 -287c0 -95 18 -287 152 -287z" />
    <glyph glyph-name="zero_slash.tab" horiz-adv-x="660" 
d="M329 -16c-237 0 -278 229 -278 390c0 157 40 389 277 389c239 0 281 -221 281 -389c0 -165 -44 -390 -280 -390zM203 177l191 472c-19 11 -40 17 -66 17c-139 0 -156 -178 -156 -292c0 -54 5 -134 31 -197zM459 565l-190 -468c17 -10 36 -15 60 -15
c145 0 158 192 158 292c0 55 -5 131 -28 191z" />
    <glyph glyph-name="one.tab" horiz-adv-x="660" 
d="M624 1h-576v116h234v499l-157 -71l-44 94l325 133v-655h218v-116z" />
    <glyph glyph-name="two.tab" horiz-adv-x="660" 
d="M591 0h-539v72c141 70 384 278 384 463c0 68 -46 126 -116 126c-73 0 -129 -48 -158 -82l-60 80c36 36 116 104 229 104c139 0 234 -101 234 -228c0 -165 -180 -341 -307 -437l333 6v-104z" />
    <glyph glyph-name="three.tab" horiz-adv-x="660" 
d="M70 66l52 87c20 -24 88 -67 169 -67c100 0 147 66 147 133c0 86 -79 159 -192 159c-13 0 -16 -1 -23 -1v72c8 -1 15 -1 22 -1c96 0 160 57 160 123c0 50 -37 86 -102 86c-46 0 -97 -18 -124 -36l-37 87c27 19 99 55 179 55c128 0 206 -93 206 -185
c0 -51 -24 -116 -108 -160v-1c99 -41 139 -135 139 -210c0 -118 -99 -223 -266 -223c-125 0 -200 59 -222 82z" />
    <glyph glyph-name="four.tab" horiz-adv-x="660" 
d="M512 -5h-124v127h-357v73l405 588h76v-558h107v-103h-107v-127zM395 225v325l-222 -325h222z" />
    <glyph glyph-name="five.tab" horiz-adv-x="660" 
d="M71 49l41 100c38 -30 94 -59 163 -59c106 0 162 70 162 154c0 77 -46 152 -175 152c-33 0 -75 -5 -135 -24l100 376h322l-31 -101h-205l-47 -170c19 3 35 4 49 4c141 0 254 -96 254 -242c0 -127 -86 -255 -272 -255c-111 0 -196 45 -226 65z" />
    <glyph glyph-name="six.tab" horiz-adv-x="660" 
d="M383 768l84 -75c-36 -36 -136 -140 -192 -232c32 11 64 16 94 16c129 0 236 -95 236 -244c0 -169 -137 -248 -271 -248s-266 89 -266 245c0 120 82 301 315 538zM338 88c83 0 138 66 138 144c0 77 -54 149 -140 149c-84 0 -142 -69 -142 -148c0 -84 65 -145 144 -145z
" />
    <glyph glyph-name="seven.tab" horiz-adv-x="660" 
d="M221 -9h-138l347 651h-346v105h528z" />
    <glyph glyph-name="eight.tab" horiz-adv-x="660" 
d="M464 379c52 -26 112 -82 112 -172c0 -124 -112 -223 -246 -223c-135 0 -248 100 -248 218c0 90 66 149 114 176c-54 27 -108 90 -108 174c0 124 117 212 245 212c129 0 238 -90 238 -212c0 -84 -51 -148 -107 -173zM329 85c67 0 121 58 121 124s-53 123 -121 123
s-123 -56 -123 -122c0 -67 55 -125 123 -125zM330 423c67 0 118 54 118 119s-51 120 -118 120c-68 0 -120 -55 -120 -118s51 -121 120 -121z" />
    <glyph glyph-name="nine.tab" horiz-adv-x="660" 
d="M280 -26l-85 76c32 36 133 145 189 237c-32 -11 -64 -16 -94 -16c-129 0 -236 95 -236 244c0 169 137 248 271 248s266 -79 266 -235c0 -120 -78 -297 -311 -554zM323 367c84 0 142 69 142 148c0 84 -65 145 -144 145c-83 0 -138 -66 -138 -144c0 -77 54 -149 140 -149z
" />
    <glyph glyph-name="IJ.alt" horiz-adv-x="596" 
d="M213 0h-128v757h128v-757zM255 -270l-25 111c130 45 153 93 153 237v679h128v-687c0 -215 -70 -270 -256 -340z" />
    <glyph glyph-name="J.alt" horiz-adv-x="298" 
d="M-43 -270l-25 111c130 45 153 93 153 237v679h128v-687c0 -215 -70 -270 -256 -340z" />
    <glyph glyph-name="Jcircumflex.alt" horiz-adv-x="298" 
d="M272 824l-125 93l-123 -93l-64 71l188 136l186 -136zM-43 -270l-25 111c130 45 153 93 153 237v679h128v-687c0 -215 -70 -270 -256 -340z" />
    <glyph glyph-name="Yacute.alt" horiz-adv-x="653" 
d="M390 0h-128v313l-277 444h143l194 -321c4 -7 5 -12 6 -27c1 14 3 19 8 27l194 321h142l-282 -444v-313zM504 873l-318 -49l-31 85l302 69z" />
    <glyph glyph-name="Ygrave.alt" horiz-adv-x="653" 
d="M390 0h-128v313l-277 444h143l194 -321c4 -7 5 -12 6 -27c1 14 3 19 8 27l194 321h142l-282 -444v-313zM472 824l-318 49l47 105l302 -69z" />
    <glyph glyph-name="a.alt" horiz-adv-x="593" 
d="M529 -2h-99l-11 58c-36 -49 -101 -71 -145 -71c-120 0 -237 101 -237 267c0 174 132 267 278 267c104 0 167 -26 214 -52v-469zM411 145v256c-20 9 -53 21 -92 21c-82 0 -158 -49 -158 -170c0 -72 41 -168 135 -168c54 0 95 28 115 61z" />
    <glyph glyph-name="aacute.alt" horiz-adv-x="593" 
d="M466 746l-192 -163l-76 50l168 186zM529 -2h-99l-11 58c-36 -49 -101 -71 -145 -71c-120 0 -237 101 -237 267c0 174 132 267 278 267c104 0 167 -26 214 -52v-469zM411 145v256c-20 9 -53 21 -92 21c-82 0 -158 -49 -158 -170c0 -72 41 -168 135 -168c54 0 95 28 115 61
z" />
    <glyph glyph-name="agrave.alt" horiz-adv-x="593" 
d="M417 633l-76 -50l-192 163l100 73zM529 -2h-99l-11 58c-36 -49 -101 -71 -145 -71c-120 0 -237 101 -237 267c0 174 132 267 278 267c104 0 167 -26 214 -52v-469zM411 145v256c-20 9 -53 21 -92 21c-82 0 -158 -49 -158 -170c0 -72 41 -168 135 -168c54 0 95 28 115 61z
" />
    <glyph glyph-name="adieresis.alt" horiz-adv-x="593" 
d="M255 646c0 -35 -31 -64 -71 -64c-37 0 -68 29 -68 64c0 37 31 65 68 65c40 0 71 -28 71 -65zM495 646c0 -35 -27 -64 -70 -64c-39 0 -68 29 -68 64c0 37 29 65 68 65c43 0 70 -28 70 -65zM529 -2h-99l-11 58c-36 -49 -101 -71 -145 -71c-120 0 -237 101 -237 267
c0 174 132 267 278 267c104 0 167 -26 214 -52v-469zM411 145v256c-20 9 -53 21 -92 21c-82 0 -158 -49 -158 -170c0 -72 41 -168 135 -168c54 0 95 28 115 61z" />
    <glyph glyph-name="acircumflex.alt" horiz-adv-x="593" 
d="M422 572l-125 93l-123 -93l-64 71l188 136l186 -136zM529 -2h-99l-11 58c-36 -49 -101 -71 -145 -71c-120 0 -237 101 -237 267c0 174 132 267 278 267c104 0 167 -26 214 -52v-469zM411 145v256c-20 9 -53 21 -92 21c-82 0 -158 -49 -158 -170c0 -72 41 -168 135 -168
c54 0 95 28 115 61z" />
    <glyph glyph-name="aring.alt" horiz-adv-x="593" 
d="M423 704c0 -67 -55 -121 -124 -121c-70 0 -125 54 -125 121c0 68 56 121 125 121s124 -56 124 -121zM351 704c0 28 -24 53 -52 53s-50 -25 -50 -53s22 -52 50 -52s52 24 52 52zM529 -2h-99l-11 58c-36 -49 -101 -71 -145 -71c-120 0 -237 101 -237 267
c0 174 132 267 278 267c104 0 167 -26 214 -52v-469zM411 145v256c-20 9 -53 21 -92 21c-82 0 -158 -49 -158 -170c0 -72 41 -168 135 -168c54 0 95 28 115 61z" />
    <glyph glyph-name="atilde.alt" horiz-adv-x="593" 
d="M456 740l49 -79c-28 -28 -82 -78 -139 -78c-58 0 -90 49 -134 49c-33 0 -60 -28 -88 -50l-58 73c28 25 97 78 149 78s86 -51 127 -51c37 0 78 40 94 58zM529 -2h-99l-11 58c-36 -49 -101 -71 -145 -71c-120 0 -237 101 -237 267c0 174 132 267 278 267
c104 0 167 -26 214 -52v-469zM411 145v256c-20 9 -53 21 -92 21c-82 0 -158 -49 -158 -170c0 -72 41 -168 135 -168c54 0 95 28 115 61z" />
    <glyph glyph-name="amacron.alt" horiz-adv-x="593" 
d="M510 600h-427v99h427v-99zM529 -2h-99l-11 58c-36 -49 -101 -71 -145 -71c-120 0 -237 101 -237 267c0 174 132 267 278 267c104 0 167 -26 214 -52v-469zM411 145v256c-20 9 -53 21 -92 21c-82 0 -158 -49 -158 -170c0 -72 41 -168 135 -168c54 0 95 28 115 61z" />
    <glyph glyph-name="abreve.alt" horiz-adv-x="593" 
d="M368 755h108c-5 -76 -60 -172 -181 -172c-87 0 -164 59 -173 172h111c0 -14 6 -83 61 -83c69 0 74 76 74 83zM529 -2h-99l-11 58c-36 -49 -101 -71 -145 -71c-120 0 -237 101 -237 267c0 174 132 267 278 267c104 0 167 -26 214 -52v-469zM411 145v256
c-20 9 -53 21 -92 21c-82 0 -158 -49 -158 -170c0 -72 41 -168 135 -168c54 0 95 28 115 61z" />
    <glyph glyph-name="aogonek.alt" horiz-adv-x="593" 
d="M573 -115v-78c-40 -24 -82 -34 -119 -34c-77 0 -121 44 -121 99c0 41 21 91 96 128l-10 56c-36 -49 -101 -71 -145 -71c-120 0 -237 101 -237 267c0 174 132 267 278 267c104 0 167 -26 214 -52v-472c-79 -35 -95 -79 -95 -103c0 -25 18 -32 44 -32c36 0 78 14 95 25z
M411 145v256c-20 9 -53 21 -92 21c-82 0 -158 -49 -158 -170c0 -72 41 -168 135 -168c54 0 95 28 115 61z" />
    <glyph glyph-name="f.alt" horiz-adv-x="372" 
d="M226 -245h-117v653h-85v96h85v99c0 59 14 116 46 154c37 43 97 60 152 60c73 0 126 -30 134 -36l-46 -91c-11 8 -42 27 -82 27c-59 0 -87 -42 -87 -112v-101h127v-96h-127v-653z" />
    <glyph glyph-name="ff.alt" horiz-adv-x="744" 
d="M226 -230h-117v638h-85v96h85v72c0 59 14 116 46 154c37 43 97 60 152 60c73 0 126 -30 134 -36l-46 -91c-11 8 -42 27 -82 27c-59 0 -87 -42 -87 -112v-74h127v-96h-127v-638zM598 -121h-117v529h-85v96h85v119c0 59 14 116 46 154c37 43 97 60 152 60
c73 0 126 -30 134 -36l-46 -91c-11 8 -42 27 -82 27c-59 0 -87 -42 -87 -112v-121h127v-96h-127v-529z" />
    <glyph glyph-name="fi.alt" horiz-adv-x="629" 
d="M226 -246h-117v654h-85v96h85v113c0 59 14 116 46 154c37 43 97 60 152 60c51 0 92 -15 115 -26l-46 -89c-15 8 -37 15 -62 15c-60 0 -88 -41 -88 -112v-115h127v-96h-127v-654zM559 0h-118v505h118v-505zM501 572c-43 0 -75 31 -75 76s32 76 76 76c45 0 75 -32 75 -76
c0 -45 -32 -76 -76 -76z" />
    <glyph glyph-name="fl.alt" horiz-adv-x="624" 
d="M226 -245h-117v653h-85v96h85v98c0 59 14 116 46 154c37 43 97 60 152 60c41 0 75 -10 99 -19l-30 -96c-15 8 -37 15 -62 15c-60 0 -88 -41 -88 -112v-100h127v-96h-127v-653zM557 0h-118v820h118v-820z" />
    <glyph glyph-name="ffi.alt" horiz-adv-x="1002" 
d="M226 -230h-117v638h-85v96h85v72c0 59 14 116 46 154c37 43 97 60 152 60c73 0 126 -30 134 -36l-46 -91c-11 8 -42 27 -82 27c-59 0 -87 -42 -87 -112v-74h127v-96h-127v-638zM598 -121h-117v529h-85v96h85v118c0 59 14 116 46 154c37 43 97 60 152 60
c51 0 92 -15 115 -26l-46 -89c-15 8 -37 15 -62 15c-60 0 -88 -41 -88 -112v-120h127v-96h-127v-529zM932 0h-118v505h118v-505zM874 572c-43 0 -75 31 -75 76s32 76 76 76c45 0 75 -32 75 -76c0 -45 -32 -76 -76 -76z" />
    <glyph glyph-name="ffl.alt" horiz-adv-x="996" 
d="M226 -230h-117v638h-85v96h85v67c0 59 14 116 46 154c37 43 97 60 152 60c73 0 126 -30 134 -36l-46 -91c-11 8 -42 27 -82 27c-59 0 -87 -42 -87 -112v-69h127v-96h-127v-638zM598 -121h-117v529h-85v96h85v103c0 59 14 116 46 154c37 43 97 60 152 60
c41 0 75 -10 99 -19l-30 -96c-15 8 -37 15 -62 15c-60 0 -88 -41 -88 -112v-105h127v-96h-127v-529zM929 0h-118v820h118v-820z" />
    <glyph glyph-name="m.alt" horiz-adv-x="872" 
d="M810 0h-118v294c0 100 -48 126 -112 126c-34 0 -67 -11 -93 -30c6 -21 9 -42 9 -68v-322h-118v294c0 100 -48 126 -112 126c-38 0 -69 -14 -84 -25v-395h-118v462c58 30 133 57 211 57c59 0 108 -13 145 -47c50 31 109 47 169 47c137 0 221 -66 221 -197v-322z" />
    <glyph glyph-name="uni1E41.alt" horiz-adv-x="872" 
d="M810 0h-118v294c0 100 -48 126 -112 126c-34 0 -67 -11 -93 -30c6 -21 9 -42 9 -68v-322h-118v294c0 100 -48 126 -112 126c-38 0 -69 -14 -84 -25v-395h-118v462c58 30 133 57 211 57c59 0 108 -13 145 -47c50 31 109 47 169 47c137 0 221 -66 221 -197v-322zM508 654
c0 -38 -31 -71 -73 -71c-38 0 -72 33 -72 71c0 41 34 74 72 74c42 0 73 -33 73 -74z" />
    <glyph glyph-name="n.alt" horiz-adv-x="577" 
d="M515 0h-118v294c0 100 -57 126 -121 126c-48 0 -79 -14 -94 -25v-395h-118v462c58 30 133 57 221 57c137 0 230 -66 230 -197v-322z" />
    <glyph glyph-name="ntilde.alt" horiz-adv-x="577" 
d="M515 0h-118v294c0 100 -57 126 -121 126c-48 0 -79 -14 -94 -25v-395h-118v462c58 30 133 57 221 57c137 0 230 -66 230 -197v-322zM427 740l49 -79c-28 -28 -82 -78 -139 -78c-58 0 -90 49 -134 49c-33 0 -60 -28 -88 -50l-58 73c28 25 97 78 149 78s86 -51 127 -51
c37 0 78 40 94 58z" />
    <glyph glyph-name="nacute.alt" horiz-adv-x="577" 
d="M515 0h-118v294c0 100 -57 126 -121 126c-48 0 -79 -14 -94 -25v-395h-118v462c58 30 133 57 221 57c137 0 230 -66 230 -197v-322zM434 746l-192 -163l-76 50l168 186z" />
    <glyph glyph-name="ncommaaccent.alt" horiz-adv-x="576" 
d="M514 0h-118v294c0 100 -57 126 -121 126c-48 0 -79 -14 -94 -25v-395h-118v462c58 30 133 57 221 57c137 0 230 -66 230 -197v-322zM254 -244h-101l74 205h139z" />
    <glyph glyph-name="ncaron.alt" horiz-adv-x="577" 
d="M515 0h-118v294c0 100 -57 126 -121 126c-48 0 -79 -14 -94 -25v-395h-118v462c58 30 133 57 221 57c137 0 230 -66 230 -197v-322zM457 714l-186 -136l-188 136l64 71l123 -93l125 93z" />
    <glyph glyph-name="eng.alt" horiz-adv-x="577" 
d="M329 -268l-45 89c111 33 113 50 113 217v256c0 100 -57 126 -121 126c-48 0 -79 -14 -94 -25v-395h-118v462c58 30 133 57 221 57c137 0 230 -66 230 -197v-286c0 -183 -18 -254 -186 -304z" />
    <glyph glyph-name="napostrophe.alt" horiz-adv-x="614" 
d="M552 0h-118v294c0 100 -57 126 -121 126c-48 0 -79 -14 -94 -25v-395h-118v462c58 30 133 57 221 57c137 0 230 -66 230 -197v-322zM-1 467h-101l74 205h139z" />
    <glyph glyph-name="t.alt" horiz-adv-x="375" 
d="M341 78l-47 -91c-119 0 -188 35 -188 179v242h-88v96h88v173h118v-173h129v-96h-129v-227c0 -98 41 -101 117 -103z" />
    <glyph glyph-name="tcommaaccent.alt" horiz-adv-x="375" 
d="M185 -244h-101l74 205h139zM341 78l-47 -91c-119 0 -188 35 -188 179v242h-88v96h88v173h118v-173h129v-96h-129v-227c0 -98 41 -101 117 -103z" />
    <glyph glyph-name="tcaron.alt" horiz-adv-x="375" 
d="M381 575h-82l80 232h126zM341 78l-47 -91c-119 0 -188 35 -188 179v242h-88v96h88v173h118v-173h129v-96h-129v-227c0 -98 41 -101 117 -103z" />
    <glyph glyph-name="tbar.alt" horiz-adv-x="375" 
d="M341 78l-47 -91c-119 0 -188 35 -188 179v66h-64v84h64v92h-88v96h88v173h118v-173h129v-96h-129v-92h95v-84h-95v-51c0 -98 41 -101 117 -103z" />
    <glyph glyph-name="uni1E6B.alt" horiz-adv-x="375" 
d="M237 804c0 -38 -31 -71 -73 -71c-38 0 -72 33 -72 71c0 41 34 74 72 74c42 0 73 -33 73 -74zM341 78l-47 -91c-119 0 -188 35 -188 179v242h-88v96h88v173h118v-173h129v-96h-129v-227c0 -98 41 -101 117 -103z" />
    <glyph glyph-name="germandbls.alt" horiz-adv-x="593" 
d="M219 19l23 101c25 -15 57 -33 97 -33c47 0 104 25 104 81c0 34 -19 57 -72 84c-39 20 -133 65 -133 173c0 118 112 156 112 237c0 37 -23 68 -71 68c-60 0 -96 -47 -96 -117v-613h-118v612c0 131 85 214 214 214c126 0 174 -79 174 -154c0 -113 -108 -154 -108 -235
c0 -50 42 -73 87 -97c66 -35 132 -71 132 -166c0 -107 -83 -188 -214 -188c-60 0 -101 17 -131 33z" />
    <glyph glyph-name="dollar.alt" horiz-adv-x="583" 
d="M358 -104h-107v91c-104 11 -184 65 -216 100l67 92c36 -34 103 -79 185 -79c73 0 115 36 115 95c0 74 -65 106 -135 139c-95 45 -185 99 -185 210c0 104 78 171 169 192v84h107v-80c87 -14 143 -68 156 -82l-62 -95c-41 40 -86 67 -135 67c-48 0 -101 -26 -101 -80
c0 -58 62 -80 118 -107c143 -68 204 -131 204 -236c0 -124 -84 -192 -180 -214v-97z" />
    <glyph glyph-name="Euro.alt" horiz-adv-x="650" 
d="M560 121l42 -76c-10 -7 -79 -57 -187 -57c-209 0 -363 176 -363 391c0 216 154 391 363 391c75 0 159 -34 196 -62l-55 -79c-13 8 -81 41 -148 41c-102 0 -188 -59 -228 -157h313v-88h-335c-2 -12 -3 -24 -3 -37c0 -10 0 -20 2 -30h336v-88h-322
c32 -100 120 -182 239 -182c61 0 100 12 150 33z" />
    <glyph glyph-name="Euro.alt.sc" horiz-adv-x="530" 
d="M445 108l38 -69c-7 -5 -68 -48 -151 -48c-164 0 -284 131 -284 289c0 159 120 283 284 283c55 0 128 -28 159 -52l-51 -73c-11 5 -67 31 -114 31c-68 0 -127 -32 -159 -89h180v-70h-205c-2 -9 -2 -17 -2 -25s0 -16 2 -25h205v-69h-188c30 -65 98 -108 172 -108
c52 0 95 17 114 25z" />
    <glyph glyph-name="five.alt" horiz-adv-x="576" 
d="M16 80l56 91c17 -14 104 -80 192 -80c82 0 140 57 140 137c0 114 -117 196 -299 223l114 290h305l-33 -105h-187l-50 -126c157 -34 277 -125 277 -277c0 -149 -116 -244 -263 -244c-125 0 -227 68 -252 91z" />
    <glyph glyph-name="ampersand.alt" horiz-adv-x="767" 
d="M790 0h-148l-88 109c-36 -40 -118 -126 -232 -126c-169 0 -285 132 -285 269c0 140 105 224 178 255c-16 13 -48 65 -48 116c0 79 71 151 168 151c107 0 149 -45 162 -60l-57 -72c-19 19 -49 36 -94 36c-35 0 -68 -23 -68 -65c0 -31 39 -72 57 -93zM489 180l-214 243
c-30 -9 -117 -53 -117 -164c0 -108 91 -177 166 -177c93 0 149 70 165 98z" />
    <glyph glyph-name="ampersand.alt.sc" horiz-adv-x="632" 
d="M647 0h-154l-57 65c-36 -34 -100 -74 -175 -74c-134 0 -223 97 -223 193c0 97 81 159 131 185c-11 11 -32 34 -32 68c0 55 58 110 136 110c91 0 124 -53 133 -65l-66 -57c-12 20 -33 38 -57 38c-23 0 -41 -18 -41 -38c0 -15 12 -28 24 -41zM364 135l-147 156
c-25 -11 -64 -41 -64 -100c0 -66 62 -108 110 -108c55 0 87 32 101 52z" />
    <glyph glyph-name="numbersign.alt" horiz-adv-x="1277" 
d="M772 -28l-562 507l2 -479h-128l1 778l562 -518l-2 497h128zM1238 472c0 -101 -86 -186 -197 -186s-198 84 -198 186c0 104 87 190 198 190s197 -88 197 -190zM1040 378c48 0 81 38 81 94s-35 98 -78 98c-47 0 -83 -43 -83 -100c0 -53 40 -92 80 -92zM1176 107h-284l13 98
h284z" />
    <glyph glyph-name="numbersign.alt.sc" horiz-adv-x="1022" 
d="M603 -20l-408 325l2 -305h-123l2 554l408 -328l-2 312h122zM978 339c0 -78 -66 -143 -152 -143c-85 0 -152 65 -152 143c0 80 67 146 152 146c86 0 152 -67 152 -146zM826 275c33 0 55 26 55 64s-24 68 -53 68c-32 0 -57 -31 -57 -69c0 -36 27 -63 55 -63zM926 47h-213
l14 84h213z" />
    <glyph glyph-name="section.alt" horiz-adv-x="436" 
d="M249 -143l-88 838c16 22 125 75 187 75c32 0 53 -21 53 -46s-20 -48 -45 -48c-31 0 -46 29 -47 47c-17 -4 -53 -33 -57 -40l89 -837c-22 -45 -154 -114 -224 -114c-28 0 -48 20 -48 46s23 46 46 46c30 0 46 -28 47 -44c32 9 72 46 87 77zM116 672l83 -777
s-59 -26 -58 -26s-80 772 -80 772s54 31 55 31z" />
    <glyph glyph-name="zero.sc.alt" horiz-adv-x="715" 
d="M672 266c0 -152 -143 -280 -314 -280c-177 0 -315 130 -315 283c0 154 138 283 315 283c175 0 314 -123 314 -286zM540 267c0 99 -82 175 -182 175c-102 0 -184 -76 -184 -171c0 -90 79 -175 179 -175c107 0 187 76 187 171z" />
    <glyph glyph-name="zero_slash.sc.alt" horiz-adv-x="714" 
d="M671 266c0 -152 -143 -280 -313 -280c-177 0 -315 130 -315 283c0 154 138 283 315 283c175 0 313 -123 313 -286zM225 150l194 282c-19 6 -40 10 -61 10c-103 0 -185 -76 -185 -171c0 -45 20 -89 52 -121zM489 388l-195 -282c18 -7 38 -10 59 -10c107 0 187 76 187 171
c0 48 -20 90 -51 121z" />
    <glyph glyph-name="t.alt2" horiz-adv-x="396" 
d="M257 0h-118v408h-124v96h124v173h118v-173h124v-96h-124v-408z" />
    <glyph glyph-name="tcommaaccent.alt2" horiz-adv-x="394" 
d="M191 -244h-101l74 205h139zM256 0h-118v408h-124v96h124v173h118v-173h124v-96h-124v-408z" />
    <glyph glyph-name="tcaron.alt2" horiz-adv-x="396" 
d="M414 575h-82l80 232h126zM257 0h-118v408h-124v96h124v173h118v-173h124v-96h-124v-408z" />
    <glyph glyph-name="tbar.alt2" horiz-adv-x="396" 
d="M257 0h-118v232h-92v84h92v92h-124v96h124v173h118v-173h124v-96h-124v-92h95v-84h-95v-232z" />
    <glyph glyph-name="uni1E6B.alt2" horiz-adv-x="396" 
d="M270 804c0 -38 -31 -71 -73 -71c-38 0 -72 33 -72 71c0 41 34 74 72 74c42 0 73 -33 73 -74zM257 0h-118v408h-124v96h124v173h118v-173h124v-96h-124v-408z" />
    <glyph glyph-name="A.semp" horiz-adv-x="747" 
d="M760 0h-143l-56 120h-377l-55 -120h-143l388 788zM507 236l-121 263c-5 9 -12 26 -13 35c-3 -9 -10 -25 -15 -35l-121 -263h270z" />
    <glyph glyph-name="Agrave.semp" horiz-adv-x="747" 
d="M518 825l-318 49l47 105l302 -69zM760 0h-143l-56 120h-377l-55 -120h-143l388 788zM507 236l-121 263c-5 9 -12 26 -13 35c-3 -9 -10 -25 -15 -35l-121 -263h270z" />
    <glyph glyph-name="Aacute.semp" horiz-adv-x="747" 
d="M549 879l-318 -49l-31 84l302 69zM760 0h-143l-56 120h-377l-55 -120h-143l388 788zM507 236l-121 263c-5 9 -12 26 -13 35c-3 -9 -10 -25 -15 -35l-121 -263h270z" />
    <glyph glyph-name="Acircumflex.semp" horiz-adv-x="747" 
d="M760 0h-143l-56 120h-377l-55 -120h-143l388 788zM531 808l-160 57l-167 -65l-48 72l216 109l218 -105zM507 236l-121 263c-5 9 -12 26 -13 35c-3 -9 -10 -25 -15 -35l-121 -263h270z" />
    <glyph glyph-name="Atilde.semp" horiz-adv-x="747" 
d="M534 980l56 -84c-28 -25 -89 -73 -146 -73c-58 0 -90 49 -134 49c-33 0 -70 -28 -98 -50l-55 77c28 25 104 74 156 74s86 -51 127 -51c37 0 78 40 94 58zM760 0h-143l-56 120h-377l-55 -120h-143l388 788zM507 236l-121 263c-5 9 -12 26 -13 35c-3 -9 -10 -25 -15 -35
l-121 -263h270z" />
    <glyph glyph-name="Adieresis.semp" horiz-adv-x="747" 
d="M312 912c0 -37 -34 -69 -78 -69c-41 0 -76 32 -76 69c0 39 35 69 76 69c44 0 78 -30 78 -69zM576 912c0 -37 -30 -69 -78 -69c-44 0 -75 32 -75 69c0 39 31 69 75 69c48 0 78 -30 78 -69zM760 0h-143l-56 120h-377l-55 -120h-143l388 788zM507 236l-121 263
c-5 9 -12 26 -13 35c-3 -9 -10 -25 -15 -35l-121 -263h270z" />
    <glyph glyph-name="Aring.semp" horiz-adv-x="747" 
d="M498 923c0 -67 -55 -121 -124 -121c-70 0 -125 54 -125 121c0 68 56 121 125 121s124 -56 124 -121zM426 923c0 28 -24 53 -52 53s-50 -25 -50 -53s22 -52 50 -52s52 24 52 52zM760 0h-143l-56 120h-377l-55 -120h-143l388 788zM507 236l-121 263c-5 9 -12 26 -13 35
c-3 -9 -10 -25 -15 -35l-121 -263h270z" />
    <glyph glyph-name="Amacron.semp" horiz-adv-x="747" 
d="M760 0h-143l-56 120h-377l-55 -120h-143l388 788zM507 236l-121 263c-5 9 -12 26 -13 35c-3 -9 -10 -25 -15 -35l-121 -263h270zM586 852h-427v99h427v-99z" />
    <glyph glyph-name="Abreve.semp" horiz-adv-x="747" 
d="M760 0h-143l-56 120h-377l-55 -120h-143l388 788zM507 236l-121 263c-5 9 -12 26 -13 35c-3 -9 -10 -25 -15 -35l-121 -263h270zM442 1007h108c-5 -76 -60 -172 -181 -172c-87 0 -164 59 -173 172h111c0 -14 6 -83 61 -83c69 0 74 76 74 83z" />
    <glyph glyph-name="Aogonek.semp" horiz-adv-x="746" 
d="M779 -115v-78c-40 -24 -82 -34 -119 -34c-77 0 -121 44 -121 99c0 41 25 89 78 128l-56 120h-377l-55 -120h-143l388 788l388 -793c-103 -35 -122 -78 -122 -106c0 -22 20 -29 45 -29c34 0 77 14 94 25zM507 236l-121 263c-5 9 -12 26 -13 35c-3 -9 -10 -25 -15 -35
l-121 -263h270z" />
    <glyph glyph-name="IJ.semp" horiz-adv-x="808" 
d="M213 0h-128v757h128v-757zM599 227v413h-177v116h305v-547c0 -151 -107 -226 -231 -226c-55 0 -117 20 -176 53l50 105c34 -20 85 -45 127 -45c64 0 102 47 102 131z" />
    <glyph glyph-name="J.semp" horiz-adv-x="510" 
d="M301 227v413h-177v116h305v-547c0 -151 -107 -226 -231 -226c-55 0 -117 20 -176 53l50 105c34 -20 85 -45 127 -45c64 0 102 47 102 131z" />
    <glyph glyph-name="Jcircumflex.semp" horiz-adv-x="510" 
d="M301 227v413h-177v116h305v-547c0 -151 -107 -226 -231 -226c-55 0 -117 20 -176 53l50 105c34 -20 85 -45 127 -45c64 0 102 47 102 131zM445 808l-160 59l-167 -59l-48 72l216 101l218 -105z" />
    <glyph glyph-name="f.semp" horiz-adv-x="328" 
d="M182 -245h-117v848c0 59 14 116 46 154c37 43 97 60 152 60c73 0 126 -30 134 -36l-46 -91c-11 8 -42 27 -82 27c-59 0 -87 -42 -87 -112v-101h127v-96h-127v-653z" />
    <glyph glyph-name="uni1E1F.semp" horiz-adv-x="328" 
d="M182 -245h-117v848c0 59 14 116 46 154c37 43 97 60 152 60c73 0 126 -30 134 -36l-46 -91c-11 8 -42 27 -82 27c-59 0 -87 -42 -87 -112v-101h127v-96h-127v-653zM306 959c0 -38 -31 -71 -73 -71c-38 0 -72 33 -72 71c0 41 34 74 72 74c42 0 73 -33 73 -74z" />
    <glyph glyph-name="ij.semp" horiz-adv-x="511" 
d="M187 0h-118v505h118v-505zM128 592c-43 0 -75 31 -75 76s32 76 75 76c46 0 76 -32 76 -76c0 -45 -32 -76 -76 -76zM442 -241l-117 -26v772h117v-746zM384 592c-44 0 -76 31 -76 76s32 76 76 76c46 0 76 -32 76 -76c0 -45 -32 -76 -76 -76z" />
    <glyph glyph-name="j.semp" horiz-adv-x="255" 
d="M186 -241l-117 -26v772h117v-746zM128 592c-44 0 -76 31 -76 76s32 76 76 76c46 0 76 -32 76 -76c0 -45 -32 -76 -76 -76z" />
    <glyph glyph-name="dotlessj.semp" horiz-adv-x="255" 
d="M186 -241l-117 -26v772h117v-746z" />
    <glyph glyph-name="jcircumflex.semp" horiz-adv-x="255" 
d="M186 -241l-117 -26v772h117v-746zM249 572l-125 93l-123 -93l-64 71l188 136l186 -136z" />
    <glyph glyph-name="longs.semp" horiz-adv-x="291" 
d="M226 -245h-117v653h-85v96h85v99c0 59 14 116 46 154c37 43 97 60 152 60c73 0 126 -30 134 -36l-46 -91c-11 8 -42 27 -82 27c-59 0 -87 -42 -87 -112v-850z" />
    <glyph glyph-name="t.semp" horiz-adv-x="332" 
d="M183 0h-118v675h118v-171h134v-96h-134v-408z" />
    <glyph glyph-name="tcommaaccent.semp" horiz-adv-x="331" 
d="M118 -244h-101l74 205h139zM183 0h-118v675h118v-171h134v-96h-134v-408z" />
    <glyph glyph-name="tcaron.semp" horiz-adv-x="332" 
d="M340 575h-82l80 232h126zM183 0h-118v675h118v-171h134v-96h-134v-408z" />
    <glyph glyph-name="tbar.semp" horiz-adv-x="363" 
d="M214 0h-118v232h-84v84h84v359h118v-171h134v-96h-134v-92h95v-84h-95v-232z" />
    <glyph glyph-name="uni1E6B.semp" horiz-adv-x="332" 
d="M196 804c0 -38 -31 -71 -73 -71c-38 0 -72 33 -72 71c0 41 34 74 72 74c42 0 73 -33 73 -74zM183 0h-118v675h118v-171h134v-96h-134v-408z" />
    <glyph glyph-name="ff.semp" horiz-adv-x="656" 
d="M182 -230h-117v806c0 59 14 116 46 154c37 43 97 60 152 60c73 0 126 -30 134 -36l-46 -91c-11 8 -42 27 -82 27c-59 0 -87 -42 -87 -112v-74h127v-96h-127v-638zM510 -121h-117v744c0 59 14 116 46 154c37 43 97 60 152 60c73 0 126 -30 134 -36l-46 -91
c-11 8 -42 27 -82 27c-59 0 -87 -42 -87 -112v-121h127v-96h-127v-529z" />
    <glyph glyph-name="fi.semp" horiz-adv-x="585" 
d="M182 -246h-117v863c0 59 14 116 46 154c37 43 97 60 152 60c51 0 92 -15 115 -26l-46 -89c-15 8 -37 15 -63 15c-59 0 -87 -42 -87 -112v-115h127v-96h-127v-654zM515 0h-118v505h118v-505zM457 572c-43 0 -75 31 -75 76s32 76 75 76c46 0 76 -32 76 -76
c0 -45 -32 -76 -76 -76z" />
    <glyph glyph-name="f_j.semp" horiz-adv-x="584" 
d="M182 -244h-117v861c0 59 14 116 46 154c37 43 97 60 152 60c51 0 92 -15 115 -26l-46 -89c-15 8 -37 15 -63 15c-59 0 -87 -42 -87 -112v-115h127v-96h-127v-652zM515 505v-746l-118 -27v773h118zM457 572c-43 0 -75 31 -75 76s32 76 75 76c46 0 76 -32 76 -76
c0 -45 -32 -76 -76 -76z" />
    <glyph glyph-name="fl.semp" horiz-adv-x="580" 
d="M182 -245h-117v847c0 59 14 116 46 154c37 43 97 60 152 60c41 0 75 -10 99 -19l-30 -96c-15 8 -37 15 -63 15c-59 0 -87 -42 -87 -112v-100h127v-96h-127v-653zM513 0h-118v820h118v-820z" />
    <glyph glyph-name="f_t.semp" horiz-adv-x="660" 
d="M182 -245h-117v862c0 59 14 116 46 154c37 43 97 60 152 60c51 0 92 -15 115 -26l-46 -89c-15 8 -37 15 -63 15c-59 0 -87 -42 -87 -112v-115h127v-96h-127v-653zM511 0h-118v677h118v-173h134v-96h-134v-408z" />
    <glyph glyph-name="ffi.semp" horiz-adv-x="913" 
d="M182 -230h-117v806c0 59 14 116 46 154c37 43 97 60 152 60c73 0 126 -30 134 -36l-46 -91c-11 8 -42 27 -82 27c-59 0 -87 -42 -87 -112v-74h127v-96h-127v-638zM510 -121h-117v743c0 59 14 116 46 154c37 43 97 60 152 60c51 0 92 -15 115 -26l-46 -89
c-15 8 -37 15 -63 15c-59 0 -87 -42 -87 -112v-120h127v-96h-127v-529zM843 0h-118v505h118v-505zM785 572c-43 0 -75 31 -75 76s32 76 75 76c46 0 76 -32 76 -76c0 -45 -32 -76 -76 -76z" />
    <glyph glyph-name="ffl.semp" horiz-adv-x="908" 
d="M182 -230h-117v801c0 59 14 116 46 154c37 43 97 60 152 60c73 0 126 -30 134 -36l-46 -91c-11 8 -42 27 -82 27c-59 0 -87 -42 -87 -112v-69h127v-96h-127v-638zM510 -122h-117v729c0 59 14 116 46 154c37 43 97 60 152 60c41 0 75 -10 99 -19l-30 -96
c-15 8 -37 15 -63 15c-59 0 -87 -42 -87 -112v-105h127v-96h-127v-530zM841 0h-118v820h118v-820z" />
    <glyph glyph-name="germandbls.semp" horiz-adv-x="577" 
d="M262 -242v97c100 10 156 98 156 176c0 64 -39 121 -118 121c-25 0 -50 -6 -75 -17l143 273h-188v-653h-117v848c0 59 14 116 46 154c37 43 97 60 152 60c73 0 126 -30 134 -36l-46 -91c-11 8 -42 27 -82 27c-59 0 -87 -42 -87 -112v-101h358l-162 -291c9 2 18 3 27 3
c84 0 138 -84 138 -181c0 -116 -79 -251 -279 -277z" />
    <glyph glyph-name="a.sc.semp" 
d="M607 0h-133l-34 67h-280l-34 -67h-133l307 564zM387 170l-87 172l-88 -172h175z" />
    <glyph glyph-name="agrave.sc.semp" 
d="M607 0h-133l-34 67h-280l-34 -67h-133l307 564zM428 652l-81 -50l-192 163l105 73zM387 170l-87 172l-88 -172h175z" />
    <glyph glyph-name="aacute.sc.semp" 
d="M607 0h-133l-34 67h-280l-34 -67h-133l307 564zM430 765l-194 -163l-77 52l167 184zM387 170l-87 172l-88 -172h175z" />
    <glyph glyph-name="acircumflex.sc.semp" 
d="M607 0h-133l-34 67h-280l-34 -67h-133l307 564zM425 599l-125 83l-123 -83l-64 70l188 136l186 -136zM387 170l-87 172l-88 -172h175z" />
    <glyph glyph-name="atilde.sc.semp" 
d="M607 0h-133l-34 67h-280l-34 -67h-133l307 564zM449 759l41 -62c-12 -19 -63 -89 -130 -89c-45 0 -78 40 -118 40c-37 0 -69 -34 -86 -51l-56 64c28 27 94 85 146 85c46 0 78 -42 117 -42c35 0 72 40 86 55zM387 170l-87 172l-88 -172h175z" />
    <glyph glyph-name="adieresis.sc.semp" 
d="M607 0h-133l-34 67h-280l-34 -67h-133l307 564zM387 170l-87 172l-88 -172h175zM490 681c0 -35 -27 -64 -70 -64c-39 0 -68 29 -68 64c0 37 29 65 68 65c43 0 70 -28 70 -65zM250 681c0 -35 -31 -64 -71 -64c-37 0 -68 29 -68 64c0 37 31 65 68 65c40 0 71 -28 71 -65z
" />
    <glyph glyph-name="aring.sc.semp" 
d="M607 0h-133l-34 67h-280l-34 -67h-133l307 564zM423 704c0 -67 -55 -121 -124 -121c-70 0 -125 54 -125 121c0 68 56 121 125 121s124 -56 124 -121zM387 170l-87 172l-88 -172h175zM351 704c0 28 -24 53 -52 53s-50 -25 -50 -53s22 -52 50 -52s52 24 52 52z" />
    <glyph glyph-name="amacron.sc.semp" 
d="M607 0h-133l-34 67h-280l-34 -67h-133l307 564zM513 600h-427v99h427v-99zM387 170l-87 172l-88 -172h175z" />
    <glyph glyph-name="abreve.sc.semp" 
d="M607 0h-133l-34 67h-280l-34 -67h-133l307 564zM369 755h108c-5 -76 -60 -172 -181 -172c-87 0 -164 59 -173 172h111c0 -14 6 -83 61 -83c69 0 74 76 74 83zM387 170l-87 172l-88 -172h175z" />
    <glyph glyph-name="aogonek.sc.semp" 
d="M633 -115v-78c-40 -24 -82 -34 -119 -34c-77 0 -121 44 -121 99c0 41 25 90 81 128l-34 67h-280l-34 -67h-133l307 564l307 -564c-96 -36 -113 -84 -113 -108c0 -25 18 -32 44 -32c36 0 78 14 95 25zM387 170l-87 172l-88 -172h175z" />
    <glyph glyph-name="j.sc.semp" horiz-adv-x="422" 
d="M237 207v220h-157v111h280v-390c0 -108 -93 -162 -182 -162c-73 0 -126 17 -168 41l39 103c24 -17 70 -38 100 -38c66 0 88 35 88 115z" />
    <glyph glyph-name="jcircumflex.sc.semp" horiz-adv-x="422" 
d="M237 207v220h-157v111h280v-390c0 -108 -93 -162 -182 -162c-73 0 -126 17 -168 41l39 103c24 -17 70 -38 100 -38c66 0 88 35 88 115zM347 602l-125 93l-123 -93l-64 71l188 136l186 -136z" />
    <glyph glyph-name="IJ.semp2" horiz-adv-x="783" 
d="M213 0h-128v757h128v-757zM574 225v532h128v-548c0 -151 -106 -226 -231 -226c-47 0 -101 15 -156 46l50 103c23 -13 64 -38 110 -38c57 0 99 38 99 131z" />
    <glyph glyph-name="J.semp2" horiz-adv-x="485" 
d="M276 225v532h128v-548c0 -151 -106 -226 -231 -226c-47 0 -101 15 -156 46l50 103c23 -13 64 -38 110 -38c57 0 99 38 99 131z" />
    <glyph glyph-name="Jcircumflex.semp2" horiz-adv-x="482" 
d="M273 225v532h128v-548c0 -151 -106 -226 -231 -226c-47 0 -101 15 -156 46l50 103c23 -13 64 -38 110 -38c57 0 99 38 99 131zM493 808l-160 59l-167 -59l-48 72l216 101l218 -105z" />
    <glyph glyph-name="f.semp2" horiz-adv-x="328" 
d="M182 0h-117v603c0 59 14 116 46 154c37 43 97 60 152 60c73 0 126 -30 134 -36l-46 -91c-11 8 -42 27 -82 27c-59 0 -87 -42 -87 -112v-101h127v-96h-127v-408z" />
    <glyph glyph-name="uni1E1F.semp2" horiz-adv-x="328" 
d="M182 0h-117v603c0 59 14 116 46 154c37 43 97 60 152 60c73 0 126 -30 134 -36l-46 -91c-11 8 -42 27 -82 27c-59 0 -87 -42 -87 -112v-101h127v-96h-127v-408zM306 959c0 -38 -31 -71 -73 -71c-38 0 -72 33 -72 71c0 41 34 74 72 74c42 0 73 -33 73 -74z" />
    <glyph glyph-name="longs.semp2" horiz-adv-x="291" 
d="M226 0h-117v408h-85v96h85v99c0 59 14 116 46 154c37 43 97 60 152 60c73 0 126 -30 134 -36l-46 -91c-11 8 -42 27 -82 27c-59 0 -87 -42 -87 -112v-605z" />
    <glyph glyph-name="ff.semp2" horiz-adv-x="656" 
d="M510 408v-408h-117v623c0 59 14 116 46 154c37 43 97 60 152 60c73 0 126 -30 134 -36l-46 -91c-11 8 -42 27 -82 27c-59 0 -87 -42 -87 -112v-121h127v-96h-127zM182 408v-408h-117v576c0 59 14 116 46 154c37 43 97 60 152 60c73 0 126 -30 134 -36l-46 -91
c-11 8 -42 27 -82 27c-59 0 -87 -42 -87 -112v-74h127v-96h-127z" />
    <glyph glyph-name="fi.semp2" horiz-adv-x="585" 
d="M182 408v-408h-117v617c0 59 14 116 46 154c37 43 97 60 152 60c51 0 92 -15 115 -26l-46 -89c-15 8 -37 15 -63 15c-59 0 -87 -42 -87 -112v-115h127v-96h-127zM515 0h-118v505h118v-505zM457 572c-43 0 -75 31 -75 76s32 76 75 76c46 0 76 -32 76 -76
c0 -45 -32 -76 -76 -76z" />
    <glyph glyph-name="fl.semp2" horiz-adv-x="580" 
d="M182 408v-408h-117v602c0 59 14 116 46 154c37 43 97 60 152 60c41 0 75 -10 99 -19l-30 -96c-15 8 -37 15 -63 15c-59 0 -87 -42 -87 -112v-100h127v-96h-127zM513 0h-118v820h118v-820z" />
    <glyph glyph-name="ffi.semp2" horiz-adv-x="913" 
d="M510 408v-408h-117v622c0 59 14 116 46 154c37 43 97 60 152 60c51 0 92 -15 115 -26l-46 -89c-15 8 -37 15 -63 15c-59 0 -87 -42 -87 -112v-120h127v-96h-127zM182 408v-408h-117v576c0 59 14 116 46 154c37 43 97 60 152 60c73 0 126 -30 134 -36l-46 -91
c-11 8 -42 27 -82 27c-59 0 -87 -42 -87 -112v-74h127v-96h-127zM843 0h-118v505h118v-505zM785 572c-43 0 -75 31 -75 76s32 76 75 76c46 0 76 -32 76 -76c0 -45 -32 -76 -76 -76z" />
    <glyph glyph-name="ffl.semp2" horiz-adv-x="908" 
d="M510 408v-408h-117v607c0 59 14 116 46 154c37 43 97 60 152 60c41 0 75 -10 99 -19l-30 -96c-15 8 -37 15 -63 15c-59 0 -87 -42 -87 -112v-105h127v-96h-127zM182 408v-408h-117v571c0 59 14 116 46 154c37 43 97 60 152 60c73 0 126 -30 134 -36l-46 -91
c-11 8 -42 27 -82 27c-59 0 -87 -42 -87 -112v-69h127v-96h-127zM841 0h-118v820h118v-820z" />
    <glyph glyph-name="a.sc" 
d="M607 0h-133l-42 83h-264l-42 -83h-133l307 564zM379 186l-79 156l-80 -156h159z" />
    <glyph glyph-name="b.sc" horiz-adv-x="538" 
d="M258 0h-184v538h148c123 0 229 -34 229 -132c0 -68 -51 -99 -80 -111c52 -15 126 -53 126 -142c0 -93 -80 -153 -239 -153zM197 321h43c63 0 84 22 84 56c0 43 -33 57 -90 57h-37v-113zM197 104h85c55 0 84 25 84 61c0 39 -33 63 -91 63h-78v-124z" />
    <glyph glyph-name="c.sc" horiz-adv-x="614" 
d="M522 150l56 -87c-41 -36 -107 -77 -213 -77c-189 0 -323 130 -323 285c0 150 126 281 312 281c138 0 214 -72 219 -81l-64 -84c-41 36 -93 55 -152 55c-119 0 -189 -77 -189 -171c0 -101 80 -175 196 -175c78 0 136 34 158 54z" />
    <glyph glyph-name="d.sc" horiz-adv-x="620" 
d="M248 0h-174v538h161c204 0 339 -92 339 -272c0 -170 -121 -266 -326 -266zM197 111h62c105 0 183 44 183 153c0 101 -68 163 -166 163h-79v-316z" />
    <glyph glyph-name="e.sc" horiz-adv-x="497" 
d="M453 1h-378v536h355v-110h-232v-98l187 1v-110l-187 1v-110h255v-110z" />
    <glyph glyph-name="f.sc" horiz-adv-x="455" 
d="M197 0h-123v537h348v-110h-225v-107l183 1v-109l-183 1v-213z" />
    <glyph glyph-name="g.sc" horiz-adv-x="669" 
d="M509 202l-138 -1v105h267c-3 -233 -140 -321 -283 -321c-178 0 -313 123 -313 281c0 159 130 285 305 285c142 0 219 -64 223 -69l-59 -91c-4 6 -53 52 -148 52c-117 0 -194 -69 -194 -169c0 -95 74 -180 187 -180c88 0 148 55 153 108z" />
    <glyph glyph-name="h.sc" horiz-adv-x="640" 
d="M566 0h-123v220h-246v-220h-123v538h123v-208h246v208h123v-538z" />
    <glyph glyph-name="i.sc" horiz-adv-x="271" 
d="M197 0h-123v538h123v-538z" />
    <glyph glyph-name="j.sc" horiz-adv-x="272" 
d="M-5 -181l-44 103c102 27 124 52 124 160v456h123v-459c0 -152 -45 -203 -203 -260z" />
    <glyph glyph-name="k.sc" horiz-adv-x="605" 
d="M609 0h-181l-230 197v-197h-124v538h124v-194l193 194h160l-277 -262z" />
    <glyph glyph-name="l.sc" horiz-adv-x="460" 
d="M437 1h-362v537h123v-427h239v-110z" />
    <glyph glyph-name="m.sc" horiz-adv-x="784" 
d="M739 0h-124l-31 232c-1 14 -1 27 0 39c-3 -10 -11 -23 -22 -40l-171 -252l-172 251c-10 15 -16 28 -21 40c2 -9 2 -22 1 -39l-30 -231h-124l82 552l257 -364c4 -8 6 -12 7 -18c1 6 1 10 7 18l258 364z" />
    <glyph glyph-name="n.sc" horiz-adv-x="676" 
d="M602 -20l-408 325l2 -305h-123l2 554l408 -328l-2 312h122z" />
    <glyph glyph-name="o.sc" horiz-adv-x="687" 
d="M645 266c0 -152 -138 -280 -301 -280c-169 0 -302 130 -302 283c0 154 133 283 302 283c167 0 301 -123 301 -286zM518 268c0 98 -77 174 -175 174c-99 0 -174 -76 -174 -173c0 -94 75 -173 173 -173c100 0 176 76 176 172z" />
    <glyph glyph-name="p.sc" horiz-adv-x="501" 
d="M197 0h-123v538h132c156 0 262 -45 262 -178c0 -114 -77 -192 -234 -192h-37v-168zM197 278h35c73 0 106 33 106 77c0 38 -24 72 -97 73h-44v-150z" />
    <glyph glyph-name="q.sc" horiz-adv-x="688" 
d="M666 2l-88 -87l-102 103c-39 -19 -86 -32 -132 -32c-169 0 -302 130 -302 283c0 154 133 283 301 283s302 -123 302 -286c0 -79 -38 -144 -84 -188zM518 268c0 99 -77 174 -175 174c-99 0 -174 -76 -174 -173c0 -94 75 -173 173 -173c100 0 176 76 176 172z" />
    <glyph glyph-name="r.sc" horiz-adv-x="563" 
d="M585 0h-174l-189 187l-25 24v-211h-123v538h132c150 0 262 -44 262 -171c0 -76 -60 -141 -135 -159zM197 278h34c75 0 107 41 107 84c0 41 -31 76 -96 76h-45v-160z" />
    <glyph glyph-name="s.sc" horiz-adv-x="499" 
d="M440 485l-57 -84c-32 29 -72 49 -116 49c-42 0 -69 -14 -69 -47c0 -90 261 -63 261 -256c0 -81 -79 -161 -222 -161c-91 0 -177 50 -210 91l62 82c30 -31 89 -66 147 -66c52 0 90 18 90 55c0 102 -260 76 -260 255c0 97 98 148 199 148c87 0 142 -35 175 -66z" />
    <glyph glyph-name="t.sc" horiz-adv-x="514" 
d="M319 0h-123v427h-173v110h468v-110h-172v-427z" />
    <glyph glyph-name="u.sc" horiz-adv-x="625" 
d="M429 122v416h123v-474c-47 -45 -123 -78 -242 -78c-155 0 -240 71 -240 214v338h123v-256c0 -135 16 -187 121 -187c48 0 88 10 115 27z" />
    <glyph glyph-name="v.sc" horiz-adv-x="594" 
d="M297 -33l-305 571h137l166 -328c3 -4 5 -12 6 -22c0 10 3 18 5 22l157 328h138z" />
    <glyph glyph-name="w.sc" horiz-adv-x="854" 
d="M613 -30l-186 341l-184 -339l-247 566h136l122 -306c3 -8 3 -15 4 -30c1 15 2 22 6 30l164 329l166 -329c3 -7 5 -14 6 -27c0 13 1 20 4 27l119 306h133z" />
    <glyph glyph-name="x.sc" horiz-adv-x="625" 
d="M611 0h-158l-142 183l-142 -183h-158l232 276l-217 262h158l131 -166l131 166h158l-222 -262z" />
    <glyph glyph-name="y.sc" horiz-adv-x="545" 
d="M334 0h-123v217l-221 321h151l131 -220l132 220h151l-221 -321v-217z" />
    <glyph glyph-name="z.sc" horiz-adv-x="590" 
d="M548 1h-540l318 426h-240v110h465l-317 -426h314v-110z" />
    <glyph glyph-name="ff.sc" horiz-adv-x="910" 
d="M197 0h-123v537h348v-110h-225v-107l183 1v-109l-183 1v-213zM652 0h-123v537h348v-110h-225v-107l183 1v-109l-183 1v-213z" />
    <glyph glyph-name="fi.sc" horiz-adv-x="726" 
d="M197 0h-123v537h348v-110h-225v-107l183 1v-109l-183 1v-213zM652 0h-123v538h123v-538z" />
    <glyph glyph-name="f_j.sc" horiz-adv-x="727" 
d="M197 0h-123v537h348v-110h-225v-107l183 1v-109l-183 1v-213zM450 -181l-44 103c102 27 124 52 124 160v456h123v-459c0 -152 -45 -203 -203 -260z" />
    <glyph glyph-name="fl.sc" horiz-adv-x="915" 
d="M197 0h-123v537h348v-110h-225v-107l183 1v-109l-183 1v-213zM892 1h-362v537h123v-427h239v-110z" />
    <glyph glyph-name="f_t.sc" horiz-adv-x="969" 
d="M197 0h-123v537h348v-110h-225v-107l183 1v-109l-183 1v-213zM774 0h-123v427h-173v110h468v-110h-172v-427z" />
    <glyph glyph-name="ffi.sc" horiz-adv-x="1181" 
d="M197 0h-123v537h348v-110h-225v-107l183 1v-109l-183 1v-213zM652 0h-123v537h348v-110h-225v-107l183 1v-109l-183 1v-213zM1107 0h-123v538h123v-538z" />
    <glyph glyph-name="ffl.sc" horiz-adv-x="1370" 
d="M197 0h-123v537h348v-110h-225v-107l183 1v-109l-183 1v-213zM652 0h-123v537h348v-110h-225v-107l183 1v-109l-183 1v-213zM1347 1h-362v537h123v-427h239v-110z" />
    <glyph glyph-name="germandbls.sc" horiz-adv-x="998" 
d="M440 485l-57 -84c-32 29 -72 49 -116 49c-42 0 -69 -14 -69 -47c0 -90 261 -63 261 -256c0 -81 -79 -161 -222 -161c-91 0 -177 50 -210 91l62 82c30 -31 89 -66 147 -66c52 0 90 18 90 55c0 102 -260 76 -260 255c0 97 98 148 199 148c87 0 142 -35 175 -66zM939 485
l-57 -84c-32 29 -72 49 -116 49c-42 0 -69 -14 -69 -47c0 -90 261 -63 261 -256c0 -81 -79 -161 -222 -161c-91 0 -177 50 -210 91l62 82c30 -31 89 -66 147 -66c52 0 90 18 90 55c0 102 -260 76 -260 255c0 97 98 148 199 148c87 0 142 -35 175 -66z" />
    <glyph glyph-name="agrave.sc" 
d="M607 0h-133l-42 83h-264l-42 -83h-133l307 564zM411 652l-81 -50l-192 163l105 73zM379 186l-79 156l-80 -156h159z" />
    <glyph glyph-name="aacute.sc" 
d="M607 0h-133l-42 83h-264l-42 -83h-133l307 564zM456 765l-194 -163l-77 52l167 184zM379 186l-79 156l-80 -156h159z" />
    <glyph glyph-name="acircumflex.sc" 
d="M607 0h-133l-42 83h-264l-42 -83h-133l307 564zM423 599l-125 83l-123 -83l-64 70l188 136l186 -136zM379 186l-79 156l-80 -156h159z" />
    <glyph glyph-name="atilde.sc" 
d="M607 0h-133l-42 83h-264l-42 -83h-133l307 564zM452 759l41 -62c-12 -19 -63 -89 -130 -89c-45 0 -78 40 -118 40c-37 0 -69 -34 -86 -51l-56 64c28 27 94 85 146 85c46 0 78 -42 117 -42c35 0 72 40 86 55zM379 186l-79 156l-80 -156h159z" />
    <glyph glyph-name="adieresis.sc" 
d="M607 0h-133l-42 83h-264l-42 -83h-133l307 564zM488 681c0 -35 -27 -64 -70 -64c-39 0 -68 29 -68 64c0 37 29 65 68 65c43 0 70 -28 70 -65zM248 681c0 -35 -31 -64 -71 -64c-37 0 -68 29 -68 64c0 37 31 65 68 65c40 0 71 -28 71 -65zM379 186l-79 156l-80 -156h159z
" />
    <glyph glyph-name="aring.sc" 
d="M607 0h-133l-42 83h-264l-42 -83h-133l307 564zM423 704c0 -67 -55 -121 -124 -121c-70 0 -125 54 -125 121c0 68 56 121 125 121s124 -56 124 -121zM379 186l-79 156l-80 -156h159zM351 704c0 28 -24 53 -52 53s-50 -25 -50 -53s22 -52 50 -52s52 24 52 52z" />
    <glyph glyph-name="amacron.sc" 
d="M607 0h-133l-42 83h-264l-42 -83h-133l307 564zM493 600h-387v99h387v-99zM379 186l-79 156l-80 -156h159z" />
    <glyph glyph-name="abreve.sc" 
d="M607 0h-133l-42 83h-264l-42 -83h-133l307 564zM369 755h108c-5 -76 -60 -172 -181 -172c-87 0 -164 59 -173 172h111c0 -14 6 -83 61 -83c69 0 74 76 74 83zM379 186l-79 156l-80 -156h159z" />
    <glyph glyph-name="aogonek.sc" 
d="M633 -115v-78c-40 -24 -82 -34 -119 -34c-77 0 -121 44 -121 99c0 41 25 90 81 128l-42 83h-264l-42 -83h-133l307 564l309 -566c-96 -35 -115 -82 -115 -107c0 -24 19 -31 44 -31c36 0 78 14 95 25zM379 186l-79 156l-80 -156h159z" />
    <glyph glyph-name="ae.sc" horiz-adv-x="803" 
d="M759 1h-378v82h-194l-54 -83h-145l372 537h376v-110h-232v-98l187 1v-110l-187 1v-110h255v-110zM381 186v191l-126 -191h126z" />
    <glyph glyph-name="aeacute.sc" horiz-adv-x="803" 
d="M759 1h-378v82h-194l-54 -83h-145l372 537h376v-110h-232v-98l187 1v-110l-187 1v-110h255v-110zM381 186v191l-126 -191h126zM712 766l-192 -163l-76 50l168 186z" />
    <glyph glyph-name="uni1E03.sc" horiz-adv-x="538" 
d="M258 0h-184v538h148c123 0 229 -34 229 -132c0 -68 -51 -99 -80 -111c52 -15 126 -53 126 -142c0 -93 -80 -153 -239 -153zM197 321h43c63 0 84 22 84 56c0 43 -33 57 -90 57h-37v-113zM197 104h85c55 0 84 25 84 61c0 39 -33 63 -91 63h-78v-124zM309 674
c0 -38 -31 -71 -73 -71c-38 0 -72 33 -72 71c0 41 34 74 72 74c42 0 73 -33 73 -74z" />
    <glyph glyph-name="ccedilla.sc" horiz-adv-x="614" 
d="M320 -252h-126l101 199h140zM522 150l56 -87c-41 -36 -107 -77 -213 -77c-189 0 -323 130 -323 285c0 150 126 281 312 281c138 0 214 -72 219 -81l-64 -84c-41 36 -93 55 -152 55c-119 0 -189 -77 -189 -171c0 -101 80 -175 196 -175c78 0 136 34 158 54z" />
    <glyph glyph-name="ccaron.sc" horiz-adv-x="614" 
d="M522 150l56 -87c-41 -36 -107 -77 -213 -77c-189 0 -323 130 -323 285c0 150 126 281 312 281c138 0 214 -72 219 -81l-64 -84c-41 36 -93 55 -152 55c-119 0 -189 -77 -189 -171c0 -101 80 -175 196 -175c78 0 136 34 158 54zM501 734l-186 -136l-188 136l64 71l123 -93
l125 93z" />
    <glyph glyph-name="cacute.sc" horiz-adv-x="614" 
d="M522 150l56 -87c-41 -36 -107 -77 -213 -77c-189 0 -323 130 -323 285c0 150 126 281 312 281c138 0 214 -72 219 -81l-64 -84c-41 36 -93 55 -152 55c-119 0 -189 -77 -189 -171c0 -101 80 -175 196 -175c78 0 136 34 158 54zM468 766l-192 -163l-76 50l168 186z" />
    <glyph glyph-name="ccircumflex.sc" horiz-adv-x="614" 
d="M522 150l56 -87c-41 -36 -107 -77 -213 -77c-189 0 -323 130 -323 285c0 150 126 281 312 281c138 0 214 -72 219 -81l-64 -84c-41 36 -93 55 -152 55c-119 0 -189 -77 -189 -171c0 -101 80 -175 196 -175c78 0 136 34 158 54zM439 592l-125 93l-123 -93l-64 71l188 136
l186 -136z" />
    <glyph glyph-name="cdotaccent.sc" horiz-adv-x="614" 
d="M522 150l56 -87c-41 -36 -107 -77 -213 -77c-189 0 -323 130 -323 285c0 150 126 281 312 281c138 0 214 -72 219 -81l-64 -84c-41 36 -93 55 -152 55c-119 0 -189 -77 -189 -171c0 -101 80 -175 196 -175c78 0 136 34 158 54zM396 674c0 -38 -31 -71 -73 -71
c-38 0 -72 33 -72 71c0 41 34 74 72 74c42 0 73 -33 73 -74z" />
    <glyph glyph-name="dcaron.sc" horiz-adv-x="620" 
d="M248 0h-174v538h161c204 0 339 -92 339 -272c0 -170 -121 -266 -326 -266zM197 111h62c105 0 183 44 183 153c0 101 -68 163 -166 163h-79v-316zM463 732l-186 -136l-188 136l64 71l123 -93l125 93z" />
    <glyph glyph-name="dcroat.sc" horiz-adv-x="643" 
d="M271 0h-174v220h-76v99h76v219h161c204 0 339 -92 339 -272c0 -170 -121 -266 -326 -266zM335 220h-115v-109h62c105 0 183 44 183 153c0 101 -68 163 -166 163h-79v-108h115v-99z" />
    <glyph glyph-name="uni1E0B.sc" horiz-adv-x="620" 
d="M248 0h-174v538h161c204 0 339 -92 339 -272c0 -170 -121 -266 -326 -266zM197 111h62c105 0 183 44 183 153c0 101 -68 163 -166 163h-79v-316zM356 674c0 -38 -31 -71 -73 -71c-38 0 -72 33 -72 71c0 41 34 74 72 74c42 0 73 -33 73 -74z" />
    <glyph glyph-name="eth.sc" horiz-adv-x="643" 
d="M271 0h-174v220h-76v99h76v219h161c204 0 339 -92 339 -272c0 -170 -121 -266 -326 -266zM335 220h-115v-109h62c105 0 183 44 183 153c0 101 -68 163 -166 163h-79v-108h115v-99z" />
    <glyph glyph-name="egrave.sc" horiz-adv-x="497" 
d="M356 652l-81 -50l-192 163l105 73zM453 1h-378v536h355v-110h-232v-98l187 1v-110l-187 1v-110h255v-110z" />
    <glyph glyph-name="eacute.sc" horiz-adv-x="497" 
d="M414 765l-194 -163l-77 52l167 184zM453 1h-378v536h355v-110h-232v-98l187 1v-110l-187 1v-110h255v-110z" />
    <glyph glyph-name="ecircumflex.sc" horiz-adv-x="497" 
d="M453 1h-378v536h355v-110h-232v-98l187 1v-110l-187 1v-110h255v-110zM372 598l-125 83l-123 -83l-64 70l188 136l186 -136z" />
    <glyph glyph-name="edieresis.sc" horiz-adv-x="497" 
d="M453 1h-378v536h355v-110h-232v-98l187 1v-110l-187 1v-110h255v-110zM200 681c0 -35 -31 -64 -71 -64c-37 0 -68 29 -68 64c0 37 31 65 68 65c40 0 71 -28 71 -65zM440 681c0 -35 -27 -64 -70 -64c-39 0 -68 29 -68 64c0 37 29 65 68 65c43 0 70 -28 70 -65z" />
    <glyph glyph-name="emacron.sc" horiz-adv-x="497" 
d="M453 1h-378v536h355v-110h-232v-98l187 1v-110l-187 1v-110h255v-110zM446 620h-387v99h387v-99z" />
    <glyph glyph-name="ebreve.sc" horiz-adv-x="497" 
d="M453 1h-378v536h355v-110h-232v-98l187 1v-110l-187 1v-110h255v-110zM326 775h108c-5 -76 -60 -172 -181 -172c-87 0 -164 59 -173 172h111c0 -14 6 -83 61 -83c69 0 74 76 74 83z" />
    <glyph glyph-name="edotaccent.sc" horiz-adv-x="497" 
d="M453 1h-378v536h355v-110h-232v-98l187 1v-110l-187 1v-110h255v-110zM329 674c0 -38 -31 -71 -73 -71c-38 0 -72 33 -72 71c0 41 34 74 72 74c42 0 73 -33 73 -74z" />
    <glyph glyph-name="eogonek.sc" horiz-adv-x="497" 
d="M433 -115v-78c-40 -24 -82 -34 -119 -34c-77 0 -121 44 -121 99c0 42 25 90 81 129h-199v536h355v-110h-232v-98l187 1v-110l-187 1v-110h255v-110h-89c-53 -45 -70 -83 -70 -112c0 -22 20 -29 45 -29c34 0 77 14 94 25z" />
    <glyph glyph-name="ecaron.sc" horiz-adv-x="497" 
d="M453 1h-378v536h355v-110h-232v-98l187 1v-110l-187 1v-110h255v-110zM439 734l-186 -136l-188 136l64 71l123 -93l125 93z" />
    <glyph glyph-name="uni1E1F.sc" horiz-adv-x="455" 
d="M197 0h-123v537h348v-110h-225v-107l183 1v-109l-183 1v-213zM317 674c0 -38 -31 -71 -73 -71c-38 0 -72 33 -72 71c0 41 34 74 72 74c42 0 73 -33 73 -74z" />
    <glyph glyph-name="gcommaaccent.sc" horiz-adv-x="669" 
d="M509 202l-138 -1v105h267c-3 -233 -140 -321 -283 -321c-178 0 -313 123 -313 281c0 159 130 285 305 285c142 0 219 -64 223 -69l-59 -91c-4 6 -53 52 -148 52c-117 0 -194 -69 -194 -169c0 -95 74 -180 187 -180c88 0 148 55 153 108zM335 -254h-101l74 205h139z" />
    <glyph glyph-name="gcircumflex.sc" horiz-adv-x="669" 
d="M509 202l-138 -1v105h267c-3 -233 -140 -321 -283 -321c-178 0 -313 123 -313 281c0 159 130 285 305 285c142 0 219 -64 223 -69l-59 -91c-4 6 -53 52 -148 52c-117 0 -194 -69 -194 -169c0 -95 74 -180 187 -180c88 0 148 55 153 108zM455 592l-125 93l-123 -93l-64 71
l188 136l186 -136z" />
    <glyph glyph-name="gbreve.sc" horiz-adv-x="669" 
d="M509 202l-138 -1v105h267c-3 -233 -140 -321 -283 -321c-178 0 -313 123 -313 281c0 159 130 285 305 285c142 0 219 -64 223 -69l-59 -91c-4 6 -53 52 -148 52c-117 0 -194 -69 -194 -169c0 -95 74 -180 187 -180c88 0 148 55 153 108zM409 765h108
c-5 -76 -60 -172 -181 -172c-87 0 -164 59 -173 172h111c0 -14 6 -83 61 -83c69 0 74 76 74 83z" />
    <glyph glyph-name="gdotaccent.sc" horiz-adv-x="669" 
d="M509 202l-138 -1v105h267c-3 -233 -140 -321 -283 -321c-178 0 -313 123 -313 281c0 159 130 285 305 285c142 0 219 -64 223 -69l-59 -91c-4 6 -53 52 -148 52c-117 0 -194 -69 -194 -169c0 -95 74 -180 187 -180c88 0 148 55 153 108zM412 674c0 -38 -31 -71 -73 -71
c-38 0 -72 33 -72 71c0 41 34 74 72 74c42 0 73 -33 73 -74z" />
    <glyph glyph-name="hcircumflex.sc" horiz-adv-x="640" 
d="M566 0h-123v220h-246v-220h-123v538h123v-208h246v208h123v-538zM444 592l-125 93l-123 -93l-64 71l188 136l186 -136z" />
    <glyph glyph-name="hbar.sc" horiz-adv-x="653" 
d="M573 0h-123v220h-246v-220h-123v389h-58v89h58v60h123v-60h246v60h123v-60h57v-89h-57v-389zM450 330v59h-246v-59h246z" />
    <glyph glyph-name="igrave.sc" horiz-adv-x="271" 
d="M197 0h-123v538h123v-538zM239 633l-76 -50l-192 163l100 73z" />
    <glyph glyph-name="iacute.sc" horiz-adv-x="271" 
d="M197 0h-123v538h123v-538zM309 746l-192 -163l-76 50l168 186z" />
    <glyph glyph-name="icircumflex.sc" horiz-adv-x="271" 
d="M197 0h-123v538h123v-538zM260 572l-125 93l-123 -93l-64 71l188 136l186 -136z" />
    <glyph glyph-name="idieresis.sc" horiz-adv-x="271" 
d="M197 0h-123v538h123v-538zM115 646c0 -35 -31 -64 -71 -64c-37 0 -68 29 -68 64c0 37 31 65 68 65c40 0 71 -28 71 -65zM295 646c0 -35 -27 -64 -70 -64c-39 0 -68 29 -68 64c0 37 29 65 68 65c43 0 70 -28 70 -65z" />
    <glyph glyph-name="itilde.sc" horiz-adv-x="271" 
d="M197 0h-123v538h123v-538zM296 740l49 -79c-28 -28 -82 -78 -139 -78c-58 0 -90 49 -134 49c-33 0 -60 -28 -88 -50l-58 73c28 25 97 78 149 78s86 -51 127 -51c37 0 78 40 94 58z" />
    <glyph glyph-name="imacron.sc" horiz-adv-x="271" 
d="M197 0h-123v538h123v-538zM329 600h-387v99h387v-99z" />
    <glyph glyph-name="ibreve.sc" horiz-adv-x="271" 
d="M197 0h-123v538h123v-538zM204 755h108c-5 -76 -60 -172 -181 -172c-87 0 -164 59 -173 172h111c0 -14 6 -83 61 -83c69 0 74 76 74 83z" />
    <glyph glyph-name="iogonek.sc" horiz-adv-x="272" 
d="M233 -115v-78c-40 -24 -82 -34 -119 -34c-77 0 -121 44 -121 99c0 42 25 90 82 129v537h123v-543c-87 -35 -104 -79 -104 -103c0 -25 18 -32 44 -32c36 0 78 14 95 25z" />
    <glyph glyph-name="idotaccent.sc" horiz-adv-x="271" 
d="M197 0h-123v538h123v-538zM207 672c0 -38 -31 -71 -73 -71c-38 0 -72 33 -72 71c0 41 34 74 72 74c42 0 73 -33 73 -74z" />
    <glyph glyph-name="dotlessi.sc" horiz-adv-x="271" 
d="M197 0h-123v538h123v-538z" />
    <glyph glyph-name="ij.sc" horiz-adv-x="543" 
d="M197 0h-123v538h123v-538zM266 -181l-44 103c102 27 124 52 124 160v456h123v-459c0 -152 -45 -203 -203 -260z" />
    <glyph glyph-name="dotlessj.sc" horiz-adv-x="272" 
d="M-5 -181l-44 103c102 27 124 52 124 160v456h123v-459c0 -152 -45 -203 -203 -260z" />
    <glyph glyph-name="jcircumflex.sc" horiz-adv-x="272" 
d="M-5 -181l-44 103c102 27 124 52 124 160v456h123v-459c0 -152 -45 -203 -203 -260zM261 572l-125 93l-123 -93l-64 71l188 136l186 -136z" />
    <glyph glyph-name="kcommaaccent.sc" horiz-adv-x="602" 
d="M609 0h-181l-230 197v-197h-124v538h124v-194l193 194h160l-276 -262zM279 -244h-101l74 205h139z" />
    <glyph glyph-name="kgreenlandic.sc" horiz-adv-x="605" 
d="M609 0h-181l-230 197v-197h-124v538h124v-194l193 194h160l-276 -262z" />
    <glyph glyph-name="lslash.sc" horiz-adv-x="469" 
d="M446 1h-362v139l-60 -31v118l60 32v279h123v-210l118 60v-118l-118 -61v-98h239v-110z" />
    <glyph glyph-name="lacute.sc" horiz-adv-x="460" 
d="M437 1h-362v537h123v-427h239v-110zM332 766l-192 -163l-76 50l168 186z" />
    <glyph glyph-name="lcommaaccent.sc" horiz-adv-x="459" 
d="M437 1h-362v537h123v-427h239v-110zM236 -244h-101l74 205h139z" />
    <glyph glyph-name="lcaron.sc" horiz-adv-x="486" 
d="M437 1h-362v537h123v-427h239v-110zM397 386h-101l74 205h139z" />
    <glyph glyph-name="ldot.sc" horiz-adv-x="507" 
d="M437 1h-362v537h123v-427h239v-110zM473 332c0 -38 -31 -71 -73 -71c-38 0 -72 33 -72 71c0 41 34 74 72 74c42 0 73 -33 73 -74z" />
    <glyph glyph-name="uni1E41.sc" horiz-adv-x="783" 
d="M739 0h-124l-31 232c-1 14 -1 27 0 39c-3 -10 -11 -23 -22 -40l-171 -252l-172 251c-10 15 -16 28 -21 40c2 -9 2 -22 1 -39l-30 -231h-124l82 552l257 -364c4 -8 6 -12 7 -18c1 6 1 10 7 18l258 364zM464 654c0 -38 -31 -71 -73 -71c-38 0 -72 33 -72 71
c0 41 34 74 72 74c42 0 73 -33 73 -74z" />
    <glyph glyph-name="ntilde.sc" horiz-adv-x="676" 
d="M479 752l41 -62c-12 -19 -63 -89 -130 -89c-45 0 -78 40 -118 40c-37 0 -69 -34 -86 -51l-56 64c28 27 94 85 146 85c46 0 78 -42 117 -42c35 0 72 40 86 55zM602 -20l-408 325l2 -305h-123l2 554l408 -328l-2 312h122z" />
    <glyph glyph-name="nacute.sc" horiz-adv-x="676" 
d="M602 -20l-408 325l2 -305h-123l2 554l408 -328l-2 312h122zM502 766l-192 -163l-76 50l168 186z" />
    <glyph glyph-name="ncommaaccent.sc" horiz-adv-x="676" 
d="M602 -20l-408 325l2 -305h-123l2 554l408 -328l-2 312h122zM333 -244h-101l74 205h139z" />
    <glyph glyph-name="ncaron.sc" horiz-adv-x="676" 
d="M602 -20l-408 325l2 -305h-123l2 554l408 -328l-2 312h122zM515 734l-186 -136l-188 136l64 71l123 -93l125 93z" />
    <glyph glyph-name="napostrophe.sc" horiz-adv-x="746" 
d="M672 -20l-408 325l2 -305h-123l2 554l408 -328l-2 312h122zM20 482h-101l74 205h139z" />
    <glyph glyph-name="eng.sc" horiz-adv-x="677" 
d="M400 -181l-44 103c100 27 123 52 124 154l-286 229l2 -305h-123l2 554l405 -326v310h123v-459c0 -152 -45 -203 -203 -260z" />
    <glyph glyph-name="ograve.sc" horiz-adv-x="687" 
d="M645 266c0 -152 -138 -280 -301 -280c-169 0 -302 130 -302 283c0 154 133 283 302 283c167 0 301 -123 301 -286zM518 268c0 98 -77 174 -175 174c-99 0 -174 -76 -174 -173c0 -94 75 -173 173 -173c100 0 176 76 176 172zM462 652l-81 -50l-192 163l105 73z" />
    <glyph glyph-name="oacute.sc" horiz-adv-x="687" 
d="M645 266c0 -152 -138 -280 -301 -280c-169 0 -302 130 -302 283c0 154 133 283 302 283c167 0 301 -123 301 -286zM518 268c0 98 -77 174 -175 174c-99 0 -174 -76 -174 -173c0 -94 75 -173 173 -173c100 0 176 76 176 172zM534 765l-194 -163l-77 52l167 184z" />
    <glyph glyph-name="ocircumflex.sc" horiz-adv-x="687" 
d="M645 266c0 -152 -138 -280 -301 -280c-169 0 -302 130 -302 283c0 154 133 283 302 283c167 0 301 -123 301 -286zM518 268c0 98 -77 174 -175 174c-99 0 -174 -76 -174 -173c0 -94 75 -173 173 -173c100 0 176 76 176 172zM468 599l-125 83l-123 -83l-64 70l188 136
l186 -136z" />
    <glyph glyph-name="otilde.sc" horiz-adv-x="687" 
d="M645 266c0 -152 -138 -280 -301 -280c-169 0 -302 130 -302 283c0 154 133 283 302 283c167 0 301 -123 301 -286zM518 268c0 98 -77 174 -175 174c-99 0 -174 -76 -174 -173c0 -94 75 -173 173 -173c100 0 176 76 176 172zM498 759l41 -62c-12 -19 -63 -89 -130 -89
c-45 0 -78 40 -118 40c-37 0 -69 -34 -86 -51l-56 64c28 27 94 85 146 85c46 0 78 -42 117 -42c35 0 72 40 86 55z" />
    <glyph glyph-name="odieresis.sc" horiz-adv-x="687" 
d="M645 266c0 -152 -138 -280 -301 -280c-169 0 -302 130 -302 283c0 154 133 283 302 283c167 0 301 -123 301 -286zM518 268c0 98 -77 174 -175 174c-99 0 -174 -76 -174 -173c0 -94 75 -173 173 -173c100 0 176 76 176 172zM289 681c0 -35 -31 -64 -71 -64
c-37 0 -68 29 -68 64c0 37 31 65 68 65c40 0 71 -28 71 -65zM529 681c0 -35 -27 -64 -70 -64c-39 0 -68 29 -68 64c0 37 29 65 68 65c43 0 70 -28 70 -65z" />
    <glyph glyph-name="omacron.sc" horiz-adv-x="687" 
d="M645 266c0 -152 -138 -280 -301 -280c-169 0 -302 130 -302 283c0 154 133 283 302 283c167 0 301 -123 301 -286zM518 268c0 98 -77 174 -175 174c-99 0 -174 -76 -174 -173c0 -94 75 -173 173 -173c100 0 176 76 176 172zM537 620h-387v99h387v-99z" />
    <glyph glyph-name="obreve.sc" horiz-adv-x="687" 
d="M645 266c0 -152 -138 -280 -301 -280c-169 0 -302 130 -302 283c0 154 133 283 302 283c167 0 301 -123 301 -286zM518 268c0 98 -77 174 -175 174c-99 0 -174 -76 -174 -173c0 -94 75 -173 173 -173c100 0 176 76 176 172zM412 775h108c-5 -76 -60 -172 -181 -172
c-87 0 -164 59 -173 172h111c0 -14 6 -83 61 -83c69 0 74 76 74 83z" />
    <glyph glyph-name="ohungarumlaut.sc" horiz-adv-x="687" 
d="M645 266c0 -152 -138 -280 -301 -280c-169 0 -302 130 -302 283c0 154 133 283 302 283c167 0 301 -123 301 -286zM518 268c0 98 -77 174 -175 174c-99 0 -174 -76 -174 -173c0 -94 75 -173 173 -173c100 0 176 76 176 172zM388 733l-216 -131l-46 57l191 164zM620 733
l-216 -131l-46 57l191 164z" />
    <glyph glyph-name="oslash.sc" horiz-adv-x="687" 
d="M229 -121l-100 42l49 111c-83 51 -136 140 -136 237c0 154 133 283 302 283c20 0 40 -2 59 -5l50 113l103 -46l-48 -107c83 -50 137 -138 137 -241c0 -152 -138 -280 -301 -280c-22 0 -44 3 -65 7zM326 96h16c100 0 176 76 176 172c0 52 -23 99 -58 130zM225 141l132 300
c-5 1 -10 1 -14 1c-99 0 -174 -76 -174 -173c0 -50 21 -96 56 -128z" />
    <glyph glyph-name="oslashacute.sc" horiz-adv-x="687" 
d="M229 -121l-100 42l49 111c-83 51 -136 140 -136 237c0 154 133 283 302 283c20 0 40 -2 59 -5l50 113l103 -46l-48 -107c83 -50 137 -138 137 -241c0 -152 -138 -280 -301 -280c-22 0 -44 3 -65 7zM326 96h16c100 0 176 76 176 172c0 52 -23 99 -58 130zM225 141l132 300
c-5 1 -10 1 -14 1c-99 0 -174 -76 -174 -173c0 -50 21 -96 56 -128zM484 765l-194 -163l-77 52l167 184z" />
    <glyph glyph-name="oe.sc" horiz-adv-x="941" 
d="M897 1h-378v52c-50 -47 -111 -67 -175 -67c-169 0 -302 130 -302 283c0 154 133 283 302 283c65 0 126 -19 175 -65v50h355v-110h-232v-98l187 1v-110l-187 1v-110h255v-110zM518 268c0 98 -77 174 -175 174c-99 0 -174 -76 -174 -173c0 -94 75 -173 173 -173
c100 0 176 76 176 172z" />
    <glyph glyph-name="uni1E57.sc" horiz-adv-x="501" 
d="M197 0h-123v538h132c156 0 262 -45 262 -178c0 -114 -77 -192 -234 -192h-37v-168zM197 278h35c73 0 106 33 106 77c0 38 -24 72 -97 73h-44v-150zM321 674c0 -38 -31 -71 -73 -71c-38 0 -72 33 -72 71c0 41 34 74 72 74c42 0 73 -33 73 -74z" />
    <glyph glyph-name="thorn.sc" horiz-adv-x="500" 
d="M197 0h-123v538h123v-84h9c156 0 262 -45 262 -178c0 -114 -77 -192 -234 -192h-37v-84zM197 194h35c73 0 106 33 106 77c0 38 -24 72 -97 73h-44v-150z" />
    <glyph glyph-name="racute.sc" horiz-adv-x="563" 
d="M423 766l-192 -163l-76 50l168 186zM585 0h-174l-189 187l-25 24v-211h-123v538h132c150 0 262 -44 262 -171c0 -76 -60 -141 -135 -159zM197 278h34c75 0 107 41 107 84c0 41 -31 76 -96 76h-45v-160z" />
    <glyph glyph-name="rcommaaccent.sc" horiz-adv-x="560" 
d="M276 -244h-101l74 205h139zM585 0h-174l-189 187l-25 24v-211h-123v538h132c150 0 262 -44 262 -171c0 -76 -60 -141 -135 -159zM197 278h34c75 0 107 41 107 84c0 41 -31 76 -96 76h-45v-160z" />
    <glyph glyph-name="rcaron.sc" horiz-adv-x="563" 
d="M435 734l-186 -136l-188 136l64 71l123 -93l125 93zM585 0h-174l-189 187l-25 24v-211h-123v538h132c150 0 262 -44 262 -171c0 -76 -60 -141 -135 -159zM197 278h34c75 0 107 41 107 84c0 41 -31 76 -96 76h-45v-160z" />
    <glyph glyph-name="scaron.sc" horiz-adv-x="499" 
d="M440 485l-57 -84c-32 29 -72 49 -116 49c-42 0 -69 -14 -69 -47c0 -90 261 -63 261 -256c0 -81 -79 -161 -222 -161c-91 0 -177 50 -210 91l62 82c30 -31 89 -66 147 -66c52 0 90 18 90 55c0 102 -260 76 -260 255c0 97 98 148 199 148c87 0 142 -35 175 -66zM445 725
l-186 -136l-188 136l64 71l123 -93l125 93z" />
    <glyph glyph-name="sacute.sc" horiz-adv-x="499" 
d="M440 485l-57 -84c-32 29 -72 49 -116 49c-42 0 -69 -14 -69 -47c0 -90 261 -63 261 -256c0 -81 -79 -161 -222 -161c-91 0 -177 50 -210 91l62 82c30 -31 89 -66 147 -66c52 0 90 18 90 55c0 102 -260 76 -260 255c0 97 98 148 199 148c87 0 142 -35 175 -66zM413 766
l-192 -163l-76 50l168 186z" />
    <glyph glyph-name="scircumflex.sc" horiz-adv-x="499" 
d="M440 485l-57 -84c-32 29 -72 49 -116 49c-42 0 -69 -14 -69 -47c0 -90 261 -63 261 -256c0 -81 -79 -161 -222 -161c-91 0 -177 50 -210 91l62 82c30 -31 89 -66 147 -66c52 0 90 18 90 55c0 102 -260 76 -260 255c0 97 98 148 199 148c87 0 142 -35 175 -66zM379 592
l-125 93l-123 -93l-64 71l188 136l186 -136z" />
    <glyph glyph-name="scedilla.sc" horiz-adv-x="499" 
d="M440 485l-57 -84c-32 29 -72 49 -116 49c-42 0 -69 -14 -69 -47c0 -90 261 -63 261 -256c0 -81 -79 -161 -222 -161c-91 0 -177 50 -210 91l62 82c30 -31 89 -66 147 -66c52 0 90 18 90 55c0 102 -260 76 -260 255c0 97 98 148 199 148c87 0 142 -35 175 -66zM244 -254
h-101l74 205h139z" />
    <glyph glyph-name="uni1E61.sc" horiz-adv-x="499" 
d="M440 485l-57 -84c-32 29 -72 49 -116 49c-42 0 -69 -14 -69 -47c0 -90 261 -63 261 -256c0 -81 -79 -161 -222 -161c-91 0 -177 50 -210 91l62 82c30 -31 89 -66 147 -66c52 0 90 18 90 55c0 102 -260 76 -260 255c0 97 98 148 199 148c87 0 142 -35 175 -66zM315 674
c0 -38 -31 -71 -73 -71c-38 0 -72 33 -72 71c0 41 34 74 72 74c42 0 73 -33 73 -74z" />
    <glyph glyph-name="tcommaaccent.sc" horiz-adv-x="514" 
d="M319 0h-123v427h-173v110h468v-110h-172v-427zM251 -244h-101l74 205h139z" />
    <glyph glyph-name="tcaron.sc" horiz-adv-x="514" 
d="M319 0h-123v427h-173v110h468v-110h-172v-427zM444 724l-186 -136l-188 136l64 71l123 -93l125 93z" />
    <glyph glyph-name="tbar.sc" horiz-adv-x="514" 
d="M319 0h-123v223h-128v99h128v105h-173v110h468v-110h-172v-105h126v-99h-126v-223z" />
    <glyph glyph-name="uni1E6B.sc" horiz-adv-x="514" 
d="M319 0h-123v427h-173v110h468v-110h-172v-427zM329 674c0 -38 -31 -71 -73 -71c-38 0 -72 33 -72 71c0 41 34 74 72 74c42 0 73 -33 73 -74z" />
    <glyph glyph-name="ugrave.sc" horiz-adv-x="626" 
d="M409 652l-81 -50l-192 163l105 73zM430 122v416h123v-474c-47 -45 -123 -78 -242 -78c-155 0 -240 71 -240 214v338h123v-256c0 -135 16 -187 121 -187c48 0 88 10 115 27z" />
    <glyph glyph-name="uacute.sc" horiz-adv-x="626" 
d="M496 765l-194 -163l-77 52l167 184zM430 122v416h123v-474c-47 -45 -123 -78 -242 -78c-155 0 -240 71 -240 214v338h123v-256c0 -135 16 -187 121 -187c48 0 88 10 115 27z" />
    <glyph glyph-name="ucircumflex.sc" horiz-adv-x="626" 
d="M430 122v416h123v-474c-47 -45 -123 -78 -242 -78c-155 0 -240 71 -240 214v338h123v-256c0 -135 16 -187 121 -187c48 0 88 10 115 27zM439 599l-125 83l-123 -83l-64 70l188 136l186 -136z" />
    <glyph glyph-name="udieresis.sc" horiz-adv-x="626" 
d="M430 122v416h123v-474c-47 -45 -123 -78 -242 -78c-155 0 -240 71 -240 214v338h123v-256c0 -135 16 -187 121 -187c48 0 88 10 115 27zM258 681c0 -35 -31 -64 -71 -64c-37 0 -68 29 -68 64c0 37 31 65 68 65c40 0 71 -28 71 -65zM498 681c0 -35 -27 -64 -70 -64
c-39 0 -68 29 -68 64c0 37 29 65 68 65c43 0 70 -28 70 -65z" />
    <glyph glyph-name="utilde.sc" horiz-adv-x="626" 
d="M430 122v416h123v-474c-47 -45 -123 -78 -242 -78c-155 0 -240 71 -240 214v338h123v-256c0 -135 16 -187 121 -187c48 0 88 10 115 27zM475 760l49 -79c-28 -28 -82 -78 -139 -78c-58 0 -90 49 -134 49c-33 0 -60 -28 -88 -50l-58 73c28 25 97 78 149 78s86 -51 127 -51
c37 0 78 40 94 58z" />
    <glyph glyph-name="umacron.sc" horiz-adv-x="626" 
d="M430 122v416h123v-474c-47 -45 -123 -78 -242 -78c-155 0 -240 71 -240 214v338h123v-256c0 -135 16 -187 121 -187c48 0 88 10 115 27zM508 620h-387v99h387v-99z" />
    <glyph glyph-name="ubreve.sc" horiz-adv-x="626" 
d="M430 122v416h123v-474c-47 -45 -123 -78 -242 -78c-155 0 -240 71 -240 214v338h123v-256c0 -135 16 -187 121 -187c48 0 88 10 115 27zM383 775h108c-5 -76 -60 -172 -181 -172c-87 0 -164 59 -173 172h111c0 -14 6 -83 61 -83c69 0 74 76 74 83z" />
    <glyph glyph-name="uring.sc" horiz-adv-x="626" 
d="M430 122v416h123v-474c-47 -45 -123 -78 -242 -78c-155 0 -240 71 -240 214v338h123v-256c0 -135 16 -187 121 -187c48 0 88 10 115 27zM439 724c0 -67 -55 -121 -124 -121c-70 0 -125 54 -125 121c0 68 56 121 125 121s124 -56 124 -121zM367 724c0 28 -24 53 -52 53
s-50 -25 -50 -53s22 -52 50 -52s52 24 52 52z" />
    <glyph glyph-name="uhungarumlaut.sc" horiz-adv-x="626" 
d="M430 122v416h123v-474c-47 -45 -123 -78 -242 -78c-155 0 -240 71 -240 214v338h123v-256c0 -135 16 -187 121 -187c48 0 88 10 115 27zM369 733l-216 -131l-46 57l191 164zM601 733l-216 -131l-46 57l191 164z" />
    <glyph glyph-name="uogonek.sc" horiz-adv-x="625" 
d="M496 -123v-78c-40 -24 -82 -34 -119 -34c-77 0 -121 44 -121 99c0 39 22 84 72 122h-18c-155 0 -240 71 -240 214v338h123v-256c0 -135 16 -187 121 -187c48 0 88 10 115 27v416h123v-474c-28 -26 -65 -48 -114 -62c-62 -49 -81 -91 -81 -121c0 -22 20 -29 45 -29
c34 0 77 14 94 25z" />
    <glyph glyph-name="wcircumflex.sc" horiz-adv-x="854" 
d="M613 -30l-186 341l-184 -339l-247 566h136l122 -306c3 -8 3 -15 4 -30c1 15 2 22 6 30l164 329l166 -329c3 -7 5 -15 6 -30c0 15 1 23 4 30l119 306h133zM552 592l-125 93l-123 -93l-64 71l188 136l186 -136z" />
    <glyph glyph-name="wgrave.sc" horiz-adv-x="854" 
d="M613 -30l-186 341l-184 -339l-247 566h136l122 -306c3 -8 3 -15 4 -30c1 15 2 22 6 30l164 329l166 -329c3 -7 5 -15 6 -30c0 15 1 23 4 30l119 306h133zM561 653l-76 -50l-192 163l100 73z" />
    <glyph glyph-name="wacute.sc" horiz-adv-x="854" 
d="M613 -30l-186 341l-184 -339l-247 566h136l122 -306c3 -8 3 -15 4 -30c1 15 2 22 6 30l164 329l166 -329c3 -7 5 -14 6 -27c0 13 1 20 4 27l119 306h133zM561 766l-192 -163l-76 50l168 186z" />
    <glyph glyph-name="wdieresis.sc" horiz-adv-x="854" 
d="M613 -30l-186 341l-184 -339l-247 566h136l122 -306c3 -8 3 -15 4 -30c1 15 2 22 6 30l164 329l166 -329c3 -7 5 -15 6 -30c0 15 1 23 4 30l119 306h133zM377 666c0 -35 -31 -64 -71 -64c-37 0 -68 29 -68 64c0 37 31 65 68 65c40 0 71 -28 71 -65zM617 666
c0 -35 -27 -64 -70 -64c-39 0 -68 29 -68 64c0 37 29 65 68 65c43 0 70 -28 70 -65z" />
    <glyph glyph-name="yacute.sc" horiz-adv-x="545" 
d="M334 0h-123v217l-221 321h151l131 -220l132 220h151l-221 -321v-217zM455 766l-192 -163l-76 50l168 186z" />
    <glyph glyph-name="ydieresis.sc" horiz-adv-x="545" 
d="M334 0h-123v217l-221 321h151l131 -220l132 220h151l-221 -321v-217zM222 666c0 -35 -31 -64 -71 -64c-37 0 -68 29 -68 64c0 37 31 65 68 65c40 0 71 -28 71 -65zM462 666c0 -35 -27 -64 -70 -64c-39 0 -68 29 -68 64c0 37 29 65 68 65c43 0 70 -28 70 -65z" />
    <glyph glyph-name="ycircumflex.sc" horiz-adv-x="545" 
d="M334 0h-123v217l-221 321h151l131 -220l132 220h151l-221 -321v-217zM397 592l-125 93l-123 -93l-64 71l188 136l186 -136z" />
    <glyph glyph-name="ygrave.sc" horiz-adv-x="545" 
d="M334 0h-123v217l-221 321h151l131 -220l132 220h151l-221 -321v-217zM366 653l-76 -50l-192 163l100 73z" />
    <glyph glyph-name="zcaron.sc" horiz-adv-x="590" 
d="M548 1h-540l318 426h-240v110h465l-317 -426h314v-110zM486 734l-186 -136l-188 136l64 71l123 -93l125 93z" />
    <glyph glyph-name="zacute.sc" horiz-adv-x="590" 
d="M548 1h-540l318 426h-240v110h465l-317 -426h314v-110zM464 766l-192 -163l-76 50l168 186z" />
    <glyph glyph-name="zdotaccent.sc" horiz-adv-x="590" 
d="M548 1h-540l318 426h-240v110h465l-317 -426h314v-110zM368 674c0 -38 -31 -71 -73 -71c-38 0 -72 33 -72 71c0 41 34 74 72 74c42 0 73 -33 73 -74z" />
    <glyph glyph-name="ampersand.sc" horiz-adv-x="638" 
d="M647 0h-154l-57 66c-37 -34 -100 -75 -175 -75c-134 0 -223 97 -223 193c0 97 81 158 132 184c-13 9 -33 35 -33 69c0 55 58 110 136 110c91 0 124 -53 133 -65l-67 -58c-8 12 -32 39 -56 39c-25 0 -41 -17 -41 -38c0 -16 11 -29 24 -41h217l-25 -88h-99zM364 135
l-147 156c-26 -10 -64 -41 -64 -100c0 -66 62 -108 110 -108c55 0 87 32 101 52z" />
    <glyph glyph-name="dollar.sc" horiz-adv-x="505" 
d="M219 -98l-60 4l18 91c-58 15 -110 47 -134 68l63 88c22 -19 56 -39 93 -49l26 125c-74 35 -144 80 -144 165c0 93 88 151 181 151c9 0 19 -1 28 -2l16 77l60 -4l-18 -88c46 -18 78 -45 83 -51l-57 -89c-14 12 -31 24 -48 33l-20 -97c118 -58 143 -101 143 -176
c0 -84 -78 -159 -212 -159zM281 203l-22 -105c41 4 61 24 61 49c0 27 -17 44 -39 56zM250 348l18 91h-4c-30 0 -59 -14 -59 -42c0 -21 21 -37 45 -49z" />
    <glyph glyph-name="cent.sc" horiz-adv-x="463" 
d="M287 -19h-91c0 33 1 68 1 101c-84 21 -153 88 -153 177c0 90 65 157 153 179c0 33 -1 79 -1 103h91c0 -32 -1 -69 -1 -101c62 -9 117 -46 130 -61l-51 -71c-12 12 -46 31 -79 36v-169c33 2 67 13 89 34l48 -64c-46 -46 -90 -62 -137 -67c0 -33 1 -73 1 -97zM204 179v162
c-32 -9 -65 -36 -65 -82c0 -44 35 -70 65 -80z" />
    <glyph glyph-name="sterling.sc" horiz-adv-x="521" 
d="M475 95l10 -91c-19 -6 -75 -17 -106 -17c-45 0 -97 20 -136 20c-59 0 -156 -44 -164 -49l-42 87c11 7 69 30 112 41v119h-64v92h64v83c0 103 47 163 153 163c51 0 99 -29 109 -36l-48 -81c-11 8 -34 23 -59 23c-29 0 -43 -22 -43 -52v-100h110v-92h-113v-113
c9 1 25 1 33 1c18 0 61 -15 91 -15c29 0 65 8 93 17z" />
    <glyph glyph-name="yen.sc" horiz-adv-x="624" 
d="M540 60h-168v-51h-119v51h-170v74h170v51h-170v74h142l-186 270h146l127 -213l128 213h146l-187 -270h141v-74h-168v-51h168v-74z" />
    <glyph glyph-name="Euro.sc" horiz-adv-x="567" 
d="M483 110l40 -87c-10 -5 -68 -34 -151 -34c-124 0 -212 71 -245 184h-89l25 78h50c-1 3 -2 18 -2 24c0 5 1 20 2 25h-64l21 78h57c33 110 112 181 243 181c61 0 117 -23 153 -42l-44 -73c-14 5 -70 27 -118 27c-61 0 -100 -29 -124 -93l207 2l-24 -80h-206
c-2 -9 -2 -17 -2 -25s0 -16 2 -24l223 1l-24 -79h-175c25 -62 70 -98 135 -98c51 0 104 31 110 35z" />
    <glyph glyph-name="florin.sc" horiz-adv-x="388" 
d="M-67 -147l18 75c14 -5 31 -9 49 -9c22 0 36 40 40 61l60 286h-64l20 93h64l7 39c19 106 62 190 175 190c32 0 67 -16 79 -23l-26 -83c-14 6 -31 14 -48 14c-48 0 -61 -68 -73 -137h82l-19 -93h-81c-34 -165 -47 -224 -66 -305c-19 -84 -73 -130 -150 -130
c-24 0 -56 16 -67 22z" />
    <glyph glyph-name="currency.sc" horiz-adv-x="557" 
d="M505 90l-64 -57l-60 58c-28 -18 -63 -30 -104 -30c-42 0 -75 12 -104 30l-61 -60l-60 62l59 60c-20 28 -34 65 -34 107c0 43 13 77 33 104l-59 62l60 61l62 -61c30 19 64 31 104 31c42 0 77 -12 105 -30l59 59l65 -58l-60 -65c18 -26 31 -62 31 -103
c0 -44 -12 -78 -33 -107zM387 260c0 58 -51 106 -110 106c-55 0 -109 -48 -109 -106c0 -59 53 -108 109 -108c59 0 110 49 110 108z" />
    <glyph glyph-name="numbersign.sc" horiz-adv-x="556" 
d="M385 -2l-93 13l18 133h-97l-20 -146l-92 13l18 133h-74v90h86l11 78h-79v91h91l21 148l93 -9l-19 -139h96l21 148l94 -9l-19 -139h70v-91h-83l-11 -78h76l-1 -90h-87zM322 234l11 78h-97l-11 -78h97z" />
    </font>
</defs>
</svg>
